<svg xmlns="http://www.w3.org/2000/svg" width="1254" height="836" viewBox="0 0 1254 836">
<g>
<path d="M 650.30 347.45 L 650.15 355.45 L 652.05 352.98 C658.86,344.13 663.97,329.56 663.97,319.00 C663.98,301.49 654.41,288.51 633.65,277.89 C615.74,268.72 614.00,267.33 609.54,258.52 C599.02,237.77 570.71,219.06 534.73,209.08 C523.84,206.05 517.41,204.64 468.10,194.48 C425.31,185.66 409.38,180.24 406.59,173.56 C405.28,170.43 404.67,170.00 401.57,170.00 C395.06,170.00 393.25,176.92 398.96,179.98 C400.01,180.54 401.83,181.00 403.01,181.00 C404.19,181.00 408.15,182.74 411.83,184.87 C424.22,192.07 442.27,198.87 462.76,204.05 C467.85,205.34 471.66,206.74 471.23,207.17 C469.18,209.22 426.45,202.70 403.50,196.84 C376.77,190.02 363.86,184.94 360.93,180.12 C358.76,176.55 354.85,175.92 351.83,178.65 C347.75,182.35 351.84,188.58 357.74,187.64 C360.19,187.25 363.27,188.20 370.31,191.49 C395.22,203.13 417.00,208.54 478.98,218.50 C499.03,221.73 524.32,228.03 522.89,229.44 C522.67,229.65 517.78,229.20 512.00,228.43 C506.23,227.67 496.68,227.03 490.79,227.02 C479.62,227.00 460.51,228.74 458.12,230.00 C457.37,230.40 460.97,231.04 466.12,231.42 C482.87,232.66 506.06,236.07 517.41,238.95 C530.06,242.17 541.69,247.09 557.45,255.87 C570.91,263.37 581.32,266.93 592.75,267.94 C597.56,268.37 600.32,268.78 598.88,268.86 C596.53,268.99 596.19,269.50 595.61,273.85 C594.40,282.99 585.75,292.57 572.77,299.11 C564.61,303.23 549.93,308.00 545.40,308.00 C542.49,308.00 541.87,308.27 542.78,309.18 C544.23,310.63 559.83,310.83 576.50,309.60 C590.04,308.61 604.44,309.85 617.40,313.12 C632.23,316.87 642.98,324.18 647.63,333.67 C650.08,338.68 650.44,340.52 650.30,347.45 ZM 917.00 397.27 L 917.00 491.00 L 937.00 491.00 L 937.00 463.00 L 947.32 463.00 C966.12,463.00 975.23,459.98 983.20,451.12 C989.26,444.38 991.39,437.52 990.79,426.66 C989.86,409.81 980.57,399.92 962.99,397.07 C955.86,395.91 928.98,395.63 921.64,396.64 ZM 814.00 444.11 L 814.00 491.00 L 834.00 491.00 L 834.00 452.00 L 874.00 452.00 L 874.00 491.00 L 894.00 491.00 L 894.00 396.00 L 874.04 396.00 L 873.77 414.75 L 873.50 433.50 L 834.50 433.50 L 834.23 414.75 L 833.96 396.00 L 825.56 396.00 C820.94,396.00 816.45,396.27 815.58,396.61 C814.17,397.15 814.00,402.27 814.00,444.11 ZM 739.00 491.97 C748.61,493.67 759.84,492.13 768.14,487.96 C774.31,484.86 781.48,476.92 784.19,470.19 C786.39,464.72 786.48,463.20 786.80,430.25 L 787.12 396.00 L 767.10 396.00 L 766.80 428.25 C766.50,460.33 766.49,460.52 764.06,464.75 C756.80,477.43 735.58,476.67 729.00,463.50 C726.52,458.53 726.50,458.31 726.20,427.11 L 725.89 395.72 L 719.20 396.35 C715.51,396.70 711.04,396.99 709.25,396.99 L 706.00 397.00 L 706.00 426.95 C706.00,445.30 706.44,458.95 707.12,462.20 C710.53,478.30 721.93,488.93 739.00,491.97 ZM 649.00 491.97 C656.55,493.55 668.87,492.44 676.09,489.55 C682.44,487.00 694.00,478.78 694.00,476.82 C694.00,476.26 691.35,473.06 688.12,469.71 L 682.23 463.63 L 678.98 466.36 C668.12,475.50 654.00,476.43 643.79,468.69 C629.21,457.63 627.24,435.71 639.58,422.04 C645.62,415.36 650.02,413.52 660.00,413.52 C669.03,413.52 674.29,415.34 678.40,419.89 C679.45,421.05 680.86,422.00 681.53,422.00 C682.21,422.00 685.38,419.01 688.59,415.35 L 694.43 408.71 L 690.46 405.22 C688.28,403.31 683.58,400.34 680.00,398.64 C674.17,395.85 672.34,395.50 662.28,395.16 C648.77,394.71 640.57,396.77 631.35,402.93 C606.73,419.36 603.33,457.84 624.65,478.68 C630.39,484.29 641.66,490.44 649.00,491.97 ZM 539.35 443.74 C541.01,445.51 542.53,446.81 542.73,446.61 C542.93,446.41 541.51,442.43 539.58,437.77 C533.33,422.66 531.66,414.95 531.60,401.00 C531.57,390.66 531.96,387.21 533.88,381.03 C539.31,363.49 548.12,351.44 563.51,340.45 C577.99,330.12 600.05,324.65 617.88,326.96 C623.04,327.63 629.34,328.81 631.88,329.58 C639.47,331.88 639.85,331.18 633.29,326.98 C619.58,318.20 605.61,315.00 580.97,315.00 C558.39,315.00 540.53,318.44 517.75,327.17 C509.73,330.25 508.16,332.23 511.52,335.02 C512.76,336.05 513.74,335.98 516.77,334.67 C534.00,327.19 552.58,322.98 571.00,322.38 L 584.50 321.93 L 575.50 325.30 C564.89,329.27 561.84,330.78 552.50,336.73 C537.63,346.19 524.63,362.29 520.35,376.50 C517.62,385.59 517.85,401.36 520.85,410.96 C524.71,423.29 531.46,435.26 539.35,443.74 ZM 533.25 630.96 C535.18,634.49 537.32,634.57 537.82,631.14 C538.20,628.57 530.79,614.42 524.14,605.00 C521.62,601.42 515.04,593.96 509.53,588.42 C496.21,575.03 483.29,565.54 461.93,553.48 C438.02,539.98 413.99,517.51 399.48,495.07 C390.13,480.63 381.87,460.66 378.34,444.00 C376.56,435.61 375.76,408.42 377.00,398.50 C377.45,394.93 377.26,394.47 375.25,394.18 C371.57,393.66 370.76,397.71 370.67,417.00 C370.54,443.44 373.81,457.87 385.04,480.50 C393.16,496.86 402.11,509.01 417.50,524.59 C429.81,537.04 440.60,545.87 453.00,553.64 C456.02,555.54 463.20,560.02 468.94,563.61 C487.89,575.44 503.90,588.97 514.97,602.50 C519.92,608.56 527.21,619.90 533.25,630.96 ZM 614.67 557.33 C615.03,557.70 619.44,558.00 624.45,558.00 C635.13,558.00 641.01,555.72 644.72,550.14 C650.73,541.09 647.98,527.81 639.00,522.56 C636.21,520.93 633.31,520.44 624.75,520.15 L 614.00 519.78 L 614.00 538.22 C614.00,548.37 614.30,556.97 614.67,557.33 ZM 548.47 582.25 C550.10,583.44 552.45,582.64 552.81,580.77 C553.22,578.63 545.91,567.23 536.80,555.77 C527.38,543.93 516.04,533.59 500.50,522.66 C478.34,507.09 460.67,488.24 451.93,470.86 C448.00,463.04 446.33,461.69 444.05,464.44 C443.11,465.58 443.26,466.79 444.77,470.19 C447.81,477.01 454.79,487.89 461.01,495.50 C471.21,507.99 479.99,515.65 504.11,533.13 C517.86,543.09 534.54,561.04 543.97,576.00 C545.88,579.03 547.90,581.84 548.47,582.25 ZM 962.68 443.06 C959.47,444.51 956.15,444.96 948.42,444.98 C942.87,444.99 938.03,444.70 937.67,444.33 C937.30,443.97 937.00,436.94 937.00,428.71 L 937.00 413.76 L 949.36 414.17 C962.70,414.61 965.31,415.49 968.72,420.70 C971.00,424.18 970.93,433.31 968.59,437.83 C967.50,439.95 965.34,441.85 962.68,443.06 ZM 533.25 281.34 C541.73,284.27 547.06,284.53 556.00,282.47 C564.15,280.59 567.72,279.17 568.34,277.56 C568.70,276.63 567.52,276.42 563.66,276.76 C559.19,277.16 558.73,277.03 560.19,275.86 C561.66,274.67 561.73,273.80 560.77,269.07 C559.89,264.74 558.72,262.67 555.02,258.82 C550.75,254.39 549.98,254.00 545.63,254.00 C543.03,254.00 539.64,254.65 538.10,255.45 C534.76,257.18 529.45,263.01 528.50,266.01 C527.85,268.05 527.73,268.07 525.90,266.41 C521.91,262.80 522.91,266.18 527.38,271.41 C531.93,276.74 532.14,278.81 527.99,277.50 C526.90,277.15 526.00,277.31 526.00,277.85 C526.00,278.39 529.26,279.96 533.25,281.34 ZM 533.63 513.48 C536.25,516.10 541.26,515.09 542.44,511.70 C543.72,508.04 542.21,505.60 538.40,505.17 C534.67,504.75 531.38,501.60 523.08,490.50 C511.90,475.55 506.96,466.44 501.62,450.91 C495.80,434.00 493.09,412.98 494.86,398.62 C496.04,389.06 495.86,388.00 493.05,388.00 C490.24,388.00 489.79,390.26 489.25,407.14 C488.86,419.15 489.14,425.16 490.46,433.03 C494.69,458.32 505.89,480.58 523.72,499.10 C528.67,504.25 532.00,508.54 532.00,509.78 C532.00,510.92 532.73,512.59 533.63,513.48 ZM 303.81 467.28 C305.07,468.73 305.60,468.82 306.62,467.78 C307.63,466.75 307.39,464.52 305.42,456.50 C297.52,424.30 297.24,394.10 304.60,367.00 L 304.67 366.73 C307.57,356.05 308.39,353.00 307.44,352.27 C307.06,351.98 306.40,352.06 305.47,352.16 L 305.42 352.17 C302.80,352.47 302.37,353.17 299.79,361.28 C298.26,366.11 296.33,374.21 295.50,379.28 C293.52,391.50 293.53,419.51 295.52,432.00 C298.06,447.91 302.17,465.40 303.81,467.28 ZM 667.00 520.00 L 667.00 558.00 L 694.00 558.00 L 694.00 553.00 L 673.00 553.00 L 673.00 542.08 L 681.75 541.79 C690.47,541.50 690.50,541.49 690.82,538.75 L 691.13 536.00 L 673.00 536.00 L 673.00 526.07 L 693.50 525.50 L 693.82 522.75 L 694.13 520.00 ZM 277.30 222.04 C283.97,226.11 293.08,223.56 296.33,216.72 C298.36,212.44 298.43,209.95 296.62,205.64 C294.41,200.34 290.62,198.00 284.25,198.00 C279.21,198.00 278.45,198.32 274.88,201.88 C271.61,205.15 271.00,206.42 271.00,209.93 C271.00,215.26 273.24,219.57 277.30,222.04 ZM 322.00 319.51 C324.15,322.10 325.76,321.19 331.33,314.25 C345.25,296.89 366.28,281.11 387.00,272.48 C393.42,269.81 394.95,268.62 394.98,266.32 C395.02,263.70 390.88,263.98 383.79,267.08 C365.23,275.19 343.66,290.70 331.05,305.01 C321.64,315.69 320.44,317.62 322.00,319.51 ZM 244.50 398.45 C250.49,400.57 256.18,398.70 259.60,393.49 C261.51,390.57 261.77,382.31 260.05,379.10 C258.21,375.66 253.01,373.01 248.12,373.00 C244.28,373.00 243.20,373.54 239.37,377.37 C235.70,381.03 235.00,382.37 235.00,385.64 C235.00,388.16 235.89,390.85 237.54,393.27 C238.93,395.32 240.17,397.01 240.29,397.02 C240.40,397.02 242.30,397.67 244.50,398.45 ZM 304.90 496.74 C308.84,499.36 312.63,499.60 317.57,497.53 C322.02,495.68 325.52,488.60 324.55,483.43 C322.52,472.59 308.64,468.70 301.66,477.00 C296.39,483.25 297.83,492.03 304.90,496.74 ZM 633.20 551.82 C628.92,553.10 621.73,553.40 620.67,552.33 C620.30,551.97 620.00,545.89 620.00,538.83 L 620.00 526.00 L 627.37 526.00 C633.24,526.00 635.25,526.41 637.29,528.02 C640.67,530.67 642.37,536.05 641.55,541.50 C640.71,547.13 638.10,550.35 633.20,551.82 ZM 309.00 348.83 C313.71,350.16 313.82,350.16 316.32,348.88 C323.65,345.10 326.21,338.52 323.08,331.45 C318.61,321.34 305.77,321.86 300.62,332.36 C299.04,335.58 298.92,336.79 299.85,339.91 C301.21,344.45 304.36,347.51 309.00,348.83 ZM 765.75 556.84 C770.06,558.41 781.69,558.21 784.99,556.51 C791.27,553.26 793.16,545.07 788.66,540.57 C786.64,538.55 778.79,536.00 774.59,536.00 C772.64,536.00 768.00,532.08 768.00,530.43 C768.00,529.64 768.96,528.04 770.14,526.86 C772.10,524.90 772.96,524.78 780.64,525.37 C788.59,525.98 789.00,525.91 789.00,523.98 C789.00,521.25 785.37,520.00 777.39,520.00 C769.81,520.00 765.68,521.78 763.52,525.97 C759.45,533.83 764.14,539.90 775.51,541.51 C781.92,542.42 785.00,544.36 785.00,547.50 C785.00,551.56 781.06,553.37 773.72,552.69 C770.30,552.37 766.49,551.81 765.25,551.44 C763.33,550.87 763.00,551.14 763.00,553.30 C763.00,555.15 763.74,556.10 765.75,556.84 ZM 725.05 555.25 C725.97,557.23 727.06,558.00 728.96,558.00 C731.41,558.00 732.00,557.00 737.42,543.75 C740.63,535.91 744.10,527.33 745.15,524.69 L 747.04 519.87 L 743.83 520.19 C740.68,520.49 740.50,520.79 735.06,534.72 C732.00,542.54 729.24,548.96 728.93,548.97 C728.62,548.99 725.76,542.47 722.59,534.50 C717.00,520.48 716.71,520.00 713.91,520.00 C712.31,520.00 711.00,520.42 711.00,520.93 C711.00,521.76 721.97,548.54 725.05,555.25 ZM 434.00 318.29 C437.76,319.67 441.52,317.40 443.57,312.49 C444.79,309.56 446.01,308.85 456.21,305.12 C477.19,297.46 491.50,293.99 512.00,291.63 C522.18,290.46 523.05,290.22 519.56,289.51 C517.23,289.03 513.16,289.17 509.56,289.84 C506.23,290.46 499.00,291.69 493.50,292.57 C474.04,295.68 455.03,300.86 445.98,305.52 C443.89,306.59 443.03,306.58 440.98,305.44 C435.01,302.14 429.00,305.10 429.00,311.35 C429.00,314.60 430.81,317.12 434.00,318.29 ZM 537.11 654.60 C544.03,658.44 552.00,653.84 552.00,646.00 C552.00,635.78 538.86,632.19 533.67,640.99 C530.73,645.95 532.24,651.91 537.11,654.60 ZM 467.67 433.33 C468.85,434.52 470.77,434.04 471.39,432.42 C471.73,431.55 472.00,427.61 472.00,423.67 C472.01,413.72 474.49,400.32 478.51,388.50 C481.55,379.56 481.75,378.34 480.39,377.00 C479.04,375.66 478.67,375.75 477.01,377.77 C474.56,380.75 470.18,394.06 468.45,403.76 C467.03,411.74 466.49,432.15 467.67,433.33 ZM 551.40 602.60 C554.03,605.23 555.63,606.00 558.48,606.00 C567.12,606.00 571.31,595.16 565.08,588.92 C558.71,582.56 548.00,587.34 548.00,596.55 C548.00,598.23 549.24,600.44 551.40,602.60 ZM 351.14 492.67 C352.59,494.41 354.92,494.37 355.60,492.59 C355.90,491.82 354.13,486.08 351.68,479.84 C349.22,473.60 345.99,464.00 344.49,458.50 C340.94,445.45 340.34,444.00 338.49,444.00 C336.04,444.00 335.57,446.83 336.92,453.41 C339.12,464.14 348.15,489.07 351.14,492.67 ZM 428.22 354.82 C429.07,355.67 431.85,353.54 439.08,346.52 C444.54,341.23 453.25,334.17 458.91,330.46 C468.42,324.23 471.26,321.00 467.23,321.00 C466.25,321.00 462.00,322.97 457.78,325.37 C441.17,334.84 424.68,351.28 428.22,354.82 ZM 356.90 512.72 C360.92,515.42 361.23,515.45 365.02,513.49 C368.54,511.67 370.00,509.18 370.00,505.02 C370.00,498.09 361.38,494.56 355.58,499.11 C353.26,500.94 352.94,501.84 353.20,505.83 C353.46,509.80 353.97,510.75 356.90,512.72 ZM 243.39 287.66 C247.20,290.94 252.22,290.81 254.93,287.37 C259.34,281.76 255.73,274.00 248.72,274.00 C241.42,274.00 237.93,282.96 243.39,287.66 ZM 289.55 216.55 C286.24,219.85 282.53,219.68 278.92,216.08 C275.63,212.78 275.36,211.14 277.46,207.07 C279.10,203.91 280.80,203.00 285.08,203.00 C291.65,203.00 294.49,211.60 289.55,216.55 ZM 435.64 240.36 C437.28,242.00 439.37,243.00 441.18,243.00 C445.11,243.00 449.00,239.02 449.00,235.00 C449.00,228.01 440.41,224.49 435.45,229.45 C432.17,232.73 432.25,236.97 435.64,240.36 ZM 253.93 391.37 C251.32,394.68 247.05,394.84 243.59,391.75 C239.51,388.10 239.25,384.59 242.82,381.03 C246.53,377.31 250.21,377.12 253.55,380.45 C256.58,383.49 256.73,387.80 253.93,391.37 ZM 314.93 492.54 C311.59,494.26 311.13,494.28 308.50,492.85 C301.01,488.75 303.41,478.00 311.81,478.00 C319.67,478.00 322.00,488.88 314.93,492.54 ZM 534.75 483.43 C538.30,485.35 540.04,485.36 542.78,483.44 C544.43,482.29 545.00,480.88 545.00,478.00 C545.00,471.88 539.30,469.00 534.22,472.56 C532.57,473.71 532.00,475.12 532.00,478.02 C532.00,481.26 532.47,482.19 534.75,483.43 ZM 494.25 383.29 C496.17,384.00 496.67,383.15 499.87,373.73 C503.45,363.18 508.38,354.13 514.00,347.73 C516.29,345.13 517.72,343.00 517.18,343.00 C516.63,343.00 514.06,345.36 511.46,348.25 C499.23,361.84 489.55,381.57 494.25,383.29 ZM 450.07 529.37 C453.95,534.29 461.25,531.66 461.25,525.34 C461.25,522.31 457.91,519.00 454.84,519.00 C452.60,519.00 448.00,523.25 448.00,525.32 C448.00,526.10 448.93,527.92 450.07,529.37 ZM 224.45 320.55 C225.80,321.90 227.62,323.00 228.50,323.00 C230.67,323.00 235.00,318.51 235.00,316.27 C235.00,310.67 228.03,307.97 224.00,312.00 C221.32,314.68 221.48,317.57 224.45,320.55 ZM 332.63 404.93 C336.05,407.61 337.55,407.54 340.55,404.55 C343.31,401.78 343.49,400.81 341.85,397.68 C339.62,393.45 335.29,392.71 332.00,396.00 C329.21,398.79 329.47,402.44 332.63,404.93 ZM 473.23 470.77 C476.67,472.43 477.87,472.23 480.55,469.55 C483.26,466.83 483.49,465.78 481.98,462.96 C480.27,459.77 477.23,458.66 473.94,460.02 C469.14,462.01 468.70,468.59 473.23,470.77 ZM 410.32 385.93 C413.25,387.02 416.20,385.82 417.90,382.84 C419.09,380.74 419.09,379.96 417.89,377.44 C415.43,372.29 407.78,373.16 406.72,378.71 C406.06,382.12 407.43,384.85 410.32,385.93 ZM 397.00 265.04 C397.00,265.48 400.50,264.76 404.77,263.45 C415.66,260.11 433.65,256.36 445.75,254.91 C457.41,253.52 459.94,251.52 448.75,252.54 C430.66,254.20 397.00,262.33 397.00,265.04 ZM 334.22 436.25 C335.00,438.14 337.51,438.60 338.48,437.03 C338.81,436.49 338.77,430.84 338.39,424.48 C337.73,413.47 337.60,412.91 335.60,413.20 C333.62,413.48 333.50,414.09 333.50,424.00 C333.50,429.77 333.82,435.29 334.22,436.25 ZM 364.20 253.80 C365.90,255.50 370.57,255.29 372.43,253.43 C375.93,249.92 373.57,244.00 368.66,244.00 C364.58,244.00 363.00,245.53 363.00,249.50 C363.00,251.21 363.54,253.14 364.20,253.80 ZM 434.45 438.55 C437.43,441.52 439.36,441.64 442.00,439.00 C447.51,433.49 439.63,426.40 433.83,431.65 C431.37,433.88 431.53,435.62 434.45,438.55 ZM 437.75 456.92 C441.88,459.33 447.00,457.32 447.00,453.29 C447.00,447.94 441.63,445.22 437.83,448.65 C435.49,450.77 435.45,455.58 437.75,456.92 ZM 336.22 387.44 C337.44,388.30 338.87,389.00 339.39,389.00 C341.36,389.00 344.00,385.59 344.00,383.05 C344.00,379.70 342.32,378.00 339.00,378.00 C337.57,378.00 335.86,378.54 335.20,379.20 C333.21,381.19 333.77,385.73 336.22,387.44 ZM 438.22 404.44 C441.03,406.41 442.45,406.41 444.43,404.43 C446.94,401.92 446.45,397.16 443.54,395.84 C437.98,393.30 433.24,400.96 438.22,404.44 ZM 435.17 421.40 C438.03,423.41 439.44,423.41 441.43,421.43 C443.70,419.16 443.44,414.31 440.98,412.99 C435.66,410.14 430.25,417.96 435.17,421.40 ZM 397.45 563.57 C399.38,566.51 403.02,566.74 405.44,564.07 C407.51,561.78 406.80,558.50 403.89,556.94 C399.30,554.49 394.64,559.28 397.45,563.57 ZM 281.91 309.39 C283.69,311.54 285.08,311.42 285.69,309.08 C285.96,308.03 287.26,306.90 288.58,306.57 C292.64,305.55 292.75,298.00 288.71,298.00 C286.88,298.00 284.00,301.23 284.00,303.29 C284.00,304.39 283.23,305.84 282.29,306.53 C280.84,307.59 280.78,308.03 281.91,309.39 ZM 524.65 465.17 C526.71,467.44 528.79,467.50 531.17,465.35 C533.71,463.04 533.45,460.34 530.50,458.41 C528.18,456.89 527.82,456.89 525.50,458.41 C522.60,460.31 522.31,462.59 524.65,465.17 ZM 369.31 222.75 C371.91,223.94 374.61,222.79 375.45,220.14 C376.77,216.01 372.98,212.87 369.16,214.92 C365.36,216.95 365.43,220.98 369.31,222.75 ZM 384.65 223.17 C386.98,225.74 389.66,225.45 391.66,222.40 C393.77,219.18 392.52,216.65 388.59,216.18 C383.60,215.58 381.37,219.54 384.65,223.17 ZM 262.47 338.97 C263.48,340.09 264.90,341.00 265.63,341.00 C267.57,341.00 270.21,336.48 269.83,333.81 C269.56,331.90 268.89,331.50 266.02,331.50 C263.14,331.50 262.38,331.97 261.59,334.22 C260.83,336.37 261.02,337.36 262.47,338.97 ZM 274.31 320.79 C275.74,322.64 277.98,321.91 280.25,318.87 C284.46,313.23 278.45,309.08 274.09,314.62 C272.10,317.14 272.13,317.98 274.31,320.79 ZM 253.67 359.33 C254.85,360.52 258.72,360.04 259.95,358.57 C260.60,357.78 260.99,355.64 260.82,353.82 C260.44,349.91 257.85,348.92 254.93,351.57 C253.07,353.25 252.30,357.97 253.67,359.33 ZM 331.58 266.36 C333.02,270.10 341.00,266.84 341.00,262.50 C341.00,259.56 339.62,258.63 336.46,259.42 C333.50,260.16 330.72,264.11 331.58,266.36 ZM 308.60 282.85 C310.45,285.49 310.51,285.49 314.10,282.93 C317.29,280.66 317.83,277.93 315.47,275.98 C314.32,275.02 313.35,274.98 311.53,275.80 C307.93,277.44 306.77,280.23 308.60,282.85 ZM 444.75 388.92 C447.31,390.41 448.48,390.23 450.46,388.04 C453.14,385.09 451.81,381.00 448.18,381.00 C446.65,381.00 444.86,381.54 444.20,382.20 C442.43,383.97 442.74,387.75 444.75,388.92 ZM 319.67 275.33 C322.15,277.81 328.25,273.94 327.81,270.16 C327.43,266.93 324.83,266.23 321.45,268.44 C319.13,269.96 318.14,273.80 319.67,275.33 ZM 372.75 531.92 C376.39,534.04 379.00,532.31 379.00,527.77 C379.00,524.57 377.21,523.48 373.50,524.41 C371.54,524.90 371.00,525.68 371.00,527.97 C371.00,529.71 371.71,531.32 372.75,531.92 ZM 334.86 220.06 C337.83,222.50 339.24,222.50 341.44,220.07 C342.57,218.81 342.95,217.40 342.51,216.02 C341.96,214.28 341.17,213.95 338.27,214.19 C333.31,214.62 331.67,217.44 334.86,220.06 ZM 351.75 220.92 C355.75,223.25 359.44,221.11 358.83,216.81 C358.20,212.38 350.00,213.56 350.00,218.07 C350.00,219.08 350.79,220.36 351.75,220.92 ZM 518.06 451.33 C520.56,453.08 522.62,452.58 524.06,449.88 C525.74,446.74 523.50,443.82 519.68,444.19 C517.08,444.44 516.44,444.98 516.19,447.15 C515.98,448.98 516.57,450.28 518.06,451.33 ZM 297.67 292.33 C300.37,295.04 306.82,290.30 305.42,286.64 C304.68,284.72 299.97,284.43 298.20,286.20 C296.91,287.49 296.58,291.25 297.67,292.33 ZM 452.54 374.66 C454.89,376.37 455.51,376.35 457.43,374.43 C459.22,372.64 459.53,368.44 457.94,367.46 C453.89,364.96 448.71,371.86 452.54,374.66 ZM 611.41 286.65 C607.90,289.31 605.00,289.71 605.00,287.54 C605.00,284.05 611.46,280.95 618.50,281.05 C620.10,281.07 619.90,281.40 617.50,282.69 C615.85,283.58 613.11,285.36 611.41,286.65 ZM 363.08 330.60 C364.24,331.99 364.90,331.61 368.66,327.34 C373.57,321.76 374.01,320.00 370.50,320.00 C368.13,320.00 367.83,320.41 367.60,324.00 C367.54,324.83 366.46,325.65 365.19,325.83 C362.34,326.23 361.34,328.50 363.08,330.60 ZM 354.67 342.33 C356.71,344.38 362.00,339.71 362.00,335.87 C362.00,333.49 358.36,333.36 355.83,335.65 C354.02,337.29 353.37,341.04 354.67,342.33 ZM 390.20 554.80 C390.86,555.46 392.15,556.00 393.08,556.00 C397.39,556.00 398.42,548.77 394.19,548.17 C389.97,547.57 387.34,551.94 390.20,554.80 ZM 381.75 543.92 C384.18,545.34 385.56,545.24 386.95,543.56 C388.86,541.25 387.84,537.55 385.19,537.17 C380.69,536.54 378.03,541.75 381.75,543.92 ZM 512.05 436.56 C513.61,438.44 516.42,438.40 518.02,436.47 C520.15,433.90 517.68,429.79 514.24,430.18 C511.16,430.54 509.96,434.04 512.05,436.56 ZM 273.75 264.92 C276.12,266.30 276.61,266.25 278.43,264.43 C281.60,261.25 279.02,257.28 274.51,258.41 C271.50,259.16 271.01,263.32 273.75,264.92 ZM 342.67 366.33 C344.79,368.46 347.66,365.97 348.62,361.15 C349.14,358.55 348.94,358.00 347.45,358.00 C343.70,358.00 340.28,363.95 342.67,366.33 ZM 319.94 219.16 C322.66,221.35 323.08,221.39 325.42,219.68 C328.46,217.46 327.03,214.55 322.73,214.19 C317.96,213.79 316.51,216.37 319.94,219.16 ZM 401.20 224.80 C404.04,227.64 408.73,224.86 407.52,221.05 C406.87,219.01 404.59,218.45 401.58,219.61 C399.71,220.33 399.51,223.11 401.20,224.80 ZM 345.72 260.87 C349.36,262.90 353.58,258.15 350.70,255.27 C349.26,253.83 348.89,253.84 346.56,255.37 C343.59,257.31 343.26,259.49 345.72,260.87 ZM 348.70 353.37 C350.81,355.48 355.50,350.46 354.31,347.36 C353.66,345.68 350.81,345.59 349.20,347.20 C347.89,348.51 347.59,352.25 348.70,353.37 ZM 374.07 388.13 C375.51,390.81 378.24,390.10 379.42,386.74 C380.59,383.42 379.15,381.50 376.19,382.44 C373.60,383.26 372.73,385.62 374.07,388.13 ZM 432.00 282.67 C432.00,284.35 449.22,279.84 449.84,277.99 C450.15,277.05 449.74,276.91 448.39,277.48 C447.35,277.92 444.20,278.62 441.38,279.03 C436.38,279.77 432.00,281.47 432.00,282.67 ZM 378.05 376.09 C379.36,378.55 381.64,378.53 382.96,376.07 C385.54,371.26 382.16,367.85 378.86,371.93 C377.47,373.65 377.27,374.64 378.05,376.09 ZM 396.25 301.28 C398.61,302.13 404.55,297.70 403.45,295.92 C402.54,294.44 398.81,294.86 396.83,296.65 C394.71,298.57 394.45,300.64 396.25,301.28 ZM 385.14 309.08 C387.75,310.70 393.49,305.09 391.38,302.98 C390.61,302.21 389.55,302.25 387.67,303.10 C384.58,304.51 383.16,307.86 385.14,309.08 ZM 401.35 240.46 C401.82,241.69 402.97,242.04 405.74,241.81 C408.76,241.56 409.56,241.06 409.82,239.25 C410.10,237.30 409.69,237.00 406.82,237.02 C402.58,237.03 400.53,238.33 401.35,240.46 ZM 524.50 289.20 C523.36,290.34 550.01,289.26 551.24,288.11 C551.64,287.74 546.02,287.60 538.74,287.81 C531.46,288.03 525.05,288.65 524.50,289.20 ZM 375.14 317.11 C377.19,318.41 377.68,318.23 379.96,315.33 C382.42,312.20 381.39,310.44 377.64,311.38 C374.71,312.11 373.10,315.82 375.14,317.11 ZM 384.13 364.66 C385.68,366.52 387.17,365.92 388.99,362.71 C390.87,359.36 389.33,357.22 386.23,358.88 C383.62,360.27 382.67,362.90 384.13,364.66 ZM 421.57 494.07 C424.13,496.91 426.50,496.14 426.50,492.49 C426.50,489.97 426.07,489.45 423.74,489.18 C420.22,488.78 419.09,491.33 421.57,494.07 ZM 461.30 361.34 C462.66,364.88 468.57,362.20 467.83,358.38 C467.35,355.88 465.62,355.68 462.98,357.81 C461.50,359.02 460.89,360.28 461.30,361.34 ZM 463.71 254.38 C465.24,255.91 469.50,254.51 469.80,252.38 C470.14,249.99 467.76,248.62 464.86,249.54 C463.02,250.13 462.34,253.00 463.71,254.38 ZM 509.61 421.70 C511.11,422.80 511.65,422.78 512.88,421.55 C514.86,419.57 512.83,414.70 510.24,415.19 C507.80,415.65 507.37,420.07 509.61,421.70 ZM 414.23 481.83 C416.33,483.93 418.50,482.73 418.50,479.49 C418.50,476.97 418.07,476.45 415.75,476.18 C413.44,475.92 413.00,476.24 413.00,478.23 C413.00,479.54 413.55,481.15 414.23,481.83 ZM 508.48 258.61 C510.89,260.37 512.45,260.37 513.91,258.61 C514.81,257.53 514.70,256.85 513.46,255.61 C511.42,253.57 509.60,253.57 507.91,255.61 C506.78,256.97 506.86,257.43 508.48,258.61 ZM 389.41 243.61 C390.35,246.07 395.43,244.99 395.82,242.25 C396.09,240.34 395.68,240.00 393.13,240.00 C389.82,240.00 388.51,241.28 389.41,243.61 ZM 391.31 352.36 C392.17,354.61 393.60,354.41 395.44,351.78 C397.65,348.63 397.41,346.80 394.85,347.18 C392.23,347.57 390.46,350.15 391.31,352.36 ZM 392.15 230.92 C401.09,232.08 403.00,232.12 403.00,231.14 C403.00,230.23 393.12,228.95 387.10,229.08 C382.34,229.18 384.32,229.91 392.15,230.92 ZM 399.35 341.46 C400.20,343.69 401.57,343.36 403.91,340.38 C406.02,337.71 405.89,336.00 403.60,336.00 C401.60,336.00 398.69,339.75 399.35,341.46 ZM 407.55 293.08 C408.87,295.21 415.00,293.06 415.00,290.46 C415.00,288.49 410.58,288.57 408.56,290.58 C407.69,291.45 407.24,292.57 407.55,293.08 ZM 481.47 370.96 C482.51,372.63 484.84,372.16 485.96,370.07 C487.44,367.30 487.24,365.00 485.52,365.00 C483.68,365.00 480.60,369.54 481.47,370.96 ZM 290.39 252.57 C290.75,253.51 291.89,254.01 293.25,253.82 C294.90,253.59 295.50,252.83 295.50,251.00 C295.50,249.17 294.90,248.41 293.25,248.18 C290.79,247.83 289.39,249.98 290.39,252.57 ZM 420.18 286.33 C419.76,288.46 423.80,288.61 426.56,286.57 C428.04,285.48 428.22,284.85 427.34,283.95 C425.78,282.37 420.61,284.09 420.18,286.33 ZM 308.00 244.50 C308.68,245.32 309.58,246.00 310.00,246.00 C311.49,246.00 313.02,243.22 312.41,241.63 C311.63,239.59 309.63,239.53 308.00,241.50 C307.01,242.70 307.01,243.30 308.00,244.50 ZM 233.62 302.46 C234.56,304.90 238.43,303.99 238.82,301.25 C239.08,299.43 238.66,299.00 236.63,299.00 C233.72,299.00 232.73,300.14 233.62,302.46 ZM 470.00 274.00 C470.00,274.56 472.81,275.00 476.44,275.00 C479.98,275.00 483.16,274.55 483.50,274.00 C483.89,273.37 481.51,273.00 477.06,273.00 C473.02,273.00 470.00,273.43 470.00,274.00 ZM 498.45 310.91 C499.31,312.31 499.53,312.29 503.05,310.47 C507.06,308.40 506.89,306.65 502.75,307.53 C498.90,308.34 497.52,309.42 498.45,310.91 ZM 354.77 254.80 C355.57,256.96 359.46,255.76 359.82,253.25 C360.08,251.43 359.66,251.00 357.65,251.00 C355.09,251.00 353.94,252.52 354.77,254.80 ZM 489.00 359.06 C489.00,359.58 489.68,360.00 490.51,360.00 C492.49,360.00 496.45,353.66 494.81,353.11 C493.60,352.70 489.00,357.40 489.00,359.06 ZM 430.67 506.33 C431.03,506.70 432.19,507.00 433.24,507.00 C434.64,507.00 435.05,506.41 434.82,504.75 C434.40,501.81 430.00,500.91 430.00,503.76 C430.00,504.81 430.30,505.97 430.67,506.33 ZM 483.59 315.15 C484.50,316.62 487.68,316.08 490.14,314.03 L 492.50 312.07 L 490.30 312.03 C487.39,311.99 482.92,314.06 483.59,315.15 ZM 508.33 383.83 C507.91,387.39 508.08,389.00 508.86,389.00 C509.49,389.00 510.00,387.71 510.00,386.12 C510.00,384.54 510.28,381.73 510.63,379.88 C511.11,377.34 510.98,376.77 510.11,377.58 C509.47,378.17 508.67,380.98 508.33,383.83 ZM 479.67 254.33 C480.84,255.51 483.77,255.05 484.32,253.60 C485.03,251.75 484.18,251.00 481.33,251.00 C479.13,251.00 478.20,252.87 479.67,254.33 ZM 292.60 296.41 C293.25,298.08 297.00,298.66 297.00,297.08 C297.00,295.06 295.71,293.00 294.45,293.00 C292.66,293.00 291.86,294.47 292.60,296.41 ZM 270.73 327.87 C272.90,329.08 274.00,328.44 274.00,325.94 C274.00,324.54 273.31,324.00 271.50,324.00 C268.59,324.00 268.11,326.40 270.73,327.87 ZM 258.70 345.65 C259.45,347.62 263.40,346.93 263.81,344.75 C264.06,343.48 263.49,343.00 261.74,343.00 C258.81,343.00 257.96,343.74 258.70,345.65 ZM 340.06 374.58 C341.69,376.53 343.42,375.89 343.82,373.17 C344.06,371.56 343.62,371.00 342.13,371.00 C339.50,371.00 338.51,372.71 340.06,374.58 ZM 379.36 246.51 C380.14,248.53 383.36,248.07 383.79,245.86 C384.15,243.97 381.10,242.50 379.70,243.90 C379.17,244.43 379.02,245.60 379.36,246.51 ZM 409.00 331.15 C409.00,332.54 411.22,332.11 413.17,330.35 C415.26,328.46 415.55,327.00 413.83,327.00 C412.43,327.00 409.00,329.95 409.00,331.15 ZM 409.20 466.80 C410.72,468.32 412.31,466.85 411.83,464.37 C411.34,461.83 408.00,461.27 408.00,463.73 C408.00,464.76 408.54,466.14 409.20,466.80 ZM 516.01 277.04 C518.05,278.35 520.50,277.79 520.50,276.00 C520.50,274.15 517.17,273.43 515.65,274.95 C514.80,275.80 514.90,276.33 516.01,277.04 ZM 520.98 261.47 C522.16,262.90 522.51,262.92 523.78,261.65 C524.58,260.85 524.93,259.70 524.56,259.10 C523.74,257.77 522.96,257.74 521.06,258.94 C519.85,259.70 519.84,260.10 520.98,261.47 ZM 416.12 239.10 C417.97,240.26 419.43,239.70 419.82,237.67 C415.58,236.00 414.31,237.95 416.12,239.10 ZM 513.58 307.24 C514.16,307.83 519.85,306.49 520.80,305.53 C521.09,305.24 519.46,305.00 517.17,305.00 C513.34,305.00 512.11,305.77 513.58,307.24 ZM 493.67 255.33 C494.03,255.70 495.42,256.00 496.75,256.00 C500.04,256.00 499.12,253.59 495.67,253.18 C493.14,252.88 492.21,253.88 493.67,255.33 ZM 309.03 216.53 C309.69,217.33 310.63,217.73 311.11,217.43 C312.56,216.53 312.12,213.00 310.56,213.00 C308.45,213.00 307.64,214.87 309.03,216.53 ZM 326.16 237.69 C327.57,239.40 329.39,238.89 329.82,236.67 C330.03,235.58 329.48,235.00 328.24,235.00 C325.61,235.00 324.80,236.05 326.16,237.69 ZM 419.10 228.06 C419.88,228.54 420.87,228.53 421.37,228.03 C422.47,226.93 421.46,224.00 420.00,224.00 C418.28,224.00 417.58,227.13 419.10,228.06 ZM 528.50 303.00 C526.89,303.69 527.19,303.85 530.00,303.81 C531.92,303.78 534.85,303.42 536.50,303.00 C539.21,302.31 539.06,302.23 535.00,302.19 C532.53,302.16 529.60,302.53 528.50,303.00 ZM 424.45 237.91 C425.43,239.50 428.00,239.24 428.00,237.56 C428.00,236.77 427.51,235.82 426.91,235.45 C425.50,234.57 423.57,236.50 424.45,237.91 ZM 440.41 514.90 C442.72,517.46 444.26,517.62 443.81,515.25 C443.63,514.27 442.38,513.34 440.99,513.15 C438.53,512.80 438.52,512.81 440.41,514.90 ZM 405.20 450.80 C406.86,452.46 407.00,452.35 407.00,449.50 C407.00,447.94 406.43,447.00 405.50,447.00 C403.70,447.00 403.53,449.13 405.20,450.80 ZM 362.50 230.98 C363.66,231.43 365.09,231.28 365.91,230.63 C367.09,229.68 367.04,229.45 365.60,229.17 C364.65,228.98 363.12,229.14 362.19,229.52 C360.68,230.14 360.71,230.30 362.50,230.98 ZM 402.07 434.25 C402.03,435.21 402.45,436.00 403.00,436.00 C403.55,436.00 403.97,434.31 403.93,432.25 C403.87,429.24 403.69,428.90 403.00,430.50 C402.53,431.60 402.11,433.29 402.07,434.25 ZM 344.69 233.35 C345.61,234.28 347.28,233.65 347.77,232.19 C347.99,231.52 347.25,231.00 346.08,231.00 C344.01,231.00 343.38,232.05 344.69,233.35 ZM 500.59 274.15 C501.31,275.31 506.00,275.23 506.00,274.07 C506.00,273.55 504.67,273.17 503.03,273.22 C501.40,273.26 500.30,273.68 500.59,274.15 ZM 300.46 213.93 C301.29,215.28 302.69,215.30 303.50,213.99 C303.85,213.44 303.40,212.71 302.52,212.37 C300.61,211.63 299.54,212.44 300.46,213.93 ZM 367.00 519.50 C367.00,520.33 367.67,521.00 368.50,521.00 C369.33,521.00 370.00,520.33 370.00,519.50 C370.00,518.67 369.33,518.00 368.50,518.00 C367.67,518.00 367.00,518.67 367.00,519.50 ZM 543.00 297.11 C543.00,298.25 545.71,298.28 546.41,297.14 C546.71,296.67 546.69,296.02 546.38,295.71 C545.59,294.93 543.00,296.00 543.00,297.11 ZM 252.50 368.00 C252.98,368.78 253.56,368.84 254.23,368.17 C254.78,367.62 254.90,366.65 254.50,366.00 C254.02,365.22 253.44,365.16 252.77,365.83 C252.22,366.38 252.10,367.35 252.50,368.00 ZM 551.47 295.96 C552.19,297.12 555.00,296.19 555.00,294.79 C555.00,294.24 554.29,294.06 553.42,294.39 C552.55,294.73 551.62,295.00 551.36,295.00 C551.10,295.00 551.15,295.43 551.47,295.96 ZM 262.00 270.58 C262.00,272.35 264.15,272.04 264.77,270.19 C264.99,269.53 264.45,269.00 263.58,269.00 C262.71,269.00 262.00,269.71 262.00,270.58 Z" fill="rgb(1,1,3)"/>
<path d="M 566.79 276.62 C565.53,276.98 563.01,277.44 560.73,277.71 C556.70,278.20 556.05,278.04 556.55,276.74 C556.87,275.89 558.03,274.96 559.12,274.68 C561.03,274.18 560.99,273.92 558.11,268.21 C554.31,260.68 550.08,257.00 545.23,257.00 C540.02,257.00 534.49,261.15 532.40,266.62 L 530.72 271.02 L 523.50 265.54 L 525.38 268.52 C526.41,270.16 528.36,272.69 529.71,274.14 C531.48,276.04 531.69,277.40 530.58,277.76 C531.61,277.24 530.54,275.11 527.38,271.41 C522.91,266.18 521.91,262.80 525.90,266.41 C527.73,268.07 527.85,268.05 528.50,266.01 C529.45,263.01 534.76,257.18 538.10,255.45 C539.64,254.65 543.03,254.00 545.63,254.00 C549.98,254.00 550.75,254.39 555.02,258.82 C558.72,262.67 559.89,264.74 560.77,269.07 C561.73,273.80 561.66,274.67 560.19,275.86 C558.73,277.03 559.19,277.16 563.66,276.76 C565.02,276.64 566.04,276.59 566.79,276.62 ZM 524.50 289.20 C525.05,288.65 531.46,288.03 538.74,287.81 C546.02,287.60 551.64,287.74 551.24,288.11 C550.01,289.26 523.36,290.34 524.50,289.20 ZM 392.15 230.92 C384.32,229.91 382.34,229.18 387.10,229.08 C393.12,228.95 403.00,230.23 403.00,231.14 C403.00,232.12 401.09,232.08 392.15,230.92 ZM 470.00 274.00 C470.00,273.43 473.02,273.00 477.06,273.00 C481.51,273.00 483.89,273.37 483.50,274.00 C483.16,274.55 479.98,275.00 476.44,275.00 C472.81,275.00 470.00,274.56 470.00,274.00 ZM 508.33 383.83 C508.67,380.98 509.47,378.17 510.11,377.58 C510.98,376.77 511.11,377.34 510.63,379.88 C510.28,381.73 510.00,384.54 510.00,386.12 C510.00,387.71 509.49,389.00 508.86,389.00 C508.08,389.00 507.91,387.39 508.33,383.83 ZM 510.28 291.84 C512.09,291.52 513.52,291.17 514.00,290.90 C516.33,289.60 511.47,289.79 500.28,291.45 C503.98,290.83 507.51,290.22 509.56,289.84 C513.16,289.17 517.23,289.03 519.56,289.51 C523.05,290.22 522.18,290.46 512.00,291.63 C511.42,291.70 510.85,291.77 510.28,291.84 ZM 436.62 282.59 C438.80,282.12 441.09,281.34 441.85,280.58 C443.19,279.24 443.23,279.03 441.58,279.00 C444.35,278.58 447.37,277.90 448.39,277.48 C449.74,276.91 450.15,277.05 449.84,277.99 C449.43,279.21 441.77,281.60 436.62,282.59 ZM 528.50 303.00 C529.60,302.53 532.53,302.16 535.00,302.19 C539.06,302.23 539.21,302.31 536.50,303.00 C534.85,303.42 531.92,303.78 530.00,303.81 C527.19,303.85 526.89,303.69 528.50,303.00 ZM 402.07 434.25 C402.11,433.29 402.53,431.60 403.00,430.50 C403.69,428.90 403.87,429.24 403.93,432.25 C403.97,434.31 403.55,436.00 403.00,436.00 C402.45,436.00 402.03,435.21 402.07,434.25 ZM 559.08 304.66 C553.65,306.54 548.60,308.01 546.85,308.04 C544.62,308.08 544.64,308.16 547.43,309.67 C547.82,309.88 548.21,310.06 548.63,310.21 C545.39,310.02 543.27,309.67 542.78,309.18 C541.87,308.27 542.49,308.00 545.40,308.00 C547.86,308.00 553.31,306.60 559.08,304.66 ZM 468.41 228.30 C464.48,228.75 462.00,229.35 462.00,230.04 C462.00,230.49 464.59,231.13 467.75,231.46 C469.48,231.64 471.18,231.82 472.82,232.00 C470.51,231.77 468.26,231.58 466.12,231.42 C460.97,231.04 457.37,230.40 458.12,230.00 C459.14,229.46 463.21,228.83 468.41,228.30 ZM 500.59 274.15 C500.30,273.68 501.40,273.26 503.03,273.22 C504.67,273.17 506.00,273.55 506.00,274.07 C506.00,275.23 501.31,275.31 500.59,274.15 ZM 367.00 519.50 C367.00,518.67 367.67,518.00 368.50,518.00 C369.33,518.00 370.00,518.67 370.00,519.50 C370.00,520.33 369.33,521.00 368.50,521.00 C367.67,521.00 367.00,520.33 367.00,519.50 ZM 543.00 297.11 C543.00,296.00 545.59,294.93 546.38,295.71 C546.69,296.02 546.71,296.67 546.41,297.14 C545.71,298.28 543.00,298.25 543.00,297.11 ZM 551.47 295.96 C551.15,295.43 551.10,295.00 551.36,295.00 C551.62,295.00 552.55,294.73 553.42,294.39 C554.29,294.06 555.00,294.24 555.00,294.79 C555.00,296.19 552.19,297.12 551.47,295.96 ZM 409.27 262.15 C419.18,259.41 431.18,256.93 441.98,255.41 C451.27,254.11 456.43,252.36 452.71,252.28 C459.03,252.08 455.74,253.72 445.75,254.91 C435.20,256.17 420.17,259.19 409.27,262.15 ZM 504.71 227.69 C494.90,227.05 481.92,227.20 472.85,227.88 C478.92,227.37 485.68,227.01 490.79,227.02 C494.58,227.03 499.88,227.29 504.71,227.69 ZM 565.17 310.23 C585.02,308.89 590.00,308.90 599.02,309.93 C599.15,309.95 599.27,309.96 599.40,309.98 C591.76,309.19 584.00,309.05 576.50,309.60 C572.61,309.89 568.78,310.10 565.17,310.23 ZM 445.98 305.52 C449.58,303.66 454.77,301.72 460.94,299.87 C456.39,301.30 452.25,302.84 448.41,304.52 C447.42,304.95 446.61,305.29 445.91,305.55 C445.93,305.54 445.96,305.53 445.98,305.52 ZM 440.15 253.62 C421.54,256.50 397.01,262.77 397.00,265.04 C397.01,262.71 421.70,256.42 440.15,253.62 ZM 631.43 318.33 C639.17,322.22 644.52,327.31 647.63,333.67 C644.61,327.51 639.03,322.27 631.43,318.33 ZM 483.88 296.49 C491.01,294.71 497.67,293.44 503.91,292.67 C496.84,293.68 490.39,294.90 483.88,296.49 ZM 436.08 280.24 C434.21,280.93 432.53,281.77 432.10,282.33 C432.50,281.66 434.01,280.90 436.08,280.24 ZM 536.75 245.53 C543.30,248.30 549.90,251.66 557.45,255.87 C549.77,251.59 543.07,248.23 536.75,245.53 ZM 568.34 277.56 C567.97,278.52 566.54,279.42 563.71,280.38 C566.50,279.42 567.87,278.52 568.37,277.45 C568.36,277.49 568.35,277.53 568.34,277.56 ZM 432.00 282.67 C432.00,282.65 432.00,282.63 432.00,282.62 C432.05,282.94 432.68,283.06 433.62,283.02 C432.61,283.08 432.00,282.99 432.00,282.67 ZM 433.46 304.51 C430.83,305.47 429.00,307.92 429.00,311.35 C429.00,307.91 430.83,305.46 433.46,304.51 ZM 496.89 235.04 C498.83,235.33 500.71,235.64 502.52,235.95 C500.70,235.64 498.81,235.33 496.89,235.04 ZM 441.11 305.51 C441.04,305.48 440.98,305.44 440.91,305.41 C440.87,305.39 440.83,305.36 440.79,305.34 C440.86,305.38 440.92,305.41 440.98,305.44 C441.02,305.47 441.06,305.49 441.11,305.51 Z" fill="rgb(138,97,50)"/>
<path d="M 650.30 347.45 C650.44,340.52 650.08,338.68 647.63,333.67 C644.52,327.31 639.17,322.22 631.43,318.33 C627.32,316.20 622.61,314.44 617.40,313.12 C611.62,311.66 605.55,310.61 599.40,309.98 C599.27,309.96 599.15,309.95 599.02,309.93 C590.00,308.90 585.02,308.89 565.17,310.23 C558.56,310.47 552.71,310.46 548.63,310.21 C548.21,310.06 547.82,309.88 547.43,309.67 C544.64,308.16 544.62,308.08 546.85,308.04 C548.60,308.01 553.65,306.54 559.08,304.66 C563.94,303.02 569.04,301.00 572.77,299.11 C585.75,292.57 594.40,282.99 595.61,273.85 C596.19,269.50 596.53,268.99 598.88,268.86 C600.32,268.78 597.56,268.37 592.75,267.94 C581.32,266.93 570.91,263.37 557.45,255.87 C549.77,251.59 543.07,248.23 536.75,245.53 C530.11,242.70 523.89,240.60 517.41,238.95 C513.57,237.98 508.37,236.94 502.52,235.95 L 502.52 235.95 C500.71,235.64 498.83,235.33 496.89,235.04 C489.07,233.83 480.57,232.75 472.82,232.00 L 472.82 232.00 C471.17,231.82 469.48,231.64 467.75,231.46 C464.59,231.13 462.00,230.49 462.00,230.04 C462.00,229.35 464.48,228.75 468.41,228.30 C469.82,228.15 471.31,228.01 472.85,227.88 C481.92,227.20 494.90,227.05 504.71,227.69 C507.40,227.90 509.94,228.16 512.00,228.43 C517.78,229.20 522.67,229.65 522.89,229.44 C524.32,228.03 499.03,221.73 478.98,218.50 C417.00,208.54 395.22,203.13 370.31,191.49 C363.27,188.20 360.19,187.25 357.74,187.64 C351.84,188.58 347.75,182.35 351.83,178.65 C354.85,175.92 358.76,176.55 360.93,180.12 C363.86,184.94 376.77,190.02 403.50,196.84 C426.45,202.70 469.18,209.22 471.23,207.17 C471.66,206.74 467.85,205.34 462.76,204.05 C442.27,198.87 424.22,192.07 411.83,184.87 C408.15,182.74 404.19,181.00 403.01,181.00 C401.83,181.00 400.01,180.54 398.96,179.98 C393.25,176.92 395.06,170.00 401.57,170.00 C404.67,170.00 405.28,170.43 406.59,173.56 C409.38,180.24 425.31,185.66 468.10,194.48 C517.41,204.64 523.84,206.05 534.73,209.08 C570.71,219.06 599.02,237.77 609.54,258.52 C614.00,267.33 615.74,268.72 633.65,277.89 C654.41,288.51 663.98,301.49 663.97,319.00 C663.97,329.56 658.86,344.13 652.05,352.98 L 650.15 355.45 ZM 539.35 443.74 C531.46,435.26 524.71,423.29 520.85,410.96 C517.85,401.36 517.62,385.59 520.35,376.50 C524.63,362.29 537.63,346.19 552.50,336.73 C561.84,330.78 564.89,329.27 575.50,325.30 L 584.50 321.93 L 571.00 322.38 C552.58,322.98 534.00,327.19 516.77,334.67 C513.74,335.98 512.76,336.05 511.52,335.02 C508.16,332.23 509.73,330.25 517.75,327.17 C540.53,318.44 558.39,315.00 580.97,315.00 C605.61,315.00 619.58,318.20 633.29,326.98 C639.85,331.18 639.47,331.88 631.88,329.58 C629.34,328.81 623.04,327.63 617.88,326.96 C600.05,324.65 577.99,330.12 563.51,340.45 C548.12,351.44 539.31,363.49 533.88,381.03 C531.96,387.21 531.57,390.66 531.60,401.00 C531.66,414.95 533.33,422.66 539.58,437.77 C541.51,442.43 542.93,446.41 542.73,446.61 C542.53,446.81 541.01,445.51 539.35,443.74 ZM 533.25 630.96 C527.21,619.90 519.92,608.56 514.97,602.50 C503.90,588.97 487.89,575.44 468.94,563.61 C463.20,560.02 456.02,555.54 453.00,553.64 C440.60,545.87 429.81,537.04 417.50,524.59 C402.11,509.01 393.16,496.86 385.04,480.50 C373.81,457.87 370.54,443.44 370.67,417.00 C370.76,397.71 371.57,393.66 375.25,394.18 C377.26,394.47 377.45,394.93 377.00,398.50 C375.76,408.42 376.56,435.61 378.34,444.00 C381.87,460.66 390.13,480.63 399.48,495.07 C413.99,517.51 438.02,539.98 461.93,553.48 C483.29,565.54 496.21,575.03 509.53,588.42 C515.04,593.96 521.62,601.42 524.14,605.00 C530.79,614.42 538.20,628.57 537.82,631.14 C537.32,634.57 535.18,634.49 533.25,630.96 ZM 614.67 557.33 C614.30,556.97 614.00,548.37 614.00,538.22 L 614.00 519.78 L 624.75 520.15 C633.31,520.44 636.21,520.93 639.00,522.56 C647.98,527.81 650.73,541.09 644.72,550.14 C641.01,555.72 635.13,558.00 624.45,558.00 C619.44,558.00 615.03,557.70 614.67,557.33 ZM 548.47 582.25 C547.90,581.84 545.88,579.03 543.97,576.00 C534.54,561.04 517.86,543.09 504.11,533.13 C479.99,515.65 471.21,507.99 461.01,495.50 C454.79,487.89 447.81,477.01 444.77,470.19 C443.26,466.79 443.11,465.58 444.05,464.44 C446.33,461.69 448.00,463.04 451.93,470.86 C460.67,488.24 478.34,507.09 500.50,522.66 C516.04,533.59 527.38,543.93 536.80,555.77 C545.91,567.23 553.22,578.63 552.81,580.77 C552.45,582.64 550.10,583.44 548.47,582.25 ZM 533.63 513.48 C532.73,512.59 532.00,510.92 532.00,509.78 C532.00,508.54 528.67,504.25 523.72,499.10 C505.89,480.58 494.69,458.32 490.46,433.03 C489.14,425.16 488.86,419.15 489.25,407.14 C489.79,390.26 490.24,388.00 493.05,388.00 C495.86,388.00 496.04,389.06 494.86,398.62 C493.09,412.98 495.80,434.00 501.62,450.91 C506.96,466.44 511.90,475.55 523.08,490.50 C531.38,501.60 534.67,504.75 538.40,505.17 C542.21,505.60 543.72,508.04 542.44,511.70 C541.26,515.09 536.25,516.10 533.63,513.48 ZM 533.25 281.34 C529.26,279.96 526.00,278.39 526.00,277.85 C526.00,277.31 526.90,277.15 527.99,277.50 C529.26,277.90 530.12,277.99 530.58,277.76 C531.69,277.40 531.48,276.04 529.71,274.14 C528.36,272.69 526.41,270.16 525.38,268.52 L 523.50 265.54 L 530.72 271.02 L 532.40 266.62 C534.49,261.15 540.02,257.00 545.23,257.00 C550.08,257.00 554.31,260.68 558.11,268.21 C560.99,273.92 561.03,274.18 559.12,274.68 C558.03,274.96 556.87,275.89 556.55,276.74 C556.05,278.04 556.70,278.20 560.73,277.71 C563.01,277.44 565.53,276.98 566.79,276.62 C568.07,276.65 568.51,276.92 568.37,277.45 C567.87,278.52 566.50,279.42 563.71,280.38 C561.81,281.03 559.27,281.71 556.00,282.47 C547.06,284.53 541.73,284.27 533.25,281.34 ZM 303.81 467.28 C302.17,465.40 298.06,447.91 295.52,432.00 C293.53,419.51 293.52,391.50 295.50,379.28 C296.33,374.21 298.26,366.11 299.79,361.28 C302.37,353.17 302.80,352.47 305.42,352.17 L 305.47 352.16 C306.40,352.06 307.06,351.98 307.44,352.27 C308.39,353.00 307.57,356.05 304.67,366.73 L 304.60 367.00 C297.24,394.10 297.52,424.30 305.42,456.50 C307.39,464.52 307.63,466.75 306.62,467.78 C305.60,468.82 305.07,468.73 303.81,467.28 ZM 667.00 520.00 L 694.13 520.00 L 693.82 522.75 L 693.50 525.50 L 673.00 526.07 L 673.00 536.00 L 691.13 536.00 L 690.82 538.75 C690.50,541.49 690.47,541.50 681.75,541.79 L 673.00 542.08 L 673.00 553.00 L 694.00 553.00 L 694.00 558.00 L 667.00 558.00 ZM 277.30 222.04 C273.24,219.57 271.00,215.26 271.00,209.93 C271.00,206.42 271.61,205.15 274.88,201.88 C278.45,198.32 279.21,198.00 284.25,198.00 C290.62,198.00 294.41,200.34 296.62,205.64 C298.43,209.95 298.36,212.44 296.33,216.72 C293.08,223.56 283.97,226.11 277.30,222.04 ZM 322.00 319.51 C320.44,317.62 321.64,315.69 331.05,305.01 C343.66,290.70 365.23,275.19 383.79,267.08 C390.88,263.98 395.02,263.70 394.98,266.32 C394.95,268.62 393.42,269.81 387.00,272.48 C366.28,281.11 345.25,296.89 331.33,314.25 C325.76,321.19 324.15,322.10 322.00,319.51 ZM 244.50 398.45 C242.30,397.67 240.40,397.02 240.29,397.02 C240.17,397.01 238.93,395.32 237.54,393.27 C235.89,390.85 235.00,388.16 235.00,385.64 C235.00,382.37 235.70,381.03 239.37,377.37 C243.20,373.54 244.28,373.00 248.12,373.00 C253.01,373.01 258.21,375.66 260.05,379.10 C261.77,382.31 261.51,390.57 259.60,393.49 C256.18,398.70 250.49,400.57 244.50,398.45 ZM 304.90 496.74 C297.83,492.03 296.39,483.25 301.66,477.00 C308.64,468.70 322.52,472.59 324.55,483.43 C325.52,488.60 322.02,495.68 317.57,497.53 C312.63,499.60 308.84,499.36 304.90,496.74 ZM 633.20 551.82 C638.10,550.35 640.71,547.13 641.55,541.50 C642.37,536.05 640.67,530.67 637.29,528.02 C635.25,526.41 633.24,526.00 627.37,526.00 L 620.00 526.00 L 620.00 538.83 C620.00,545.89 620.30,551.97 620.67,552.33 C621.73,553.40 628.92,553.10 633.20,551.82 ZM 309.00 348.83 C304.36,347.51 301.21,344.45 299.85,339.91 C298.92,336.79 299.04,335.58 300.62,332.36 C305.77,321.86 318.61,321.34 323.08,331.45 C326.21,338.52 323.65,345.10 316.32,348.88 C313.82,350.16 313.71,350.16 309.00,348.83 ZM 765.75 556.84 C763.74,556.10 763.00,555.15 763.00,553.30 C763.00,551.14 763.33,550.87 765.25,551.44 C766.49,551.81 770.30,552.37 773.72,552.69 C781.06,553.37 785.00,551.56 785.00,547.50 C785.00,544.36 781.92,542.42 775.51,541.51 C764.14,539.90 759.45,533.83 763.52,525.97 C765.68,521.78 769.81,520.00 777.39,520.00 C785.37,520.00 789.00,521.25 789.00,523.98 C789.00,525.91 788.59,525.98 780.64,525.37 C772.96,524.78 772.10,524.90 770.14,526.86 C768.96,528.04 768.00,529.64 768.00,530.43 C768.00,532.08 772.64,536.00 774.59,536.00 C778.79,536.00 786.64,538.55 788.66,540.57 C793.16,545.07 791.27,553.26 784.99,556.51 C781.69,558.21 770.06,558.41 765.75,556.84 ZM 725.05 555.25 C721.97,548.54 711.00,521.76 711.00,520.93 C711.00,520.42 712.31,520.00 713.91,520.00 C716.71,520.00 717.00,520.48 722.59,534.50 C725.76,542.47 728.62,548.99 728.93,548.97 C729.24,548.96 732.00,542.54 735.06,534.72 C740.50,520.79 740.68,520.49 743.83,520.19 L 747.04 519.87 L 745.15 524.69 C744.10,527.33 740.63,535.91 737.42,543.75 C732.00,557.00 731.41,558.00 728.96,558.00 C727.06,558.00 725.97,557.23 725.05,555.25 ZM 434.00 318.29 C430.81,317.12 429.00,314.60 429.00,311.35 C429.00,307.91 430.82,305.46 433.46,304.52 L 433.46 304.51 C435.56,303.76 438.18,303.95 440.79,305.34 L 440.80 305.34 C440.83,305.36 440.87,305.39 440.91,305.41 C440.98,305.44 441.04,305.48 441.10,305.51 L 441.11 305.51 C443.04,306.57 443.92,306.57 445.91,305.55 C446.61,305.29 447.42,304.95 448.41,304.52 C452.25,302.84 456.39,301.30 460.94,299.87 C470.25,297.06 481.80,294.44 493.50,292.57 C495.61,292.23 497.98,291.84 500.28,291.45 L 500.28 291.45 C511.47,289.79 516.33,289.60 514.00,290.90 C513.52,291.17 512.09,291.52 510.28,291.84 C508.09,292.10 505.97,292.38 503.91,292.67 C497.67,293.44 491.01,294.71 483.88,296.49 C475.25,298.59 466.54,301.35 456.21,305.12 C446.01,308.85 444.79,309.56 443.57,312.49 C441.52,317.40 437.76,319.67 434.00,318.29 ZM 537.11 654.60 C532.24,651.91 530.73,645.95 533.67,640.99 C538.86,632.19 552.00,635.78 552.00,646.00 C552.00,653.84 544.03,658.44 537.11,654.60 ZM 467.67 433.33 C466.49,432.15 467.03,411.74 468.45,403.76 C470.18,394.06 474.56,380.75 477.01,377.77 C478.67,375.75 479.04,375.66 480.39,377.00 C481.75,378.34 481.55,379.56 478.51,388.50 C474.49,400.32 472.01,413.72 472.00,423.67 C472.00,427.61 471.73,431.55 471.39,432.42 C470.77,434.04 468.85,434.52 467.67,433.33 ZM 551.40 602.60 C549.24,600.44 548.00,598.23 548.00,596.55 C548.00,587.34 558.71,582.56 565.08,588.92 C571.31,595.16 567.12,606.00 558.48,606.00 C555.63,606.00 554.03,605.23 551.40,602.60 ZM 351.14 492.67 C348.15,489.07 339.12,464.14 336.92,453.41 C335.57,446.83 336.04,444.00 338.49,444.00 C340.34,444.00 340.94,445.45 344.49,458.50 C345.99,464.00 349.22,473.60 351.68,479.84 C354.13,486.08 355.90,491.82 355.60,492.59 C354.92,494.37 352.59,494.41 351.14,492.67 ZM 428.22 354.82 C424.68,351.28 441.17,334.84 457.78,325.37 C462.00,322.97 466.25,321.00 467.23,321.00 C471.26,321.00 468.42,324.23 458.91,330.46 C453.25,334.17 444.54,341.23 439.08,346.52 C431.85,353.54 429.07,355.67 428.22,354.82 ZM 356.90 512.72 C353.97,510.75 353.46,509.80 353.20,505.83 C352.94,501.84 353.26,500.94 355.58,499.11 C361.38,494.56 370.00,498.09 370.00,505.02 C370.00,509.18 368.54,511.67 365.02,513.49 C361.23,515.45 360.92,515.42 356.90,512.72 ZM 243.39 287.66 C237.93,282.96 241.42,274.00 248.72,274.00 C255.73,274.00 259.34,281.76 254.93,287.37 C252.22,290.81 247.20,290.94 243.39,287.66 ZM 289.55 216.55 C294.49,211.60 291.65,203.00 285.08,203.00 C280.80,203.00 279.10,203.91 277.46,207.07 C275.36,211.14 275.63,212.78 278.92,216.08 C282.53,219.68 286.24,219.85 289.55,216.55 ZM 435.64 240.36 C432.25,236.97 432.17,232.73 435.45,229.45 C440.41,224.49 449.00,228.01 449.00,235.00 C449.00,239.02 445.11,243.00 441.18,243.00 C439.37,243.00 437.28,242.00 435.64,240.36 ZM 253.93 391.37 C256.73,387.80 256.58,383.49 253.55,380.45 C250.21,377.12 246.53,377.31 242.82,381.03 C239.25,384.59 239.51,388.10 243.59,391.75 C247.05,394.84 251.32,394.68 253.93,391.37 ZM 314.93 492.54 C322.00,488.88 319.67,478.00 311.81,478.00 C303.41,478.00 301.01,488.75 308.50,492.85 C311.13,494.28 311.59,494.26 314.93,492.54 ZM 534.75 483.43 C532.47,482.19 532.00,481.26 532.00,478.02 C532.00,475.12 532.57,473.71 534.22,472.56 C539.30,469.00 545.00,471.88 545.00,478.00 C545.00,480.88 544.43,482.29 542.78,483.44 C540.04,485.36 538.30,485.35 534.75,483.43 ZM 494.25 383.29 C489.55,381.57 499.23,361.84 511.46,348.25 C514.06,345.36 516.63,343.00 517.18,343.00 C517.72,343.00 516.29,345.13 514.00,347.73 C508.38,354.13 503.45,363.18 499.87,373.73 C496.67,383.15 496.17,384.00 494.25,383.29 ZM 540.65 273.17 C542.72,275.45 547.74,275.54 550.17,273.35 C554.23,269.67 550.96,262.00 545.33,262.00 C539.76,262.00 536.85,268.96 540.65,273.17 ZM 450.07 529.37 C448.93,527.92 448.00,526.10 448.00,525.32 C448.00,523.25 452.60,519.00 454.84,519.00 C457.91,519.00 461.25,522.31 461.25,525.34 C461.25,531.66 453.95,534.29 450.07,529.37 ZM 224.45 320.55 C221.48,317.57 221.32,314.68 224.00,312.00 C228.03,307.97 235.00,310.67 235.00,316.27 C235.00,318.51 230.67,323.00 228.50,323.00 C227.62,323.00 225.80,321.90 224.45,320.55 ZM 332.63 404.93 C329.47,402.44 329.21,398.79 332.00,396.00 C335.29,392.71 339.62,393.45 341.85,397.68 C343.49,400.81 343.31,401.78 340.55,404.55 C337.55,407.54 336.05,407.61 332.63,404.93 ZM 473.23 470.77 C468.70,468.59 469.14,462.01 473.94,460.02 C477.23,458.66 480.27,459.77 481.98,462.96 C483.49,465.78 483.26,466.83 480.55,469.55 C477.87,472.23 476.67,472.43 473.23,470.77 ZM 410.32 385.93 C407.43,384.85 406.06,382.12 406.72,378.71 C407.78,373.16 415.43,372.29 417.89,377.44 C419.09,379.96 419.09,380.74 417.90,382.84 C416.20,385.82 413.25,387.02 410.32,385.93 ZM 334.22 436.25 C333.82,435.29 333.50,429.77 333.50,424.00 C333.50,414.09 333.62,413.48 335.60,413.20 C337.60,412.91 337.73,413.47 338.39,424.48 C338.77,430.84 338.81,436.49 338.48,437.03 C337.51,438.60 335.00,438.14 334.22,436.25 ZM 397.00 265.04 L 397.00 265.04 C397.01,262.77 421.54,256.50 440.15,253.62 L 440.15 253.62 C443.24,253.15 446.16,252.78 448.75,252.54 C450.35,252.40 451.66,252.31 452.71,252.28 C456.43,252.36 451.27,254.11 441.98,255.41 C431.18,256.93 419.18,259.41 409.27,262.15 C407.67,262.59 406.17,263.02 404.77,263.45 C400.50,264.76 397.00,265.48 397.00,265.04 ZM 364.20 253.80 C363.54,253.14 363.00,251.21 363.00,249.50 C363.00,245.53 364.58,244.00 368.66,244.00 C373.57,244.00 375.93,249.92 372.43,253.43 C370.57,255.29 365.90,255.50 364.20,253.80 ZM 434.45 438.55 C431.53,435.62 431.37,433.88 433.83,431.65 C439.63,426.40 447.51,433.49 442.00,439.00 C439.36,441.64 437.43,441.52 434.45,438.55 ZM 437.75 456.92 C435.45,455.58 435.49,450.77 437.83,448.65 C441.63,445.22 447.00,447.94 447.00,453.29 C447.00,457.32 441.88,459.33 437.75,456.92 ZM 336.22 387.44 C333.77,385.73 333.21,381.19 335.20,379.20 C335.86,378.54 337.57,378.00 339.00,378.00 C342.32,378.00 344.00,379.70 344.00,383.05 C344.00,385.59 341.36,389.00 339.39,389.00 C338.87,389.00 337.44,388.30 336.22,387.44 ZM 438.22 404.44 C433.24,400.96 437.98,393.30 443.54,395.84 C446.45,397.16 446.94,401.92 444.43,404.43 C442.45,406.41 441.03,406.41 438.22,404.44 ZM 435.17 421.40 C430.25,417.96 435.66,410.14 440.98,412.99 C443.44,414.31 443.70,419.16 441.43,421.43 C439.44,423.41 438.03,423.41 435.17,421.40 ZM 397.45 563.57 C394.64,559.28 399.30,554.49 403.89,556.94 C406.80,558.50 407.51,561.78 405.44,564.07 C403.02,566.74 399.38,566.51 397.45,563.57 ZM 281.91 309.39 C280.78,308.03 280.84,307.59 282.29,306.53 C283.23,305.84 284.00,304.39 284.00,303.29 C284.00,301.23 286.88,298.00 288.71,298.00 C292.75,298.00 292.64,305.55 288.58,306.57 C287.26,306.90 285.96,308.03 285.69,309.08 C285.08,311.42 283.69,311.54 281.91,309.39 ZM 524.65 465.17 C522.31,462.59 522.60,460.31 525.50,458.41 C527.82,456.89 528.18,456.89 530.50,458.41 C533.45,460.34 533.71,463.04 531.17,465.35 C528.79,467.50 526.71,467.44 524.65,465.17 ZM 369.31 222.75 C365.43,220.98 365.36,216.95 369.16,214.92 C372.98,212.87 376.77,216.01 375.45,220.14 C374.61,222.79 371.91,223.94 369.31,222.75 ZM 384.65 223.17 C381.37,219.54 383.60,215.58 388.59,216.18 C392.52,216.65 393.77,219.18 391.66,222.40 C389.66,225.45 386.98,225.74 384.65,223.17 ZM 262.47 338.97 C261.02,337.36 260.83,336.37 261.59,334.22 C262.38,331.97 263.14,331.50 266.02,331.50 C268.89,331.50 269.56,331.90 269.83,333.81 C270.21,336.48 267.57,341.00 265.63,341.00 C264.90,341.00 263.48,340.09 262.47,338.97 ZM 274.31 320.79 C272.13,317.98 272.10,317.14 274.09,314.62 C278.45,309.08 284.46,313.23 280.25,318.87 C277.98,321.91 275.74,322.64 274.31,320.79 ZM 253.67 359.33 C252.30,357.97 253.07,353.25 254.93,351.57 C257.85,348.92 260.44,349.91 260.82,353.82 C260.99,355.64 260.60,357.78 259.95,358.57 C258.72,360.04 254.85,360.52 253.67,359.33 ZM 331.58 266.36 C330.72,264.11 333.50,260.16 336.46,259.42 C339.62,258.63 341.00,259.56 341.00,262.50 C341.00,266.84 333.02,270.10 331.58,266.36 ZM 308.60 282.85 C306.77,280.23 307.93,277.44 311.53,275.80 C313.35,274.98 314.32,275.02 315.47,275.98 C317.83,277.93 317.29,280.66 314.10,282.93 C310.51,285.49 310.45,285.49 308.60,282.85 ZM 444.75 388.92 C442.74,387.75 442.43,383.97 444.20,382.20 C444.86,381.54 446.65,381.00 448.18,381.00 C451.81,381.00 453.14,385.09 450.46,388.04 C448.48,390.23 447.31,390.41 444.75,388.92 ZM 319.67 275.33 C318.14,273.80 319.13,269.96 321.45,268.44 C324.83,266.23 327.43,266.93 327.81,270.16 C328.25,273.94 322.15,277.81 319.67,275.33 ZM 372.75 531.92 C371.71,531.32 371.00,529.71 371.00,527.97 C371.00,525.68 371.54,524.90 373.50,524.41 C377.21,523.48 379.00,524.57 379.00,527.77 C379.00,532.31 376.39,534.04 372.75,531.92 ZM 334.86 220.06 C331.67,217.44 333.31,214.62 338.27,214.19 C341.17,213.95 341.96,214.28 342.51,216.02 C342.95,217.40 342.57,218.81 341.44,220.07 C339.24,222.50 337.83,222.50 334.86,220.06 ZM 351.75 220.92 C350.79,220.36 350.00,219.08 350.00,218.07 C350.00,213.56 358.20,212.38 358.83,216.81 C359.44,221.11 355.75,223.25 351.75,220.92 ZM 518.06 451.33 C516.57,450.28 515.98,448.98 516.19,447.15 C516.44,444.98 517.08,444.44 519.68,444.19 C523.50,443.82 525.74,446.74 524.06,449.88 C522.62,452.58 520.56,453.08 518.06,451.33 ZM 297.67 292.33 C296.58,291.25 296.91,287.49 298.20,286.20 C299.97,284.43 304.68,284.72 305.42,286.64 C306.82,290.30 300.37,295.04 297.67,292.33 ZM 452.54 374.66 C448.71,371.86 453.89,364.96 457.94,367.46 C459.53,368.44 459.22,372.64 457.43,374.43 C455.51,376.35 454.89,376.37 452.54,374.66 ZM 611.41 286.65 C613.11,285.36 615.85,283.58 617.50,282.69 C619.90,281.40 620.10,281.07 618.50,281.05 C611.46,280.95 605.00,284.05 605.00,287.54 C605.00,289.71 607.90,289.31 611.41,286.65 ZM 363.08 330.60 C361.34,328.50 362.34,326.23 365.19,325.83 C366.46,325.65 367.54,324.83 367.60,324.00 C367.83,320.41 368.13,320.00 370.50,320.00 C374.01,320.00 373.57,321.76 368.66,327.34 C364.90,331.61 364.24,331.99 363.08,330.60 ZM 354.67 342.33 C353.37,341.04 354.02,337.29 355.83,335.65 C358.36,333.36 362.00,333.49 362.00,335.87 C362.00,339.71 356.71,344.38 354.67,342.33 ZM 390.20 554.80 C387.34,551.94 389.97,547.57 394.19,548.17 C398.42,548.77 397.39,556.00 393.08,556.00 C392.15,556.00 390.86,555.46 390.20,554.80 ZM 381.75 543.92 C378.03,541.75 380.69,536.54 385.19,537.17 C387.84,537.55 388.86,541.25 386.95,543.56 C385.56,545.24 384.18,545.34 381.75,543.92 ZM 512.05 436.56 C509.96,434.04 511.16,430.54 514.24,430.18 C517.68,429.79 520.15,433.90 518.02,436.47 C516.42,438.40 513.61,438.44 512.05,436.56 ZM 273.75 264.92 C271.01,263.32 271.50,259.16 274.51,258.41 C279.02,257.28 281.60,261.25 278.43,264.43 C276.61,266.25 276.12,266.30 273.75,264.92 ZM 342.67 366.33 C340.28,363.95 343.70,358.00 347.45,358.00 C348.94,358.00 349.14,358.55 348.62,361.15 C347.66,365.97 344.79,368.46 342.67,366.33 ZM 319.94 219.16 C316.51,216.37 317.96,213.79 322.73,214.19 C327.03,214.55 328.46,217.46 325.42,219.68 C323.08,221.39 322.66,221.35 319.94,219.16 ZM 401.20 224.80 C399.51,223.11 399.71,220.33 401.58,219.61 C404.59,218.45 406.87,219.01 407.52,221.05 C408.73,224.86 404.04,227.64 401.20,224.80 ZM 345.72 260.87 C343.26,259.49 343.59,257.31 346.56,255.37 C348.89,253.84 349.26,253.83 350.70,255.27 C353.58,258.15 349.36,262.90 345.72,260.87 ZM 348.70 353.37 C347.59,352.25 347.89,348.51 349.20,347.20 C350.81,345.59 353.66,345.68 354.31,347.36 C355.50,350.46 350.81,355.48 348.70,353.37 ZM 374.07 388.13 C372.73,385.62 373.60,383.26 376.19,382.44 C379.15,381.50 380.59,383.42 379.42,386.74 C378.24,390.10 375.51,390.81 374.07,388.13 ZM 378.05 376.09 C377.27,374.64 377.47,373.65 378.86,371.93 C382.16,367.85 385.54,371.26 382.96,376.07 C381.64,378.53 379.36,378.55 378.05,376.09 ZM 396.25 301.28 C394.45,300.64 394.71,298.57 396.83,296.65 C398.81,294.86 402.54,294.44 403.45,295.92 C404.55,297.70 398.61,302.13 396.25,301.28 ZM 385.14 309.08 C383.16,307.86 384.58,304.51 387.67,303.10 C389.55,302.25 390.61,302.21 391.38,302.98 C393.49,305.09 387.75,310.70 385.14,309.08 ZM 401.35 240.46 C400.53,238.33 402.58,237.03 406.82,237.02 C409.69,237.00 410.10,237.30 409.82,239.25 C409.56,241.06 408.76,241.56 405.74,241.81 C402.97,242.04 401.82,241.69 401.35,240.46 ZM 375.14 317.11 C373.10,315.82 374.71,312.11 377.64,311.38 C381.39,310.44 382.42,312.20 379.96,315.33 C377.68,318.23 377.19,318.41 375.14,317.11 ZM 384.13 364.66 C382.67,362.90 383.62,360.27 386.23,358.88 C389.33,357.22 390.87,359.36 388.99,362.71 C387.17,365.92 385.68,366.52 384.13,364.66 ZM 421.57 494.07 C419.09,491.33 420.22,488.78 423.74,489.18 C426.07,489.45 426.50,489.97 426.50,492.49 C426.50,496.14 424.13,496.91 421.57,494.07 ZM 461.30 361.34 C460.89,360.28 461.50,359.02 462.98,357.81 C465.62,355.68 467.35,355.88 467.83,358.38 C468.57,362.20 462.66,364.88 461.30,361.34 ZM 463.71 254.38 C462.34,253.00 463.02,250.13 464.86,249.54 C467.76,248.62 470.14,249.99 469.80,252.38 C469.50,254.51 465.24,255.91 463.71,254.38 ZM 509.61 421.70 C507.37,420.07 507.80,415.65 510.24,415.19 C512.83,414.70 514.86,419.57 512.88,421.55 C511.65,422.78 511.11,422.80 509.61,421.70 ZM 414.23 481.83 C413.55,481.15 413.00,479.54 413.00,478.23 C413.00,476.24 413.44,475.92 415.75,476.18 C418.07,476.45 418.50,476.97 418.50,479.49 C418.50,482.73 416.33,483.93 414.23,481.83 ZM 508.48 258.61 C506.86,257.43 506.78,256.97 507.91,255.61 C509.60,253.57 511.42,253.57 513.46,255.61 C514.70,256.85 514.81,257.53 513.91,258.61 C512.45,260.37 510.89,260.37 508.48,258.61 ZM 389.41 243.61 C388.51,241.28 389.82,240.00 393.13,240.00 C395.68,240.00 396.09,240.34 395.82,242.25 C395.43,244.99 390.35,246.07 389.41,243.61 ZM 391.31 352.36 C390.46,350.15 392.23,347.57 394.85,347.18 C397.41,346.80 397.65,348.63 395.44,351.78 C393.60,354.41 392.17,354.61 391.31,352.36 ZM 399.35 341.46 C398.69,339.75 401.60,336.00 403.60,336.00 C405.89,336.00 406.02,337.71 403.91,340.38 C401.57,343.36 400.20,343.69 399.35,341.46 ZM 407.55 293.08 C407.24,292.57 407.69,291.45 408.56,290.58 C410.58,288.57 415.00,288.49 415.00,290.46 C415.00,293.06 408.87,295.21 407.55,293.08 ZM 481.47 370.96 C480.60,369.54 483.68,365.00 485.52,365.00 C487.24,365.00 487.44,367.30 485.96,370.07 C484.84,372.16 482.51,372.63 481.47,370.96 ZM 290.39 252.57 C289.39,249.98 290.79,247.83 293.25,248.18 C294.90,248.41 295.50,249.17 295.50,251.00 C295.50,252.83 294.90,253.59 293.25,253.82 C291.89,254.01 290.75,253.51 290.39,252.57 ZM 420.18 286.33 C420.61,284.09 425.78,282.37 427.34,283.95 C428.22,284.85 428.04,285.48 426.56,286.57 C423.80,288.61 419.76,288.46 420.18,286.33 ZM 308.00 244.50 C307.01,243.30 307.01,242.70 308.00,241.50 C309.63,239.53 311.63,239.59 312.41,241.63 C313.02,243.22 311.49,246.00 310.00,246.00 C309.58,246.00 308.68,245.32 308.00,244.50 ZM 594.25 247.98 C597.57,251.01 599.00,251.66 599.00,250.15 C599.00,248.94 593.18,243.00 591.99,243.00 C590.09,243.00 591.02,245.05 594.25,247.98 ZM 233.62 302.46 C232.73,300.14 233.72,299.00 236.63,299.00 C238.66,299.00 239.08,299.43 238.82,301.25 C238.43,303.99 234.56,304.90 233.62,302.46 ZM 436.08 280.24 C437.61,279.75 439.45,279.32 441.38,279.03 C441.45,279.02 441.51,279.01 441.58,279.00 C443.23,279.03 443.19,279.24 441.85,280.58 C441.09,281.34 438.80,282.12 436.62,282.59 C435.45,282.81 434.41,282.97 433.62,283.02 C432.68,283.06 432.05,282.94 432.00,282.62 C432.01,282.52 432.05,282.43 432.10,282.33 C432.53,281.77 434.21,280.93 436.08,280.24 ZM 498.45 310.91 C497.52,309.42 498.90,308.34 502.75,307.53 C506.89,306.65 507.06,308.40 503.05,310.47 C499.53,312.29 499.31,312.31 498.45,310.91 ZM 354.77 254.80 C353.94,252.52 355.09,251.00 357.65,251.00 C359.66,251.00 360.08,251.43 359.82,253.25 C359.46,255.76 355.57,256.96 354.77,254.80 ZM 489.00 359.06 C489.00,357.40 493.60,352.70 494.81,353.11 C496.45,353.66 492.49,360.00 490.51,360.00 C489.68,360.00 489.00,359.58 489.00,359.06 ZM 430.67 506.33 C430.30,505.97 430.00,504.81 430.00,503.76 C430.00,500.91 434.40,501.81 434.82,504.75 C435.05,506.41 434.64,507.00 433.24,507.00 C432.19,507.00 431.03,506.70 430.67,506.33 ZM 483.59 315.15 C482.92,314.06 487.39,311.99 490.30,312.03 L 492.50 312.07 L 490.14 314.03 C487.68,316.08 484.50,316.62 483.59,315.15 ZM 479.67 254.33 C478.20,252.87 479.13,251.00 481.33,251.00 C484.18,251.00 485.03,251.75 484.32,253.60 C483.77,255.05 480.84,255.51 479.67,254.33 ZM 292.60 296.41 C291.86,294.47 292.66,293.00 294.45,293.00 C295.71,293.00 297.00,295.06 297.00,297.08 C297.00,298.66 293.25,298.08 292.60,296.41 ZM 270.73 327.87 C268.11,326.40 268.59,324.00 271.50,324.00 C273.31,324.00 274.00,324.54 274.00,325.94 C274.00,328.44 272.90,329.08 270.73,327.87 ZM 258.70 345.65 C257.96,343.74 258.81,343.00 261.74,343.00 C263.49,343.00 264.06,343.48 263.81,344.75 C263.40,346.93 259.45,347.62 258.70,345.65 ZM 340.06 374.58 C338.51,372.71 339.50,371.00 342.13,371.00 C343.62,371.00 344.06,371.56 343.82,373.17 C343.42,375.89 341.69,376.53 340.06,374.58 ZM 379.36 246.51 C379.02,245.60 379.17,244.43 379.70,243.90 C381.10,242.50 384.15,243.97 383.79,245.86 C383.36,248.07 380.14,248.53 379.36,246.51 ZM 409.00 331.15 C409.00,329.95 412.43,327.00 413.83,327.00 C415.55,327.00 415.26,328.46 413.17,330.35 C411.22,332.11 409.00,332.54 409.00,331.15 ZM 409.20 466.80 C408.54,466.14 408.00,464.76 408.00,463.73 C408.00,461.27 411.34,461.83 411.83,464.37 C412.31,466.85 410.72,468.32 409.20,466.80 ZM 516.01 277.04 C514.90,276.33 514.80,275.80 515.65,274.95 C517.17,273.43 520.50,274.15 520.50,276.00 C520.50,277.79 518.05,278.35 516.01,277.04 ZM 520.98 261.47 C519.84,260.10 519.85,259.70 521.06,258.94 C522.96,257.74 523.74,257.77 524.56,259.10 C524.93,259.70 524.58,260.85 523.78,261.65 C522.51,262.92 522.16,262.90 520.98,261.47 ZM 416.12 239.10 C414.31,237.95 415.58,236.00 418.13,236.00 C419.43,239.70 417.97,240.26 416.12,239.10 ZM 513.58 307.24 C512.11,305.77 513.34,305.00 517.17,305.00 C519.46,305.00 521.09,305.24 520.80,305.53 C519.85,306.49 514.16,307.83 513.58,307.24 ZM 493.67 255.33 C492.21,253.88 493.14,252.88 495.67,253.18 C499.12,253.59 500.04,256.00 496.75,256.00 C495.42,256.00 494.03,255.70 493.67,255.33 ZM 309.03 216.53 C307.64,214.87 308.45,213.00 310.56,213.00 C312.12,213.00 312.56,216.53 311.11,217.43 C310.63,217.73 309.69,217.33 309.03,216.53 ZM 326.16 237.69 C324.80,236.05 325.61,235.00 328.24,235.00 C329.48,235.00 330.03,235.58 329.82,236.67 C329.39,238.89 327.57,239.40 326.16,237.69 ZM 419.10 228.06 C417.58,227.13 418.28,224.00 420.00,224.00 C421.46,224.00 422.47,226.93 421.37,228.03 C420.87,228.53 419.88,228.54 419.10,228.06 ZM 424.45 237.91 C423.57,236.50 425.50,234.57 426.91,235.45 C427.51,235.82 428.00,236.77 428.00,237.56 C428.00,239.24 425.43,239.50 424.45,237.91 ZM 440.41 514.90 C438.52,512.81 438.53,512.80 440.99,513.15 C442.38,513.34 443.63,514.27 443.81,515.25 C444.26,517.62 442.72,517.46 440.41,514.90 ZM 405.20 450.80 C403.53,449.13 403.70,447.00 405.50,447.00 C406.43,447.00 407.00,447.94 407.00,449.50 C407.00,452.35 406.86,452.46 405.20,450.80 ZM 362.50 230.98 C360.71,230.30 360.68,230.14 362.19,229.52 C363.12,229.14 364.65,228.98 365.60,229.17 C367.04,229.45 367.09,229.68 365.91,230.63 C365.09,231.28 363.66,231.43 362.50,230.98 ZM 344.69 233.35 C343.38,232.05 344.01,231.00 346.08,231.00 C347.25,231.00 347.99,231.52 347.77,232.19 C347.28,233.65 345.61,234.28 344.69,233.35 ZM 300.46 213.93 C299.54,212.44 300.61,211.63 302.52,212.37 C303.40,212.71 303.85,213.44 303.50,213.99 C302.69,215.30 301.29,215.28 300.46,213.93 ZM 252.50 368.00 C252.10,367.35 252.22,366.38 252.77,365.83 C253.44,365.16 254.02,365.22 254.50,366.00 C254.90,366.65 254.78,367.62 254.23,368.17 C253.56,368.84 252.98,368.78 252.50,368.00 ZM 262.00 270.58 C262.00,269.71 262.71,269.00 263.58,269.00 C264.45,269.00 264.99,269.53 264.77,270.19 C264.15,272.04 262.00,272.35 262.00,270.58 Z" fill="rgb(239,153,21)"/>
<path d="M 649.00 491.97 C641.66,490.44 630.39,484.29 624.65,478.68 C603.33,457.84 606.73,419.36 631.35,402.93 C640.57,396.77 648.77,394.71 662.28,395.16 C672.34,395.50 674.17,395.85 680.00,398.64 C683.58,400.34 688.28,403.31 690.46,405.22 L 694.43 408.71 L 688.59 415.35 C685.38,419.01 682.21,422.00 681.53,422.00 C680.86,422.00 679.45,421.05 678.40,419.89 C674.29,415.34 669.03,413.52 660.00,413.52 C650.02,413.52 645.62,415.36 639.58,422.04 C627.24,435.71 629.21,457.63 643.79,468.69 C654.00,476.43 668.12,475.50 678.98,466.36 L 682.23 463.63 L 688.12 469.71 C691.35,473.06 694.00,476.26 694.00,476.82 C694.00,478.78 682.44,487.00 676.09,489.55 C668.87,492.44 656.55,493.55 649.00,491.97 ZM 739.00 491.97 C721.93,488.93 710.53,478.30 707.12,462.20 C706.44,458.95 706.00,445.30 706.00,426.95 L 706.00 397.00 L 709.25 396.99 C711.04,396.99 715.51,396.70 719.20,396.35 L 725.89 395.72 L 726.20 427.11 C726.50,458.31 726.52,458.53 729.00,463.50 C735.58,476.67 756.80,477.43 764.06,464.75 C766.49,460.52 766.50,460.33 766.80,428.25 L 767.10 396.00 L 777.11 396.00 L 787.12 396.00 L 786.80 430.25 C786.48,463.20 786.39,464.72 784.19,470.19 C781.48,476.92 774.31,484.86 768.14,487.96 C759.84,492.13 748.61,493.67 739.00,491.97 ZM 814.00 444.11 C814.00,402.27 814.17,397.15 815.58,396.61 C816.45,396.27 820.94,396.00 825.56,396.00 L 833.96 396.00 L 834.23 414.75 L 834.50 433.50 L 854.00 433.50 L 873.50 433.50 L 873.77 414.75 L 874.04 396.00 L 884.02 396.00 L 894.00 396.00 L 894.00 443.50 L 894.00 491.00 L 884.00 491.00 L 874.00 491.00 L 874.00 471.50 L 874.00 452.00 L 854.00 452.00 L 834.00 452.00 L 834.00 471.50 L 834.00 491.00 L 824.00 491.00 L 814.00 491.00 L 814.00 444.11 ZM 917.00 444.14 L 917.00 397.27 L 921.64 396.64 C928.98,395.63 955.86,395.91 962.99,397.07 C980.57,399.92 989.86,409.81 990.79,426.66 C991.39,437.52 989.26,444.38 983.20,451.12 C975.23,459.98 966.12,463.00 947.32,463.00 L 937.00 463.00 L 937.00 477.00 L 937.00 491.00 L 927.00 491.00 L 917.00 491.00 L 917.00 444.14 ZM 962.68 443.06 C965.34,441.85 967.50,439.95 968.59,437.83 C970.93,433.31 971.00,424.18 968.72,420.70 C965.31,415.49 962.70,414.61 949.36,414.17 L 937.00 413.76 L 937.00 428.71 C937.00,436.94 937.30,443.97 937.67,444.33 C938.03,444.70 942.87,444.99 948.42,444.98 C956.15,444.96 959.47,444.51 962.68,443.06 ZM 540.65 273.17 C536.85,268.96 539.76,262.00 545.33,262.00 C550.96,262.00 554.23,269.67 550.17,273.35 C547.74,275.54 542.72,275.45 540.65,273.17 ZM 594.25 247.98 C591.02,245.05 590.09,243.00 591.99,243.00 C593.18,243.00 599.00,248.94 599.00,250.15 C599.00,251.66 597.57,251.01 594.25,247.98 Z" fill="rgb(246,246,246)"/>
</g>
</svg>