<?xml version="1.0" encoding="UTF-8"?>
<svg version="1.1" xmlns="http://www.w3.org/2000/svg" width="460" height="448">

<path d="M0 0 C3.5625 0.3125 3.5625 0.3125 5.5 1.5625 C6.5625 3.3125 6.5625 3.3125 6.5625 7.3125 C7.08457031 7.48555664 7.60664063 7.65861328 8.14453125 7.83691406 C12.37377923 9.24234279 16.59676421 10.66389144 20.8125 12.109375 C49.57361783 21.92051602 78.88435888 28.94100011 108.54736328 35.40087891 C109.35806778 35.57827103 110.16877228 35.75566315 111.00404358 35.93843079 C112.53713015 36.273212 114.07081525 36.60526935 115.60520935 36.93400574 C119.69439247 37.82761839 123.60762334 38.94923783 127.5625 40.3125 C130.2264967 40.9375566 132.88994808 41.53998806 135.5625 42.125 C142.57081491 43.70369095 149.19354296 45.80217424 155.90234375 48.359375 C158.40534034 49.42493317 158.40534034 49.42493317 160.5625 49.3125 C156.17223273 47.77607904 151.7796886 46.24641291 147.38500977 44.72265625 C145.89382345 44.20459908 144.40324816 43.6847793 142.91333008 43.16308594 C132.4350241 39.45382377 132.4350241 39.45382377 121.66333008 36.76123047 C117.24230977 35.81691492 112.9410903 34.39617885 108.625 33.0625 C107.62009521 32.7523999 106.61519043 32.4422998 105.57983398 32.12280273 C103.53811987 31.48981471 101.49717365 30.85434414 99.45703125 30.21630859 C97.64085243 29.64921227 95.82333189 29.08637663 94.00390625 28.52978516 C82.91227654 25.13081078 72.79264504 20.77988619 62.5625 15.3125 C60.27861686 14.17055843 58.7241334 14.14747869 56.1875 14 C53.04233006 13.66573073 51.6992743 13.40257088 49 11.625 C47.10820567 8.58167868 46.96346652 6.83182168 47.5625 3.3125 C49.1875 1.375 49.1875 1.375 51.5625 0.3125 C55.14183452 0.38554764 56.87948873 0.62948873 59.4375 3.1875 C60.5625 5.3125 60.5625 5.3125 60.5625 8.3125 C61.29339844 8.44269531 62.02429688 8.57289062 62.77734375 8.70703125 C65.37810539 9.27241421 67.65049254 10.0338414 70.125 11 C85.67121795 16.75052813 101.59866091 20.62372267 117.8125 23.9375 C136.31421502 27.76243819 154.43403365 31.96621232 172.375 37.9375 C173.16009949 38.19817261 173.94519897 38.45884521 174.75408936 38.72741699 C194.69333898 45.39834533 217.63517483 54.14783454 228.7734375 73.40625 C229.7618346 75.79406081 229.70462355 77.75427615 229.5625 80.3125 C220.42534754 85.52776967 208.13010218 81.38414232 198.578125 78.89453125 C194.66999185 77.76601993 191.16658058 76.18128252 187.5625 74.3125 C187.2325 74.6425 186.9025 74.9725 186.5625 75.3125 C186.8925 75.6425 187.2225 75.9725 187.5625 76.3125 C187.63476502 78.16537502 187.6463122 80.02083878 187.625 81.875 C187.61597656 82.88691406 187.60695313 83.89882812 187.59765625 84.94140625 C187.58025391 86.11509766 187.58025391 86.11509766 187.5625 87.3125 C188.18898438 87.37308594 188.81546875 87.43367188 189.4609375 87.49609375 C190.68683594 87.62177734 190.68683594 87.62177734 191.9375 87.75 C193.15566406 87.87181641 193.15566406 87.87181641 194.3984375 87.99609375 C196.5625 88.3125 196.5625 88.3125 198.5625 89.3125 C198.5625 89.9725 198.5625 90.6325 198.5625 91.3125 C194.9325 90.9825 191.3025 90.6525 187.5625 90.3125 C187.2325 91.9625 186.9025 93.6125 186.5625 95.3125 C181.41599072 100.31605069 174.50677868 100.8233312 167.5625 101.3125 C166.9025 100.9825 166.2425 100.6525 165.5625 100.3125 C165.5625 99.6525 165.5625 98.9925 165.5625 98.3125 C162.9225 97.9825 160.2825 97.6525 157.5625 97.3125 C157.5625 95.9925 157.5625 94.6725 157.5625 93.3125 C156.9025 93.3125 156.2425 93.3125 155.5625 93.3125 C155.5625 91.3325 155.5625 89.3525 155.5625 87.3125 C154.5725 86.9825 153.5825 86.6525 152.5625 86.3125 C152.748125 85.136875 152.93375 83.96125 153.125 82.75 C153.14678882 79.67232889 152.87050103 78.64090281 150.734375 76.36328125 C148.39829885 74.58028273 146.01802722 72.92624949 143.5625 71.3125 C141.85918066 70.02632009 140.17199271 68.71431624 138.5625 67.3125 C138.5625 66.6525 138.5625 65.9925 138.5625 65.3125 C143.34453743 66.65744803 146.15276074 69.54525269 149.59765625 72.94921875 C151.44262576 74.532844 151.44262576 74.532844 153.5859375 74.171875 C155.66655319 73.26725948 157.31447073 72.23998516 159.125 70.875 C161.24729031 69.291554 163.35537584 67.78391611 165.5625 66.3125 C164.96115234 66.11205078 164.35980469 65.91160156 163.74023438 65.70507812 C161.91052246 65.09517415 160.08085572 64.48513461 158.2512207 63.875 C156.09122557 63.15527725 153.93089606 62.43655742 151.77026367 61.71875 C146.38700102 59.92886081 141.00854419 58.12810002 135.64453125 56.28125 C123.63657069 52.16938079 111.56210513 48.56180236 99.30810547 45.25317383 C90.51944963 42.87651165 81.81066686 40.30261504 73.11572266 37.60522461 C68.55832335 36.19859475 64.02617057 34.88136232 59.375 33.8125 C48.02456325 31.06825993 37.04964489 26.88685912 26.36328125 22.22265625 C25.74419891 21.95298538 25.12511658 21.68331451 24.48727417 21.4054718 C21.41319143 20.06171153 18.35011669 18.69929089 15.29492188 17.31274414 C8.1008622 14.10062849 8.1008622 14.10062849 0.41796875 12.6484375 C-3.4375 12.3125 -3.4375 12.3125 -5.19018555 11.01416016 C-6.4375 9.3125 -6.4375 9.3125 -6.25 5.75 C-5.17519164 1.20273385 -4.6955563 0.42686875 0 0 Z " fill="#F49E18" transform="translate(160.4375,46.6875)"/>
<path d="M0 0 C0.83619873 0.40460449 1.67239746 0.80920898 2.53393555 1.22607422 C15.53750887 7.67732401 27.32519682 15.10369465 32.9375 29.0625 C35.71458529 37.41226977 35.02271039 48.92089596 31.28125 56.8046875 C24.98785971 67.37904676 24.98785971 67.37904676 19.9375 69.0625 C19.92332031 68.06089844 19.90914062 67.05929688 19.89453125 66.02734375 C19.8905033 56.60047451 19.8905033 56.60047451 15.77734375 48.48046875 C-2.22680507 34.60465979 -27.73249318 34.22552018 -49.3125 36.6875 C-66.5669756 39.67305962 -84.34970446 46.74594743 -97.0625 59.0625 C-98.41443011 60.21097132 -99.76872014 61.35666876 -101.125 62.5 C-105.7684532 66.568635 -109.5668543 71.10985145 -113.3125 76 C-113.89 76.680625 -114.4675 77.36125 -115.0625 78.0625 C-115.7225 78.0625 -116.3825 78.0625 -117.0625 78.0625 C-116.537295 74.18342029 -115.66897563 72.15396858 -112.97265625 69.328125 C-112.35326172 68.67199219 -111.73386719 68.01585937 -111.09570312 67.33984375 C-110.44537109 66.67082031 -109.79503906 66.00179687 -109.125 65.3125 C-108.15530273 64.28576172 -108.15530273 64.28576172 -107.16601562 63.23828125 C-102.38468247 58.22359124 -102.38468247 58.22359124 -100.0625 57.0625 C-100.289375 56.299375 -100.51625 55.53625 -100.75 54.75 C-101.0625 52.0625 -101.0625 52.0625 -99.8125 50.25 C-98.0625 49.0625 -98.0625 49.0625 -95.0625 49.0625 C-94.876875 48.4025 -94.69125 47.7425 -94.5 47.0625 C-87.81530706 33.11183647 -73.31250643 28.05377067 -59.671875 23.21435547 C-58.85203125 22.9257666 -58.0321875 22.63717773 -57.1875 22.33984375 C-45.79570887 18.39947873 -45.79570887 18.39947873 -35.55859375 12.12890625 C-34.0625 11.0625 -34.0625 11.0625 -32.0625 11.0625 C-31.69125 10.2271875 -31.69125 10.2271875 -31.3125 9.375 C-24.20899881 -3.76647721 -12.69533219 -6.22118311 0 0 Z " fill="#F5A510" transform="translate(404.0625,132.9375)"/>
<path d="M0 0 C0.99 1.485 0.99 1.485 2 3 C-0.77321347 2.62524142 -3.43022864 2.20172696 -6.07421875 1.265625 C-24.68000057 -5.08610728 -46.34714271 -1.0938431 -63.625 7.375 C-69.25316367 10.39850188 -74.161632 13.84879321 -79 18 C-79.66257812 18.49628906 -80.32515625 18.99257812 -81.0078125 19.50390625 C-92.07667895 28.16366648 -99.52091713 42.89298721 -101.68359375 56.62890625 C-103.40519291 74.97137635 -101.42179308 90.4927434 -92.64453125 106.796875 C-91 110 -91 110 -91 112 C-100.31580538 107.86864283 -105.92487004 96.94393558 -110 88 C-117.29093862 68.82935141 -116.85178924 48.61412837 -108.50390625 29.875 C-98.65773431 11.05218818 -81.43670219 -1.59538945 -61.54296875 -8.13671875 C-42.39496792 -12.80232865 -16.04334212 -12.91041479 0 0 Z " fill="#F17D0D" transform="translate(416,182)"/>
<path d="M0 0 C0 0.33 0 0.66 0 1 C-4.77086047 0.63059134 -9.45323251 0.23676716 -14.09375 -0.97265625 C-26.79900837 -4.20240964 -39.3458751 -4.39072129 -52.375 -4.375 C-53.27919678 -4.37654083 -54.18339355 -4.37808167 -55.11499023 -4.37966919 C-71.37099729 -4.37654049 -86.44048706 -3.12408468 -102 2 C-103.21945313 2.39832031 -104.43890625 2.79664063 -105.6953125 3.20703125 C-126.20661277 10.24650532 -144.27238221 21.13416949 -160 36 C-160.6496875 36.6084375 -161.299375 37.216875 -161.96875 37.84375 C-166.07595917 41.80684656 -170.20449086 45.98515536 -173 51 C-172.99077298 53.54713404 -172.99077298 53.54713404 -172 56 C-171.56360004 60.58219953 -171.29720202 63.66347803 -174 67.5 C-177.08943925 70.07453271 -177.56938154 70.36170295 -181.3125 70.375 C-182.529375 70.25125 -183.74625 70.1275 -185 70 C-185.37125 71.8253125 -185.37125 71.8253125 -185.75 73.6875 C-186.85951555 78.72787063 -188.39702482 83.59324389 -190 88.49609375 C-192.79726178 98.29743678 -193.36116832 107.65968314 -193.3125 117.8125 C-193.31167419 118.53766815 -193.31084839 119.2628363 -193.30999756 120.00997925 C-193.27424693 133.67518772 -192.35711625 147.10287416 -188.875 160.37109375 C-188.03901742 163.83818221 -187.95296078 165.64947448 -189 169 C-190.32 169 -191.64 169 -193 169 C-202.35586405 137.22805559 -204.48294623 102.68072271 -191.68066406 71.53637695 C-190.88963757 68.5887535 -191.18374672 66.9131901 -192 64 C-193.6163496 58.18114144 -193.6163496 58.18114144 -191.97265625 55.03125 C-190.44059391 53.04810299 -189.01156091 51.49778561 -187 50 C-185.88625 49.87625 -184.7725 49.7525 -183.625 49.625 C-177.87179609 48.63306829 -175.51448835 44.40705681 -172 40 C-169.70315784 37.30020307 -167.36210152 34.64279969 -165 32 C-164.46632812 31.38769531 -163.93265625 30.77539062 -163.3828125 30.14453125 C-125.44009068 -10.74929116 -49.91506135 -22.6466482 0 0 Z " fill="#E6800B" transform="translate(298,127)"/>
<path d="M0 0 C0 0.99 0 1.98 0 3 C-1.34191406 3.72703125 -1.34191406 3.72703125 -2.7109375 4.46875 C-10.411106 8.71137301 -17.2849239 13.28197456 -24 19 C-24.80695313 19.60585937 -25.61390625 20.21171875 -26.4453125 20.8359375 C-29.46825367 23.39665525 -31.8904365 26.26258572 -34.3125 29.375 C-34.79033936 29.98859375 -35.26817871 30.6021875 -35.76049805 31.234375 C-52.97892911 53.83482695 -60.64733022 79.58299075 -57.12695312 107.87573242 C-54.56764378 126.54178327 -48.5524197 144.85024455 -37 160 C-36.41863281 160.77085937 -35.83726562 161.54171875 -35.23828125 162.3359375 C-20.19214371 181.68533142 -2.89924972 194.46499175 17.86962891 207.14111328 C36.86765772 218.79345431 55.8092093 232.2751786 68.8125 250.625 C72.53545499 255.84671812 74.9425839 257.25464282 81 259 C83.62105674 261.49000391 84.81457828 262.94044734 85.4375 266.5 C84.90211595 269.55933742 83.81110587 271.49231495 82 274 C78.75862098 275.62068951 75.50335931 275.54928387 72 275 C69 273.25 69 273.25 67 270 C67.01117898 268.10236898 67.1038972 266.2045313 67.25 264.3125 C67.42559878 260.44458102 67.36552425 258.57251776 65.26171875 255.27734375 C62.92987079 252.74170404 60.50254086 250.36640264 58 248 C56.77454687 246.61917244 55.56461461 245.22432053 54.375 243.8125 C49.17079107 237.71338741 43.48894712 232.28747042 37.0625 227.5 C36.39065674 226.99645996 35.71881348 226.49291992 35.02661133 225.97412109 C28.95307183 221.51897377 22.60311889 217.56474505 16.1875 213.625 C-20.56455439 191.00058078 -49.84960778 162.98400716 -61 120 C-67.24304263 93.16135284 -63.11395576 63.99948021 -48.73754883 40.51708984 C-38.21027773 24.14903493 -24.22603941 12.40433315 -8 2 C-4.77208445 -0.1519437 -3.71599191 -0.20086443 0 0 Z " fill="#E8840D" transform="translate(230,160)"/>
<path d="M0 0 C-2.53814979 1.69209986 -4.67223248 2.77630287 -7.46484375 3.91796875 C-17.36785307 8.02427218 -27.02151161 12.06822859 -36 18 C-36.82806152 18.54261475 -36.82806152 18.54261475 -37.67285156 19.09619141 C-58.45909633 32.85634187 -73.8026876 51.94041283 -81 76 C-81.37531446 78.32694964 -81.71917202 80.65976685 -82 83 C-81.01 83.33 -80.02 83.66 -79 84 C-77.57337781 86.85324437 -77.68966132 88.83454549 -78 92 C-79.875 94.875 -79.875 94.875 -82 97 C-82.66 97 -83.32 97 -84 97 C-80.33349114 126.15952928 -69.27231407 148.67429762 -46 167 C-41.47651455 170.35717844 -36.88845542 173.62438552 -32.3046875 176.8984375 C-27.38461214 180.42367891 -22.65124807 184.12770491 -18 188 C-16.93107037 188.87119288 -15.86205394 189.74227927 -14.79296875 190.61328125 C-7.36924706 196.71704095 -0.37434226 202.93848661 5 211 C7.33157492 211.34541851 9.66508361 211.67794257 12 212 C14.375 213.0625 14.375 213.0625 16 215 C17.73982737 221.24290999 17.73982737 221.24290999 16.21875 224.85546875 C14.55889852 227.21627103 12.83106488 228.77170352 10.0234375 229.54296875 C6.51156549 229.78630071 4.37518797 229.27898593 1.5625 227.1875 C-0.04261021 223.91307517 -0.18378088 222.25202947 -0.3125 218.6875 C-0.68862268 212.17095585 -3.38446902 209.33580183 -8 205 C-8.50402344 204.45214844 -9.00804687 203.90429688 -9.52734375 203.33984375 C-15.30696159 197.11903371 -22.28127597 192.14713464 -29 187 C-29.57121582 186.56220215 -30.14243164 186.1244043 -30.73095703 185.67333984 C-31.8403957 184.82327561 -32.94993167 183.97333834 -34.05957031 183.12353516 C-36.71184742 181.08938022 -39.35652456 179.04558646 -42 177 C-42.90105469 176.30777344 -43.80210937 175.61554688 -44.73046875 174.90234375 C-64.50160005 159.27818534 -79.0771291 141.13372194 -87 117 C-87.22816406 116.32324219 -87.45632812 115.64648438 -87.69140625 114.94921875 C-89.44011833 109.04272968 -89.18331816 103.11060518 -89 97 C-90.2065625 96.5359375 -90.2065625 96.5359375 -91.4375 96.0625 C-94 95 -94 95 -95 94 C-95.70813397 86.91866029 -95.70813397 86.91866029 -92.6875 83 C-90 81 -90 81 -87 81 C-86.9071875 79.1746875 -86.9071875 79.1746875 -86.8125 77.3125 C-84.38959353 56.17015173 -66.71102197 35.06154913 -50.57421875 22.04296875 C-48.10459896 20.25239336 -45.59222906 18.60793339 -43 17 C-41.98679687 16.36578125 -40.97359375 15.7315625 -39.9296875 15.078125 C-28.23288488 8.07632668 -13.83387695 -0.26101655 0 0 Z " fill="#E67F0A" transform="translate(307,168)"/>
<path d="M0 0 C3.5625 0.125 3.5625 0.125 5.5625 1.125 C5.5625 3.435 5.5625 5.745 5.5625 8.125 C3.9125 8.455 2.2625 8.785 0.5625 9.125 C0.65777911 13.14144044 0.76419439 17.15743434 0.87988281 21.17333984 C0.93589734 23.19223624 0.98369483 25.21135538 1.03125 27.23046875 C1.80568492 53.4321836 8.62682116 81.88124453 26.5625 102.125 C28.8765622 102.85575648 31.21078869 103.52638258 33.5625 104.125 C35.5625 106.125 35.5625 106.125 36 109.0625 C35.5625 112.125 35.5625 112.125 33.375 114.0625 C30.14098967 115.28423724 28.78215625 115.31118915 25.5625 114.125 C22.98766104 112.34241918 22.4562585 110.8487721 21.3125 107.875 C20.13278434 104.94083542 18.85199181 103.28611565 16.5 101.1875 C0.69396442 86.14842395 -7.90249102 61.43473548 -8.7109375 40.14453125 C-8.75518748 38.01321131 -8.78905201 35.88165029 -8.8125 33.75 C-8.82667969 32.75137939 -8.84085937 31.75275879 -8.85546875 30.72387695 C-8.81627794 24.8349674 -8.00089505 19.90631796 -6.13232422 14.32617188 C-5.26293066 11.57197217 -4.96983777 8.94012508 -4.8125 6.0625 C-4.46494627 0.16236168 -4.46494627 0.16236168 0 0 Z " fill="#EA740C" transform="translate(277.4375,225.875)"/>
<path d="M0 0 C4.78203743 1.34494803 7.59026074 4.23275269 11.03515625 7.63671875 C12.88171565 9.22129637 12.88171565 9.22129637 15.03515625 8.859375 C17.70872114 7.69002256 19.75022279 6.05847243 22.0234375 4.25390625 C25.2752894 2.19097254 28.09882401 0.68071333 32.04248047 1.34301758 C34.32683242 2.00328638 36.5267248 2.78221472 38.75 3.625 C39.51699219 3.88667969 40.28398437 4.14835937 41.07421875 4.41796875 C46.50675392 6.39430404 46.50675392 6.39430404 48.5078125 8.8515625 C49.12547324 11.54770066 49.19083245 13.98503702 49.125 16.75 C49.10695313 17.73484375 49.08890625 18.7196875 49.0703125 19.734375 C49.04710937 20.48203125 49.02390625 21.2296875 49 22 C49.93972656 22.09087891 49.93972656 22.09087891 50.8984375 22.18359375 C52.12433594 22.30927734 52.12433594 22.30927734 53.375 22.4375 C54.59316406 22.55931641 54.59316406 22.55931641 55.8359375 22.68359375 C58 23 58 23 60 24 C60 24.66 60 25.32 60 26 C56.37 25.67 52.74 25.34 49 25 C48.505 27.475 48.505 27.475 48 30 C42.85349072 35.00355069 35.94427868 35.5108312 29 36 C28.34 35.67 27.68 35.34 27 35 C27 34.34 27 33.68 27 33 C24.36 32.67 21.72 32.34 19 32 C19 30.68 19 29.36 19 28 C18.34 28 17.68 28 17 28 C17 26.02 17 24.04 17 22 C16.01 21.67 15.02 21.34 14 21 C14.185625 19.824375 14.37125 18.64875 14.5625 17.4375 C14.58428882 14.35982889 14.30800103 13.32840281 12.171875 11.05078125 C9.83579885 9.26778273 7.45552722 7.61374949 5 6 C3.29668066 4.71382009 1.60949271 3.40181624 0 2 C0 1.34 0 0.68 0 0 Z " fill="#894904" transform="translate(299,112)"/>
<path d="M0 0 C-3.24243304 4.86364956 -8.48255413 4.88431048 -14 6 C-18.03132873 6.70408861 -22.07445218 7.29347622 -26.125 7.875 C-62.35001985 13.4631301 -97.87715054 29.15488782 -121.296875 58.34765625 C-123.66604462 62.03725756 -123.76882316 64.68469891 -124 69 C-126.13774793 71.44314049 -127.3855604 71.89509568 -130.5625 72.4375 C-133 72 -133 72 -134.875 70.375 C-136.38776998 67.18137449 -135.94757993 65.35297515 -135 62 C-133 60 -133 60 -130.375 59.875 C-129.59125 59.91625 -128.8075 59.9575 -128 60 C-127.938125 59.30390625 -127.87625 58.6078125 -127.8125 57.890625 C-126.74312387 54.08611378 -124.56832769 51.64570569 -122 48.75 C-121.50161621 48.17862305 -121.00323242 47.60724609 -120.48974609 47.01855469 C-119.00657974 45.33311684 -117.50697949 43.66414913 -116 42 C-115.24976563 41.1646875 -114.49953125 40.329375 -113.7265625 39.46875 C-88.32671489 12.65255401 -46.53513634 3.06515359 -11.08203125 1.24609375 C-7.20125308 0.93622173 -3.9505946 -0.10677283 0 0 Z " fill="#E57308" transform="translate(335,153)"/>
<path d="M0 0 C3.4375 0.9375 3.4375 0.9375 5.4375 2 C7.12717611 5.27374746 6.50566824 8.49642111 5.4375 11.9375 C3.5625 13.9375 3.5625 13.9375 1.4375 14.9375 C0.4475 14.9375 -0.5425 14.9375 -1.5625 14.9375 C-4.13165128 35.00899437 -4.53462165 54.03340137 -0.5625 73.9375 C-0.27246094 75.51337891 -0.27246094 75.51337891 0.0234375 77.12109375 C1.62873137 84.63678778 4.64494733 91.5279386 7.74487305 98.52929688 C8.09074463 99.31498047 8.43661621 100.10066406 8.79296875 100.91015625 C9.10903076 101.61406494 9.42509277 102.31797363 9.75073242 103.04321289 C10.4375 104.9375 10.4375 104.9375 10.4375 107.9375 C11.324375 107.834375 12.21125 107.73125 13.125 107.625 C16.4375 107.9375 16.4375 107.9375 19.3125 110 C21.4375 112.9375 21.4375 112.9375 22 116.5 C21.4375 119.9375 21.4375 119.9375 19.875 122.375 C16.49532196 124.54146028 14.37766013 124.50038002 10.4375 123.9375 C8.23828125 122.265625 8.23828125 122.265625 6.4375 119.9375 C6.07421875 117.265625 6.07421875 117.265625 6.125 114.1875 C5.86308757 108.35994833 4.53305218 104.02850197 2.125 98.8125 C1.80772949 98.12462402 1.49045898 97.43674805 1.16357422 96.72802734 C0.53946159 95.39119152 -0.08817946 94.05599599 -0.71972656 92.72265625 C-10.8589903 71.24574534 -12.82481356 44.22631161 -7.1484375 21.3125 C-6.29138524 16.37587896 -6.8957534 11.79075042 -7.62890625 6.86328125 C-7.5625 3.9375 -7.5625 3.9375 -5.8125 1.5390625 C-3.5625 -0.0625 -3.5625 -0.0625 0 0 Z " fill="#E77E09" transform="translate(143.5625,207.0625)"/>
<path d="M0 0 C5.87388237 -0.5939881 9.92428606 1.41958481 15.0625 3.9375 C15.89869873 4.34210449 16.73489746 4.74670898 17.59643555 5.16357422 C30.60000887 11.61482401 42.38769682 19.04119465 48 33 C50.80702569 41.43979058 50.03586155 52.90577635 46.2890625 60.87109375 C44.20907825 64.30621925 41.77458325 67.09929933 39 70 C38.01 69.67 37.02 69.34 36 69 C36.375 66.5625 36.375 66.5625 37 64 C37.66 63.67 38.32 63.34 39 63 C41.80225764 52.99450315 40.65224142 41.71791074 35.7109375 32.62890625 C27.13792995 19.03587557 13.8820519 12.34441223 0 5 C0 3.35 0 1.7 0 0 Z " fill="#F5E05E" transform="translate(389,129)"/>
<path d="M0 0 C0 0.99 0 1.98 0 3 C-1.34191406 3.72703125 -1.34191406 3.72703125 -2.7109375 4.46875 C-10.411106 8.71137301 -17.2849239 13.28197456 -24 19 C-24.80695313 19.60585937 -25.61390625 20.21171875 -26.4453125 20.8359375 C-29.46825367 23.39665525 -31.8904365 26.26258572 -34.3125 29.375 C-34.79033936 29.98859375 -35.26817871 30.6021875 -35.76049805 31.234375 C-56.21336142 58.08025628 -59.94643217 86.26575461 -56 119 C-56.66 119 -57.32 119 -58 119 C-58 120.32 -58 121.64 -58 123 C-58.66 123 -59.32 123 -60 123 C-67.09995621 96.96682724 -64.1192219 67.85368368 -50.9753418 44.25244141 C-40.35791774 26.13662356 -25.49285863 13.21663299 -8 2 C-4.77208445 -0.1519437 -3.71599191 -0.20086443 0 0 Z " fill="#DC7108" transform="translate(230,160)"/>
<path d="M0 0 C0 0.66 0 1.32 0 2 C-1.93757904 1.85522064 -3.87505824 1.70910502 -5.8125 1.5625 C-6.89144531 1.48128906 -7.97039062 1.40007812 -9.08203125 1.31640625 C-11.21088885 1.14448455 -13.33943091 0.96563321 -15.46435547 0.75048828 C-51.73183343 -2.8716745 -87.13066441 2.48418131 -116 26 C-124.79096919 33.35597275 -133.5201051 41.30334552 -138.83203125 51.6015625 C-139.21746094 52.06304687 -139.60289062 52.52453125 -140 53 C-141.32 53 -142.64 53 -144 53 C-142.50826291 40.87152888 -125.75889869 27.5192079 -116.55078125 20.16796875 C-108.86252862 14.32634509 -100.56866651 9.86588401 -91.81201172 5.84326172 C-90.23417019 5.10897653 -88.67912845 4.32608594 -87.12890625 3.53515625 C-60.93496124 -8.97254754 -27.45382026 -5.54235512 0 0 Z " fill="#DD7908" transform="translate(298,138)"/>
<path d="M0 0 C3.42906702 1.67450549 6.07090172 3.82852825 8.4375 6.8125 C9.62373341 11.42562991 9.68305024 15.41819945 7.8125 19.75 C4.6767423 23.64266473 1.30863468 26.73765515 -3.75 27.3125 C-8.73289334 26.83337564 -11.61419652 24.57057728 -14.875 20.875 C-16.56540402 16.55507861 -16.79690856 12.56942984 -16 8 C-12.57054696 1.57470292 -7.15848893 -1.29796777 0 0 Z " fill="#E38009" transform="translate(65,210)"/>
<path d="M0 0 C3.12177233 1.68287927 5.39137035 3.7827407 7 7 C7.62133059 11.30212445 7.97036679 15.33395487 5.73046875 19.1796875 C0.9021462 24.84209983 0.9021462 24.84209983 -3.0234375 25.16796875 C-4.18746094 25.17763672 -4.18746094 25.17763672 -5.375 25.1875 C-6.14585938 25.20167969 -6.91671875 25.21585938 -7.7109375 25.23046875 C-11.68967272 24.82987937 -13.59620892 23.44865676 -16.25 20.5 C-18.55950715 15.88098569 -18.84743984 12.07616464 -18 7 C-13.88112472 -0.06092905 -7.69915511 -1.22459003 0 0 Z " fill="#E5880D" transform="translate(106,64)"/>
<path d="M0 0 C3.95078595 0.79820633 6.23244482 2.27896419 8.8984375 5.23828125 C11.46346844 9.31089305 11.03718672 13.83218389 10.30078125 18.46484375 C8.64058267 21.6376677 6.54897859 23.84074508 3.30078125 25.46484375 C-0.90941413 25.89496194 -4.5861473 25.93480725 -8.51171875 24.27734375 C-14.19181311 19.57097985 -14.19181311 19.57097985 -15.19140625 15.421875 C-15.59743261 10.7038487 -14.67004676 7.69678109 -11.82421875 3.90234375 C-8.12793585 0.13093315 -5.17277454 -0.44741752 0 0 Z " fill="#E7870C" transform="translate(115.69921875,298.53515625)"/>
<path d="M0 0 C2.91517292 1.07401108 4.77810176 1.77810176 7 4 C7.26991906 6.68839385 7.08737357 9.29141936 7 12 C7.66 12.33 8.32 12.66 9 13 C9 14.98 9 16.96 9 19 C9.66 19 10.32 19 11 19 C11 20.32 11 21.64 11 23 C13.64 23.33 16.28 23.66 19 24 C19 24.66 19 25.32 19 26 C30.40124332 25.41822277 30.40124332 25.41822277 40 20 C40.6425235 17.93125966 40.6425235 17.93125966 41 16 C43.31 16 45.62 16 48 16 C47.7215625 16.7734375 47.7215625 16.7734375 47.4375 17.5625 C46.84580483 20.85908739 47.432733 23.72245735 48 27 C41.38871628 31.92605453 35.23020641 33.54276631 27 34 C25.65775041 33.70461056 24.32094032 33.37948066 23 33 C20.31850007 33.38567131 20.31850007 33.38567131 18 34 C18 33.01 18 32.02 18 31 C17.05021103 28.84971696 17.05021103 28.84971696 16 27 C12.04 27.495 12.04 27.495 8 28 C7.34 23.71 6.68 19.42 6 15 C0.52174919 14.5527864 0.52174919 14.5527864 -2 16 C-2 15.34 -2 14.68 -2 14 C-4.97 14 -7.94 14 -11 14 C-10.34 13.34 -9.68 12.68 -9 12 C-7.68 12 -6.36 12 -5 12 C-5 11.34 -5 10.68 -5 10 C-5.99 10 -6.98 10 -8 10 C-8.33 8.68 -8.66 7.36 -9 6 C-8.071875 5.938125 -7.14375 5.87625 -6.1875 5.8125 C-2.8109337 5.31172896 -2.8109337 5.31172896 -1.125 2.4375 C-0.75375 1.633125 -0.3825 0.82875 0 0 Z " fill="#773E01" transform="translate(307,121)"/>
<path d="M0 0 C0.66 0.66 1.32 1.32 2 2 C1.24976563 2.47308594 0.49953125 2.94617188 -0.2734375 3.43359375 C-7.48704505 8.0942747 -13.7888669 13.05579163 -20 19 C-20.74894531 19.67417969 -21.49789062 20.34835938 -22.26953125 21.04296875 C-29.15017095 27.46570248 -34.0857561 35.03933094 -39 43 C-39.39050537 43.60666504 -39.78101074 44.21333008 -40.18334961 44.83837891 C-42.43360241 48.48042368 -43.42392866 50.86361088 -42.9375 55.125 C-42.76921471 59.06167383 -42.83167962 59.75473316 -45.1875 63.1875 C-48 65 -48 65 -50.625 65.125 C-53.80003023 63.62103831 -54.67778075 62.23209149 -56 59 C-56.125 56.5 -56.125 56.5 -55 54 C-53.989375 53.360625 -52.97875 52.72125 -51.9375 52.0625 C-48.12417133 49.5900369 -46.28634311 46.42125837 -44.1875 42.5 C-33.96679499 23.54510171 -19.4018483 9.37756001 0 0 Z " fill="#DC7706" transform="translate(304,176)"/>
<path d="M0 0 C2.68163354 2.68163354 2.51032659 4.56999132 3.0625 8.3125 C4.43131738 16.41784711 7.56268909 23.57886363 10.95141602 31.02856445 C11.34256592 31.89054443 11.73371582 32.75252441 12.13671875 33.640625 C12.49467529 34.40922852 12.85263184 35.17783203 13.22143555 35.96972656 C14 38 14 38 14 41 C15.3303125 40.8453125 15.3303125 40.8453125 16.6875 40.6875 C20 41 20 41 22.875 43.0625 C25 46 25 46 25.5625 49.5625 C25 53 25 53 23.4375 55.4375 C20.05782196 57.60396028 17.94016013 57.56288002 14 57 C11.80078125 55.328125 11.80078125 55.328125 10 53 C9.63671875 50.328125 9.63671875 50.328125 9.6875 47.25 C9.32458382 39.17511499 6.25747456 33.00653332 2.85595703 25.83349609 C-0.83221108 17.93328432 -2.66289844 10.71407544 -3 2 C-2.01 1.34 -1.02 0.68 0 0 Z " fill="#EA8E0E" transform="translate(140,274)"/>
<path d="M0 0 C0.66 0.33 1.32 0.66 2 1 C1.46890625 1.88300781 0.9378125 2.76601562 0.390625 3.67578125 C-7.37025107 16.77753445 -12.42537807 29.45956506 -12.25 44.875 C-12.24178223 45.75704102 -12.23356445 46.63908203 -12.22509766 47.54785156 C-12.04518642 58.03686984 -10.03556347 66.68683903 -6.03271484 76.34472656 C-4.39412046 80.39921025 -3.68837546 83.63048194 -4 88 C-5.32 88 -6.64 88 -8 88 C-17.95493621 66.45817083 -20.98506505 43.59356509 -12.74853516 20.93359375 C-9.6345654 12.88967971 -5.96099653 6.24485351 0 0 Z " fill="#C56909" transform="translate(305,202)"/>
<path d="M0 0 C3.10398978 -0.08710289 6.20766548 -0.14042309 9.3125 -0.1875 C10.19357422 -0.21263672 11.07464844 -0.23777344 11.98242188 -0.26367188 C13.25375977 -0.27817383 13.25375977 -0.27817383 14.55078125 -0.29296875 C15.72120972 -0.31653442 15.72120972 -0.31653442 16.9152832 -0.34057617 C19.53135906 0.08680711 20.4137087 0.91420918 22 3 C22 3.66 22 4.32 22 5 C22.7425 5.2475 23.485 5.495 24.25 5.75 C27.20124062 7.09147301 28.84814974 8.60905526 31 11 C28.55309884 14.67035174 26.13347926 15.86992952 22 17 C17.8654137 17.60745107 13.92137317 17.95871392 10.09765625 16.05078125 C6.8651787 13.54541356 5.03328527 10.92648403 4 7 C4 6.01 4 5.02 4 4 C2.68 3.34 1.36 2.68 0 2 C0 1.34 0 0.68 0 0 Z " fill="#FCF3A6" transform="translate(313,123)"/>
<path d="M0 0 C5.79686263 0.51423781 10.20866865 2.86048968 15.25 5.5625 C16.0953833 6.01359131 16.9407666 6.46468262 17.81176758 6.92944336 C28.21901844 12.60548804 40.24791894 20.5996873 45 32 C45.1875 34.6875 45.1875 34.6875 45 37 C44 38 44 38 41.71484375 38.09765625 C40.79832031 38.08605469 39.88179688 38.07445312 38.9375 38.0625 C38.01839844 38.05347656 37.09929687 38.04445312 36.15234375 38.03515625 C35.44207031 38.02355469 34.73179687 38.01195312 34 38 C35.98 37.505 35.98 37.505 38 37 C38 36.01 38 35.02 38 34 C34.37 33.67 30.74 33.34 27 33 C27 32.34 27 31.68 27 31 C30.96 30.505 30.96 30.505 35 30 C34.175 29.38125 33.35 28.7625 32.5 28.125 C31.675 27.42375 30.85 26.7225 30 26 C30 25.34 30 24.68 30 24 C29.38125 23.896875 28.7625 23.79375 28.125 23.6875 C26 23 26 23 24 20 C24 18.68 24 17.36 24 16 C23.40832031 15.73058594 22.81664062 15.46117188 22.20703125 15.18359375 C20.01291159 14.00692427 18.49570784 12.75850401 16.6875 11.0625 C13.37605718 8.1472982 10.14184246 6.58143076 6 5 C3.9927542 4.01462479 1.99019747 3.01936943 0 2 C0 1.34 0 0.68 0 0 Z " fill="#FCE36C" transform="translate(345,90)"/>
<path d="M0 0 C0 0.66 0 1.32 0 2 C-1.093125 2.02578125 -2.18625 2.0515625 -3.3125 2.078125 C-20.15728444 2.63820068 -36.51716155 5.63040565 -53 9 C-53.12890625 9.78632813 -53.2578125 10.57265625 -53.390625 11.3828125 C-54 14 -54 14 -55.75 15.875 C-58 17 -58 17 -60.5625 16.875 C-63.28664422 15.89710208 -64.4481383 15.45030794 -66 13 C-66.64664962 6.96460358 -66.64664962 6.96460358 -64.82421875 4.24609375 C-62.1771439 2.43792056 -60.56512243 3.05521003 -57.4375 3.5625 C-51.90169547 4.14267165 -47.48853508 3.54227672 -42.1875 2.0625 C-28.60165503 -1.59741679 -13.95135175 -0.33394876 0 0 Z " fill="#E3870A" transform="translate(300,147)"/>
<path d="M0 0 C0.721875 0.0825 1.44375 0.165 2.1875 0.25 C2.5175 1.57 2.8475 2.89 3.1875 4.25 C1.89653219 5.06360995 0.60470125 5.87585046 -0.6875 6.6875 C-1.40679687 7.13996094 -2.12609375 7.59242187 -2.8671875 8.05859375 C-4.8125 9.25 -4.8125 9.25 -6.8125 10.25 C-7.82779541 12.57671865 -8.82738198 14.9103447 -9.8125 17.25 C-11.8125 19.25 -11.8125 19.25 -13.90625 19.515625 C-14.7003125 19.51046875 -15.494375 19.5053125 -16.3125 19.5 C-17.1065625 19.50515625 -17.900625 19.5103125 -18.71875 19.515625 C-20.8125 19.25 -20.8125 19.25 -22.8125 17.25 C-23.37370742 14.1899427 -23.31894491 11.31589767 -22.8125 8.25 C-20.9375 5.6875 -20.9375 5.6875 -17.8125 4.25 C-15.2500925 4.15338464 -12.73660821 4.25359783 -10.17578125 4.375 C-5.77904903 4.14244557 -4.32691359 0.38461454 0 0 Z " fill="#F0920D" transform="translate(138.8125,119.75)"/>
<path d="M0 0 C4.43182141 0.71225701 5.86798374 1.97338692 8.5 5.5625 C9.2209359 8.84676353 8.83066713 10.03055723 7.0625 12.875 C3.40844692 15.28132764 -0.23142443 15.43508175 -4.5 14.5625 C-4.96148437 14.07136719 -5.42296875 13.58023438 -5.8984375 13.07421875 C-8.27206582 10.83374519 -10.36172236 11.08528803 -13.5625 10.9375 C-19.33805668 10.64347166 -19.33805668 10.64347166 -21.5 9.5625 C-21.5 8.2425 -21.5 6.9225 -21.5 5.5625 C-20.61957031 5.53671875 -19.73914063 5.5109375 -18.83203125 5.484375 C-17.08986328 5.39929688 -17.08986328 5.39929688 -15.3125 5.3125 C-14.16394531 5.26609375 -13.01539063 5.2196875 -11.83203125 5.171875 C-6.96165873 4.28116209 -4.84547635 0.77873727 0 0 Z " fill="#F38C0D" transform="translate(236.5,95.4375)"/>
<path d="M0 0 C2.31 0 4.62 0 7 0 C6.814375 0.515625 6.62875 1.03125 6.4375 1.5625 C5.84580483 4.85908739 6.432733 7.72245735 7 11 C0.38871628 15.92605453 -5.76979359 17.54276631 -14 18 C-15.34224959 17.70461056 -16.67905968 17.37948066 -18 17 C-20.68149993 17.38567131 -20.68149993 17.38567131 -23 18 C-23 16.33333333 -23 14.66666667 -23 13 C-22.34386719 13.07605469 -21.68773437 13.15210938 -21.01171875 13.23046875 C-16.76605387 12.90557351 -13.57884135 11.21100872 -9.8125 9.3125 C-8.72678711 8.80299805 -8.72678711 8.80299805 -7.61914062 8.28320312 C-3.27503172 6.1307222 -3.27503172 6.1307222 -0.51171875 2.23046875 C-0.34285156 1.49441406 -0.17398437 0.75835937 0 0 Z " fill="#5F2E00" transform="translate(348,137)"/>
<path d="M0 0 C5.96787988 -0.63631676 10.10839477 1.55133899 15.3125 4.125 C16.15466064 4.53226318 16.99682129 4.93952637 17.86450195 5.35913086 C23.54133908 8.15104504 28.96403785 11.14363259 34 15 C31 16 31 16 28.99462891 15.22729492 C28.24616699 14.81584229 27.49770508 14.40438965 26.7265625 13.98046875 C25.4890625 13.31241211 25.4890625 13.31241211 24.2265625 12.63085938 C22.93878906 11.91639648 22.93878906 11.91639648 21.625 11.1875 C19.9308738 10.26214773 18.23559337 9.3389049 16.5390625 8.41796875 C15.78834473 8.00313232 15.03762695 7.5882959 14.26416016 7.16088867 C10.25168832 5.10359909 7.57844473 4 3 4 C4.03833984 4.4021875 4.03833984 4.4021875 5.09765625 4.8125 C12.60736748 7.82034218 19.6566629 11.35741385 26.75 15.23046875 C29.80328792 16.9773954 29.80328792 16.9773954 32.390625 17.94921875 C34 19 34 19 34.609375 21.1640625 C34.65578125 21.97617188 34.7021875 22.78828125 34.75 23.625 C34.80671875 24.44226563 34.8634375 25.25953125 34.921875 26.1015625 C34.94765625 26.72804687 34.9734375 27.35453125 35 28 C32.01762237 26.67877464 30.20258764 25.31594877 28.0625 22.875 C20.39241731 14.97497907 9.64264381 10.10151897 0 5 C0 3.35 0 1.7 0 0 Z " fill="#FCE24D" transform="translate(389,129)"/>
<path d="M0 0 C4.14822958 0.8642145 5.60540961 2.14195943 8 5.625 C8.34880278 9.28386998 7.7178551 12.38869399 5.875 15.5625 C2.86316989 17.26920373 0.44577711 17.56559005 -3 17.625 C-5.9375 16.1875 -5.9375 16.1875 -8 13.625 C-8.7975483 8.60044571 -8.82360163 6.78773171 -5.875 2.625 C-3 0.625 -3 0.625 0 0 Z " fill="#EF8509" transform="translate(62,129.375)"/>
<path d="M0 0 C3 1 3 1 4.0625 2.9609375 C4.371875 3.75757813 4.68125 4.55421875 5 5.375 C6.27991868 8.64945863 7.49616268 10.56513892 10 13 C10.6875 15.6875 10.6875 15.6875 11 18 C17.13499089 18.37561169 21.61903809 18.12095791 27 15 C28.03357147 13.35394174 29.04060332 11.69036558 30 10 C31.32 10 32.64 10 34 10 C34 9.34 34 8.68 34 8 C35.45880109 8.14107747 36.91703551 8.28802415 38.375 8.4375 C39.59316406 8.55931641 39.59316406 8.55931641 40.8359375 8.68359375 C43 9 43 9 45 10 C45 10.66 45 11.32 45 12 C39.555 11.505 39.555 11.505 34 11 C33.67 12.65 33.34 14.3 33 16 C27.85349072 21.00355069 20.94427868 21.5108312 14 22 C13.34 21.67 12.68 21.34 12 21 C12 20.34 12 19.68 12 19 C9.36 18.67 6.72 18.34 4 18 C4 16.68 4 15.36 4 14 C3.34 14 2.68 14 2 14 C2 12.02 2 10.04 2 8 C1.01 7.67 0.02 7.34 -1 7 C-0.67 4.69 -0.34 2.38 0 0 Z " fill="#915001" transform="translate(314,126)"/>
<path d="M0 0 C2.5 1.625 2.5 1.625 4 4 C4.63656938 7.73984509 4.25584708 9.50962644 2.5 12.875 C-0.14471103 15.12300438 -0.76495861 15.36639795 -4.0625 15.5 C-8 15 -8 15 -9.9375 13.625 C-12.12556871 10.27854198 -12.40075527 8.00755272 -12 4 C-9.04906701 -0.67231057 -5.10537385 -1.0252595 0 0 Z " fill="#0D0702" transform="translate(118,304)"/>
<path d="M0 0 C3.66429424 0.93956262 5.1724973 2.64813931 7.4375 5.625 C8.0625 8.625 8.0625 8.625 7.4375 11.625 C4.98603142 14.94169279 3.48125441 16.38580628 -0.5625 17.3125 C-4.88725043 16.32141136 -6.20993715 14.29223032 -8.5625 10.625 C-9.25 8.0625 -9.25 8.0625 -8.5625 5.625 C-5.85919177 2.79595651 -3.84189595 0.93704779 0 0 Z " fill="#0E0701" transform="translate(61.5625,214.375)"/>
<path d="M0 0 C2 1 2 1 3 3 C3.75471698 9.79245283 3.75471698 9.79245283 1.4375 13.5 C-1.91034349 15.56021138 -4.14014247 15.49125459 -8 15 C-10.10358381 13.45737187 -10.84054159 12.31891683 -12 10 C-12.56949153 3.73559322 -12.56949153 3.73559322 -10.5 1.0625 C-6.74515828 -0.53330773 -4.08109691 -0.3886759 0 0 Z " fill="#0A0501" transform="translate(105,69)"/>
<path d="M0 0 C31.60003883 -0.62469663 31.60003883 -0.62469663 45 3 C46.12994385 3.29729004 46.12994385 3.29729004 47.28271484 3.60058594 C52.241115 4.91708176 57.17724053 6.24574295 62 8 C62.495 8.99 62.495 8.99 63 10 C56.03607007 9.43082815 49.28208262 8.38802704 42.4375 7 C37.26911301 5.95649246 32.15962264 4.96898641 26.91015625 4.4375 C23 4 23 4 22 3 C20.36743242 2.84285346 18.72864662 2.74914586 17.08984375 2.68359375 C16.10048828 2.64169922 15.11113281 2.59980469 14.09179688 2.55664062 C13.05087891 2.51732422 12.00996094 2.47800781 10.9375 2.4375 C9.37032227 2.37272461 9.37032227 2.37272461 7.77148438 2.30664062 C5.18113116 2.20018775 2.59067814 2.0981724 0 2 C0 1.34 0 0.68 0 0 Z " fill="#D48711" transform="translate(235,118)"/>
<path d="M0 0 C0.33 0 0.66 0 1 0 C1.33 1.65 1.66 3.3 2 5 C2.33 5 2.66 5 3 5 C3.07476562 5.6084375 3.14953125 6.216875 3.2265625 6.84375 C4.26507581 13.76717206 6.29426286 19.90599529 8.96728516 26.33984375 C10.60283808 30.39690401 11.31175795 33.62861132 11 38 C9.68 38 8.36 38 7 38 C6.20558928 36.12616097 5.41460026 34.25087114 4.625 32.375 C4.18414062 31.33085937 3.74328125 30.28671875 3.2890625 29.2109375 C2.65097656 27.62152344 2.65097656 27.62152344 2 26 C1.6184375 25.0925 1.236875 24.185 0.84375 23.25 C-0.34227477 18.68160829 -0.21209661 14.32151744 -0.125 9.625 C-0.11597656 8.69816406 -0.10695313 7.77132813 -0.09765625 6.81640625 C-0.07422937 4.54399923 -0.04142748 2.2721382 0 0 Z " fill="#E8830B" transform="translate(290,252)"/>
<path d="M0 0 C6.33756589 -0.01040651 6.33756589 -0.01040651 9.06640625 1.99609375 C10.30698529 5.4519925 9.79073592 7.90560898 8.94140625 11.43359375 C6.94140625 13.43359375 6.94140625 13.43359375 3.00390625 13.74609375 C0.50348731 13.66441037 -0.83065176 13.55468793 -3.05859375 12.37109375 C-4.62506194 9.33606162 -4.35758155 6.78225707 -4.05859375 3.43359375 C-2.05859375 0.43359375 -2.05859375 0.43359375 0 0 Z " fill="#EE8109" transform="translate(311.05859375,302.56640625)"/>
<path d="M0 0 C0.33 0 0.66 0 1 0 C3 5.625 3 5.625 3 9 C1.04108459 10.76302387 -0.92988039 12.37723674 -3 14 C-9.19102874 19.13462304 -14.36440274 24.55908136 -19.25 30.9375 C-20.11625 31.9584375 -20.11625 31.9584375 -21 33 C-21.66 33 -22.32 33 -23 33 C-22.474795 29.12092029 -21.60647563 27.09146858 -18.91015625 24.265625 C-18.29076172 23.60949219 -17.67136719 22.95335937 -17.03320312 22.27734375 C-16.38287109 21.60832031 -15.73253906 20.93929687 -15.0625 20.25 C-14.41603516 19.56550781 -13.76957031 18.88101563 -13.10351562 18.17578125 C-8.32218247 13.16109124 -8.32218247 13.16109124 -6 12 C-6.3403125 10.8553125 -6.3403125 10.8553125 -6.6875 9.6875 C-7 7 -7 7 -5.75 5.1875 C-4 4 -4 4 -1 4 C-0.67 2.68 -0.34 1.36 0 0 Z " fill="#E9810C" transform="translate(310,178)"/>
<path d="M0 0 C-2.79425251 4.19137877 -5.39270825 4.14797473 -10.16015625 5.234375 C-14.72156316 6.14387221 -19.28767974 6.98242526 -23.875 7.75 C-24.68316162 7.88986328 -25.49132324 8.02972656 -26.32397461 8.17382812 C-30.82379983 8.88641315 -34.49532075 9.07185294 -39 8 C-39 7.34 -39 6.68 -39 6 C-39.66 5.67 -40.32 5.34 -41 5 C-30.97316818 3.17380726 -21.12989795 1.67255201 -10.94140625 1.2109375 C-7.11425122 0.93648017 -3.90119677 -0.10543775 0 0 Z " fill="#C28106" transform="translate(335,153)"/>
<path d="M0 0 C0.99 0.66 1.98 1.32 3 2 C3.5 4.8125 3.5 4.8125 3 8 C0.8125 10.9375 0.8125 10.9375 -2 13 C-4.91188084 13 -6.36516749 12.39403397 -8.8125 10.875 C-10.70271646 7.89044769 -10.36799239 5.43459566 -10 2 C-7.70403968 -2.32180767 -4.21180205 -0.97773976 0 0 Z " fill="#ED840B" transform="translate(244,151)"/>
<path d="M0 0 C3.5625 0.1875 3.5625 0.1875 6.5625 1.1875 C6.99339173 5.58259566 7.02301828 7.55593207 4.375 11.1875 C1.5625 13.1875 1.5625 13.1875 -1.0625 13.3125 C-4.23753023 11.80853831 -5.11528075 10.41959149 -6.4375 7.1875 C-6.09890133 2.33425237 -5.11662488 0.27908863 0 0 Z " fill="#ED870B" transform="translate(254.4375,227.8125)"/>
<path d="M0 0 C6.625 0.75 6.625 0.75 10 3 C10.51493064 6.97232205 10.58122939 9.13891941 8.3125 12.5 C6 14 6 14 3.4375 13.9375 C-0.45423729 12.44067797 -0.45423729 12.44067797 -2 10 C-2.38991688 5.63293092 -2.46324069 3.69486103 0 0 Z " fill="#EA7B09" transform="translate(250,288)"/>
<path d="M0 0 C1.9375 1.5625 1.9375 1.5625 3 4 C2.93643712 6.77028236 2.50303576 9.2561686 2 12 C-5.25581395 12.48372093 -5.25581395 12.48372093 -8.5 10.375 C-10.44405832 7.29690766 -10.608676 5.57597151 -10 2 C-6.96825255 -1.6147758 -4.31435792 -1.37692274 0 0 Z " fill="#EB8E10" transform="translate(218,48)"/>
<path d="M0 0 C3.5625 0.3125 3.5625 0.3125 5.5 1.5625 C6.5625 3.3125 6.5625 3.3125 6.5625 7.3125 C7.2225 7.6425 7.8825 7.9725 8.5625 8.3125 C6.83752636 10.61246485 5.51614066 12.13021456 2.62109375 12.68359375 C-0.36197799 12.77698642 -2.82465327 12.62820892 -5.5 11.25 C-7.02049975 8.10763385 -6.21822633 5.61557292 -5.4375 2.3125 C-3.4375 0.3125 -3.4375 0.3125 0 0 Z " fill="#F09410" transform="translate(160.4375,46.6875)"/>
<path d="M0 0 C0.33 0 0.66 0 1 0 C1.33 4.62 1.66 9.24 2 14 C2.66 13.34 3.32 12.68 4 12 C4.99 20.58 5.98 29.16 7 38 C6.34 38 5.68 38 5 38 C5 39.32 5 40.64 5 42 C4.34 42 3.68 42 3 42 C0.25409191 31.93167035 -0.14065707 22.35643881 -0.0625 11.9375 C-0.05798828 10.78572266 -0.05347656 9.63394531 -0.04882812 8.44726562 C-0.03714426 5.63145482 -0.02076281 2.81575602 0 0 Z " fill="#D4680C" transform="translate(167,241)"/>
<path d="M0 0 C8.7613853 5.35417991 16.67869716 11.4571229 21 21 C21.3125 23.875 21.3125 23.875 21 26 C20 27 20 27 17.71484375 27.09765625 C16.34005859 27.08025391 16.34005859 27.08025391 14.9375 27.0625 C14.01839844 27.05347656 13.09929687 27.04445312 12.15234375 27.03515625 C11.44207031 27.02355469 10.73179687 27.01195312 10 27 C11.32 26.67 12.64 26.34 14 26 C14 25.01 14 24.02 14 23 C10.37 22.67 6.74 22.34 3 22 C3 21.34 3 20.68 3 20 C4.58294782 19.94562393 6.16644256 19.90703729 7.75 19.875 C8.63171875 19.85179688 9.5134375 19.82859375 10.421875 19.8046875 C13.1135858 20.00860498 14.69904974 20.63448279 17 22 C17.44251332 18.15827851 17.44251332 18.15827851 15.64453125 16.47265625 C14.73767578 15.77462891 14.73767578 15.77462891 13.8125 15.0625 C10.66195271 12.54586564 7.85359109 9.85359109 5 7 C4.071875 6.29875 3.14375 5.5975 2.1875 4.875 C1.1046875 3.946875 1.1046875 3.946875 0 3 C0 2.01 0 1.02 0 0 Z " fill="#DBB53F" transform="translate(369,101)"/>
<path d="M0 0 C4.84659077 0.59104765 8.60748167 1.97944157 13 4 C13 7.3 13 10.6 13 14 C14.2065625 14.433125 14.2065625 14.433125 15.4375 14.875 C18 16 18 16 19 18 C17.68 18 16.36 18 15 18 C15 17.34 15 16.68 15 16 C11.37 15.34 7.74 14.68 4 14 C3.83723958 11.23307292 3.67447917 8.46614583 3.51171875 5.69921875 C2.95377187 2.75615543 2.31459868 1.81817001 0 0 Z " fill="#5B2E01" transform="translate(344,120)"/>
<path d="M0 0 C14.86708414 0.05516543 31.26233567 4.24066809 44 12 C44 12.66 44 13.32 44 14 C42.58328265 13.57569002 41.16663064 13.15116189 39.75 12.7265625 C38.83476562 12.45231445 37.91953125 12.17806641 36.9765625 11.89550781 C35.01200724 11.30446543 33.048439 10.71013105 31.0859375 10.11230469 C28.05986742 9.19110987 25.03019619 8.28252069 22 7.375 C20.98421875 7.06304687 19.9684375 6.75109375 18.921875 6.4296875 C12.60270049 4.55013816 6.58624087 3.37339031 0 3 C0 2.01 0 1.02 0 0 Z " fill="#D07B0A" transform="translate(249,104)"/>
<path d="M0 0 C0 0.99 0 1.98 0 3 C1.32 3.33 2.64 3.66 4 4 C2.40285156 4.25523437 2.40285156 4.25523437 0.7734375 4.515625 C-8.71869055 6.08318277 -17.80287941 8.12863271 -27 11 C-27 10.34 -27 9.68 -27 9 C-27.99 8.67 -28.98 8.34 -30 8 C-20.65211248 3.59587422 -10.47024069 0 0 0 Z " fill="#CF6E08" transform="translate(238,135)"/>
<path d="M0 0 C0.66 0 1.32 0 2 0 C9.00619942 8.64547044 9.43543298 18.28808363 10 29 C10.99 29.33 11.98 29.66 13 30 C10.51545911 34.78504172 8.52048157 37.86077669 4 41 C3.34 40.67 2.68 40.34 2 40 C2.375 37.5625 2.375 37.5625 3 35 C3.99 34.505 3.99 34.505 5 34 C8.27026656 22.32347132 5.73996475 10.38660289 0 0 Z " fill="#FBDC42" transform="translate(423,158)"/>
<path d="M0 0 C1.15177734 0.00451172 2.30355469 0.00902344 3.49023438 0.01367188 C6.30604518 0.02535574 9.12174398 0.04173719 11.9375 0.0625 C11.9375 0.3925 11.9375 0.7225 11.9375 1.0625 C5.9975 1.0625 0.0575 1.0625 -6.0625 1.0625 C-6.0625 1.7225 -6.0625 2.3825 -6.0625 3.0625 C1.1975 3.0625 8.4575 3.0625 15.9375 3.0625 C16.4325 4.0525 16.4325 4.0525 16.9375 5.0625 C-1.8725 5.5575 -1.8725 5.5575 -21.0625 6.0625 C-20.7325 5.0725 -20.4025 4.0825 -20.0625 3.0625 C-17.7525 3.0625 -15.4425 3.0625 -13.0625 3.0625 C-16.0325 2.7325 -19.0025 2.4025 -22.0625 2.0625 C-22.0625 1.7325 -22.0625 1.4025 -22.0625 1.0625 C-14.67593587 0.06770292 -7.44694355 -0.05586282 0 0 Z " fill="#B2680D" transform="translate(241.0625,116.9375)"/>
<path d="M0 0 C3.95181381 1.06394987 6.77754099 2.72207542 10.25 4.875 C10.25 5.535 10.25 6.195 10.25 6.875 C5.96193426 7.49871865 2.01619438 7.90319096 -2.3125 7.6875 C-7.15127862 7.58721443 -9.70178893 9.36510914 -13.75 11.875 C-14.74 11.545 -15.73 11.215 -16.75 10.875 C-14.98055495 9.41498252 -13.20939429 7.95704407 -11.4375 6.5 C-10.45136719 5.68789062 -9.46523438 4.87578125 -8.44921875 4.0390625 C-3.228298 -0.14674082 -3.228298 -0.14674082 0 0 Z " fill="#CD6C04" transform="translate(388.75,141.125)"/>
<path d="M0 0 C1.875 1.1875 1.875 1.1875 3 3 C3.42822025 5.85480169 3.40659584 7.34492892 1.875 9.8125 C-0.84476654 11.53501881 -2.84586249 11.32855599 -6 11 C-6.99 10.34 -7.98 9.68 -9 9 C-9.39964378 5.8694571 -9.52149743 3.86916239 -7.875 1.125 C-5.11909116 -0.52854531 -3.14924548 -0.39365568 0 0 Z " fill="#FEFCF3" transform="translate(334,127)"/>
<path d="M0 0 C3.12498063 -0.02895976 6.2499269 -0.04678483 9.375 -0.0625 C10.70917969 -0.07506836 10.70917969 -0.07506836 12.0703125 -0.08789062 C13.34648437 -0.09272461 13.34648437 -0.09272461 14.6484375 -0.09765625 C15.43395996 -0.10289307 16.21948242 -0.10812988 17.02880859 -0.11352539 C19 0 19 0 21 1 C20.67 1.66 20.34 2.32 20 3 C18.948125 2.979375 17.89625 2.95875 16.8125 2.9375 C13.67295096 2.98896802 11.03116604 3.26517187 8 4 C10.35354878 11.65983157 10.35354878 11.65983157 16 17 C11.80632815 16.8049455 10.27622961 16.26395274 7.1875 13.3125 C4.95428143 9.93076902 4.62054073 7.90054174 4 4 C2.04836882 2.56362302 2.04836882 2.56362302 0 2 C0 1.34 0 0.68 0 0 Z " fill="#F5BD23" transform="translate(313,123)"/>
<path d="M0 0 C3.01609665 0.89841177 3.89207053 1.62927625 5.9375 3.875 C5.23882812 4.28492187 4.54015625 4.69484375 3.8203125 5.1171875 C2.91023438 5.65601562 2.00015625 6.19484375 1.0625 6.75 C-0.29488281 7.55050781 -0.29488281 7.55050781 -1.6796875 8.3671875 C-4.12853282 9.79475352 -4.12853282 9.79475352 -6.0625 11.875 C-8.0625 11.6875 -8.0625 11.6875 -10.0625 10.875 C-10.7225 9.885 -11.3825 8.895 -12.0625 7.875 C-4.23226127 -0.17274536 -4.23226127 -0.17274536 0 0 Z " fill="#391A01" transform="translate(321.0625,110.125)"/>
<path d="M0 0 C1.32 0.33 2.64 0.66 4 1 C4 1.66 4 2.32 4 3 C2.68 3 1.36 3 0 3 C-0.103125 3.598125 -0.20625 4.19625 -0.3125 4.8125 C-1.13380325 7.42573762 -1.82068885 8.34672947 -4 10 C-9.1950734 12.47384447 -13.50778129 11.90316485 -19 11 C-19.33 9.35 -19.66 7.7 -20 6 C-18.93072266 6.05220703 -18.93072266 6.05220703 -17.83984375 6.10546875 C-11.71930306 6.27845846 -7.35147896 6.07425387 -2 3 C-1.34 2.01 -0.68 1.02 0 0 Z " fill="#C67C0A" transform="translate(344,133)"/>
<path d="M0 0 C10.7358584 2.26551973 21.07074873 5.57685644 31.4375 9.125 C32.42899551 9.46032745 32.42899551 9.46032745 33.44052124 9.8024292 C35.33692868 10.44578647 37.22911008 11.10155983 39.12109375 11.7578125 C40.2289624 12.1408252 41.33683105 12.52383789 42.47827148 12.91845703 C45 14 45 14 46 16 C41.20566901 15.21057201 36.72428204 13.64352671 32.125 12.125 C24.87504342 9.77319162 17.77127888 8.02168185 10.26953125 6.65625 C6.00845709 5.80098063 2.07364219 4.50081554 -2 3 C-1.34 2.67 -0.68 2.34 0 2 C0 1.34 0 0.68 0 0 Z " fill="#4F2E08" transform="translate(276,81)"/>
<path d="M0 0 C1.46366342 0.39753821 2.9208935 0.81881384 4.375 1.25 C5.18710937 1.48203125 5.99921875 1.7140625 6.8359375 1.953125 C9 3 9 3 10.28125 4.75 C11.16596325 7.51953713 11.19411359 9.8472294 11.125 12.75 C11.10695313 13.73484375 11.08890625 14.7196875 11.0703125 15.734375 C11.03550781 16.85585937 11.03550781 16.85585937 11 18 C9.35 17.67 7.7 17.34 6 17 C5.87882812 16.28972656 5.75765625 15.57945312 5.6328125 14.84765625 C5.46523438 13.92855469 5.29765625 13.00945312 5.125 12.0625 C4.88136719 10.68771484 4.88136719 10.68771484 4.6328125 9.28515625 C4.42398437 8.53105469 4.21515625 7.77695313 4 7 C3.34 6.67 2.68 6.34 2 6 C2 5.34 2 4.68 2 4 C1.01 4 0.02 4 -1 4 C-0.67 2.68 -0.34 1.36 0 0 Z " fill="#955303" transform="translate(337,116)"/>
<path d="M0 0 C1.65 0 3.3 0 5 0 C4.814375 0.515625 4.62875 1.03125 4.4375 1.5625 C3.84580483 4.85908739 4.432733 7.72245735 5 11 C-3.261959 16.55580866 -3.261959 16.55580866 -8 17 C-8.33 16.01 -8.66 15.02 -9 14 C-8.43410156 13.57589844 -7.86820312 13.15179688 -7.28515625 12.71484375 C-2.16744103 8.83169676 -2.16744103 8.83169676 0 3.0625 C0 2.051875 0 1.04125 0 0 Z " fill="#482401" transform="translate(350,137)"/>
<path d="M0 0 C3 1 3 1 4.0625 2.9609375 C4.371875 3.75757813 4.68125 4.55421875 5 5.375 C6.2811996 8.65273565 7.49557536 10.56308007 10 13 C11.1875 16.1875 11.1875 16.1875 12 19 C9.36 18.67 6.72 18.34 4 18 C4 16.68 4 15.36 4 14 C3.34 14 2.68 14 2 14 C2 12.02 2 10.04 2 8 C1.01 7.67 0.02 7.34 -1 7 C-0.67 4.69 -0.34 2.38 0 0 Z " fill="#A86305" transform="translate(314,126)"/>
<path d="M0 0 C2.4375 0.8125 2.4375 0.8125 4.4375 2.8125 C4.6875 5.3125 4.6875 5.3125 4.4375 7.8125 C2.4375 9.8125 2.4375 9.8125 -1.1875 9.9375 C-2.30125 9.89625 -3.415 9.855 -4.5625 9.8125 C-5.89328101 3.40055513 -5.89328101 3.40055513 -4.4375 0.8125 C-2.5625 -0.1875 -2.5625 -0.1875 0 0 Z " fill="#E7850A" transform="translate(225.5625,328.1875)"/>
<path d="M0 0 C0.66 0 1.32 0 2 0 C1.76110725 1.63812169 1.52191546 3.27620031 1.28125 4.9140625 C1.08857247 6.34308754 0.92322382 7.7759878 0.78125 9.2109375 C0.58542105 11.14824535 0.29857541 13.07584735 0 15 C-0.99 15.495 -0.99 15.495 -2 16 C-2 15.34 -2 14.68 -2 14 C-4.97 14 -7.94 14 -11 14 C-10.34 13.34 -9.68 12.68 -9 12 C-7.68 12 -6.36 12 -5 12 C-5 11.34 -5 10.68 -5 10 C-5.99 10 -6.98 10 -8 10 C-8.33 8.68 -8.66 7.36 -9 6 C-8.071875 5.938125 -7.14375 5.87625 -6.1875 5.8125 C-2.80803511 5.32499092 -2.80803511 5.32499092 -1.25 2.4375 C-0.8375 1.633125 -0.425 0.82875 0 0 Z " fill="#472402" transform="translate(307,121)"/>
<path d="M0 0 C2.31 0.33 4.62 0.66 7 1 C6.01 1.33 5.02 1.66 4 2 C3.34 8.27 2.68 14.54 2 21 C1.34 19.68 0.68 18.36 0 17 C-0.99 17 -1.98 17 -3 17 C-2.36934845 11.2190275 -1.34844868 5.6556294 0 0 Z " fill="#D16B0A" transform="translate(138,220)"/>
<path d="M0 0 C5.96787988 -0.63631676 10.10839477 1.55133899 15.3125 4.125 C16.15466064 4.53226318 16.99682129 4.93952637 17.86450195 5.35913086 C23.54133908 8.15104504 28.96403785 11.14363259 34 15 C31 16 31 16 28.99462891 15.22729492 C28.24616699 14.81584229 27.49770508 14.40438965 26.7265625 13.98046875 C25.4890625 13.31241211 25.4890625 13.31241211 24.2265625 12.63085938 C22.93878906 11.91639648 22.93878906 11.91639648 21.625 11.1875 C19.9308738 10.26214773 18.23559337 9.3389049 16.5390625 8.41796875 C15.78834473 8.00313232 15.03762695 7.5882959 14.26416016 7.16088867 C9.51926762 4.7280696 5.30904693 3.62459376 0 3 C0 2.01 0 1.02 0 0 Z " fill="#E6C037" transform="translate(389,129)"/>
<path d="M0 0 C1 3 1 3 -0.4375 6.1875 C-1.2109375 7.5796875 -1.2109375 7.5796875 -2 9 C-3.95825873 9.02694851 -5.91662226 9.04637218 -7.875 9.0625 C-8.96554688 9.07410156 -10.05609375 9.08570312 -11.1796875 9.09765625 C-14 9 -14 9 -16 8 C-16 6.68 -16 5.36 -16 4 C-14.64455078 3.94392578 -14.64455078 3.94392578 -13.26171875 3.88671875 C-12.08222656 3.82097656 -10.90273437 3.75523438 -9.6875 3.6875 C-8.51574219 3.62949219 -7.34398437 3.57148437 -6.13671875 3.51171875 C-2.9016314 2.98395232 -1.91315119 2.57619276 0 0 Z " fill="#B7650A" transform="translate(231,97)"/>
<path d="M0 0 C6.33497324 -0.80511366 11.10612042 2.03629678 16.625 4.75 C17.56601562 5.1934375 18.50703125 5.636875 19.4765625 6.09375 C24.05288193 8.30390427 27.51285667 10.23168385 31 14 C30.01 14.495 30.01 14.495 29 15 C26.97216797 14.15136719 26.97216797 14.15136719 24.4921875 12.796875 C23.58726562 12.31089844 22.68234375 11.82492188 21.75 11.32421875 C20.80125 10.80472656 19.8525 10.28523437 18.875 9.75 C12.68464658 6.3789301 6.6749684 3.29304797 0 1 C0 0.67 0 0.34 0 0 Z " fill="#FDE767" transform="translate(390,132)"/>
<path d="M0 0 C2.9375 0.1875 2.9375 0.1875 3.9375 1.1875 C4.125 4.125 4.125 4.125 3.9375 7.1875 C1.9375 9.1875 1.9375 9.1875 -1.1875 9.3125 C-2.610625 9.250625 -2.610625 9.250625 -4.0625 9.1875 C-4.6875 5.8125 -4.6875 5.8125 -5.0625 2.1875 C-3.0625 0.1875 -3.0625 0.1875 0 0 Z " fill="#F19109" transform="translate(192.0625,357.8125)"/>
<path d="M0 0 C-1.42268345 3.28088223 -3.1517788 5.3129088 -5.75 7.75 C-9.20978475 11.09655543 -12.04708313 14.5711822 -14.7734375 18.53125 C-15.38058594 19.25828125 -15.38058594 19.25828125 -16 20 C-16.66 20 -17.32 20 -18 20 C-17.47257181 16.13594274 -16.60098522 14.0752887 -13.9453125 11.23046875 C-13.33042969 10.56982422 -12.71554687 9.90917969 -12.08203125 9.22851562 C-11.43621094 8.55498047 -10.79039062 7.88144531 -10.125 7.1875 C-9.48691406 6.49462891 -8.84882813 5.80175781 -8.19140625 5.08789062 C-3.38923953 0 -3.38923953 0 0 0 Z " fill="#C4740B" transform="translate(305,191)"/>
<path d="M0 0 C-2.71645699 1.81097133 -5.09753654 2.9469801 -8.10546875 4.1640625 C-9.08837891 4.56367188 -10.07128906 4.96328125 -11.08398438 5.375 C-12.10814453 5.7875 -13.13230469 6.2 -14.1875 6.625 C-15.22326172 7.04523438 -16.25902344 7.46546875 -17.32617188 7.8984375 C-19.88292325 8.93527677 -22.44088785 9.96900446 -25 11 C-25 10.34 -25 9.68 -25 9 C-25.66 8.67 -26.32 8.34 -27 8 C-23.82073979 6.64639565 -20.63046346 5.3209185 -17.4375 4 C-16.54224609 3.6184375 -15.64699219 3.236875 -14.72460938 2.84375 C-9.55384936 0.72241256 -5.59439553 -0.49114035 0 0 Z " fill="#BE6606" transform="translate(307,168)"/>
<path d="M0 0 C0.33 1.32 0.66 2.64 1 4 C-0.26831693 4.81642254 -1.53975931 5.62799105 -2.8125 6.4375 C-3.87404297 7.11619141 -3.87404297 7.11619141 -4.95703125 7.80859375 C-7 9 -7 9 -10 10 C-10.66 8.35 -11.32 6.7 -12 5 C-4.88610478 -0.74031891 -4.88610478 -0.74031891 0 0 Z " fill="#E68607" transform="translate(141,120)"/>
<path d="M0 0 C1.18239258 0.00676758 1.18239258 0.00676758 2.38867188 0.01367188 C4.32164761 0.02538688 6.25458393 0.04332002 8.1875 0.0625 C8.5175 0.7225 8.8475 1.3825 9.1875 2.0625 C1.45690505 3.41959504 -5.95703364 4.38168373 -13.8125 4.0625 C-13.8125 3.0725 -13.8125 2.0825 -13.8125 1.0625 C-9.18790756 -0.11450048 -4.73383538 -0.05158412 0 0 Z " fill="#E68006" transform="translate(251.8125,133.9375)"/>
<path d="M0 0 C2.9375 0.1875 2.9375 0.1875 3.9375 1.1875 C4.0625 4.1875 4.0625 4.1875 3.9375 7.1875 C2.9375 8.1875 2.9375 8.1875 -0.5625 8.3125 C-4.0625 8.1875 -4.0625 8.1875 -5.0625 7.1875 C-5.25 4.75 -5.25 4.75 -5.0625 2.1875 C-3.0625 0.1875 -3.0625 0.1875 0 0 Z " fill="#E87E0B" transform="translate(39.0625,167.8125)"/>
<path d="M0 0 C1.24007813 -0.02578125 2.48015625 -0.0515625 3.7578125 -0.078125 C4.78648437 0.03015625 5.81515625 0.1384375 6.875 0.25 C7.535 1.24 8.195 2.23 8.875 3.25 C6.25083048 3.61164523 3.62599687 3.96461153 1 4.3125 C0.25363281 4.41626953 -0.49273437 4.52003906 -1.26171875 4.62695312 C-6.8984375 5.36328125 -6.8984375 5.36328125 -9.125 4.25 C-9.125 3.59 -9.125 2.93 -9.125 2.25 C-9.785 1.92 -10.445 1.59 -11.125 1.25 C-7.42301879 0.09661892 -3.86072068 0.04835976 0 0 Z " fill="#D17508" transform="translate(305.125,156.75)"/>
<path d="M0 0 C2.3984728 0.76328757 4.79353649 1.53529696 7.1875 2.3125 C7.86103516 2.52583984 8.53457031 2.73917969 9.22851562 2.95898438 C13.12699966 4.23312306 16.64227371 5.56809339 20 8 C20 8.66 20 9.32 20 10 C12.3194457 7.71143755 4.65750046 5.36446331 -3 3 C-2.01 2.67 -1.02 2.34 0 2 C0 1.34 0 0.68 0 0 Z " fill="#D37808" transform="translate(273,108)"/>
<path d="M0 0 C6.76532673 1.78529455 11.65460165 4.49937851 17 9 C13.45332822 10.25127906 11.27746562 9.72285053 7.75 8.5625 C6.85796875 8.27503906 5.9659375 7.98757812 5.046875 7.69140625 C4.37140625 7.46324219 3.6959375 7.23507813 3 7 C3 5.35 3 3.7 3 2 C2.01 2 1.02 2 0 2 C0 1.34 0 0.68 0 0 Z " fill="#E0A71C" transform="translate(401,175)"/>
<path d="M0 0 C0.33 0 0.66 0 1 0 C1.33 2.97 1.66 5.94 2 9 C2.33 7.35 2.66 5.7 3 4 C3.33 4 3.66 4 4 4 C4 8.95 4 13.9 4 19 C3.67 19 3.34 19 3 19 C2.67 21.97 2.34 24.94 2 28 C1.67 28 1.34 28 1 28 C0.18101378 24.42649959 -0.11811958 21.14340521 -0.09765625 17.48046875 C-0.09443359 16.45888672 -0.09121094 15.43730469 -0.08789062 14.38476562 C-0.07951172 13.32966797 -0.07113281 12.27457031 -0.0625 11.1875 C-0.05798828 10.11306641 -0.05347656 9.03863281 -0.04882812 7.93164062 C-0.03707729 5.28770317 -0.02064787 2.64388048 0 0 Z " fill="#B25B0E" transform="translate(288,239)"/>
<path d="M0 0 C0.66 0 1.32 0 2 0 C3.21875 1.50390625 3.21875 1.50390625 4.5 3.5625 C4.9228125 4.22378906 5.345625 4.88507813 5.78125 5.56640625 C8.65610544 11.30690286 9.23755478 16.57815473 9.125 22.9375 C9.11146484 23.96327148 9.11146484 23.96327148 9.09765625 25.00976562 C9.07438958 26.67333287 9.03853167 28.33671631 9 30 C8.34 30 7.68 30 7 30 C6.94392578 28.65808594 6.94392578 28.65808594 6.88671875 27.2890625 C6.34221313 17.27442971 4.8866537 8.84251622 0 0 Z " fill="#FCE24C" transform="translate(423,158)"/>
<path d="M0 0 C10.56 0 21.12 0 32 0 C32 0.66 32 1.32 32 2 C24.41 2.33 16.82 2.66 9 3 C9 2.67 9 2.34 9 2 C6.03 1.67 3.06 1.34 0 1 C0 0.67 0 0.34 0 0 Z " fill="#C27109" transform="translate(268,147)"/>
<path d="M0 0 C1.23556641 0.01740234 1.23556641 0.01740234 2.49609375 0.03515625 C3.32238281 0.04417969 4.14867187 0.05320312 5 0.0625 C5.63808594 0.07410156 6.27617187 0.08570312 6.93359375 0.09765625 C6.97631475 1.7637753 6.97423207 3.4314851 6.93359375 5.09765625 C5.93359375 6.09765625 5.93359375 6.09765625 4.0859375 6.1953125 C2.03515625 6.16276042 -0.015625 6.13020833 -2.06640625 6.09765625 C-2.44859392 4.44150968 -2.78035727 2.77308601 -3.06640625 1.09765625 C-2.06640625 0.09765625 -2.06640625 0.09765625 0 0 Z " fill="#D4870B" transform="translate(202.06640625,100.90234375)"/>
<path d="M0 0 C3.93748458 -0.02898816 7.87494179 -0.04679464 11.8125 -0.0625 C12.93205078 -0.07087891 14.05160156 -0.07925781 15.20507812 -0.08789062 C16.81479492 -0.09272461 16.81479492 -0.09272461 18.45703125 -0.09765625 C19.9416687 -0.10551147 19.9416687 -0.10551147 21.45629883 -0.11352539 C24 0 24 0 27 1 C27 1.66 27 2.32 27 3 C18.09 2.67 9.18 2.34 0 2 C0 1.34 0 0.68 0 0 Z " fill="#F49912" transform="translate(235,118)"/>
<path d="M0 0 C0.66 0.33 1.32 0.66 2 1 C1.67 1.66 1.34 2.32 1 3 C0.05125 2.95875 -0.8975 2.9175 -1.875 2.875 C-5.10244856 2.65026182 -5.10244856 2.65026182 -7 5 C-7.39764263 6.98821313 -7.73775349 8.98944339 -8 11 C-11.93846154 7.67692308 -11.93846154 7.67692308 -12.25 4.25 C-12.1675 3.5075 -12.085 2.765 -12 2 C-7.8780636 0.00148538 -4.55547083 -0.25785684 0 0 Z " fill="#FBF6C7" transform="translate(333,125)"/>
<path d="M0 0 C1.2065625 0.0309375 1.2065625 0.0309375 2.4375 0.0625 C2.4375 1.0525 2.4375 2.0425 2.4375 3.0625 C3.4275 3.0625 4.4175 3.0625 5.4375 3.0625 C5.7675 3.7225 6.0975 4.3825 6.4375 5.0625 C7.4275 5.3925 8.4175 5.7225 9.4375 6.0625 C9.4375 7.7125 9.4375 9.3625 9.4375 11.0625 C6.5 9.8125 6.5 9.8125 3.4375 8.0625 C3.1075 6.7425 2.7775 5.4225 2.4375 4.0625 C-0.8625 3.7325 -4.1625 3.4025 -7.5625 3.0625 C-6.2425 2.4025 -4.9225 1.7425 -3.5625 1.0625 C-2.5625 0.0625 -2.5625 0.0625 0 0 Z " fill="#C37A0D" transform="translate(331.5625,119.9375)"/>
<path d="M0 0 C1.36511719 0.29197266 1.36511719 0.29197266 2.7578125 0.58984375 C3.45648438 0.74582031 4.15515625 0.90179688 4.875 1.0625 C4.875 1.7225 4.875 2.3825 4.875 3.0625 C5.865 3.3925 6.855 3.7225 7.875 4.0625 C8.205 7.0325 8.535 10.0025 8.875 13.0625 C8.215 13.0625 7.555 13.0625 6.875 13.0625 C6.875 11.0825 6.875 9.1025 6.875 7.0625 C5.555 6.7325 4.235 6.4025 2.875 6.0625 C2.875 5.4025 2.875 4.7425 2.875 4.0625 C1.885 4.0625 0.895 4.0625 -0.125 4.0625 C-0.125 3.0725 -0.125 2.0825 -0.125 1.0625 C-2.765 1.7225 -5.405 2.3825 -8.125 3.0625 C-7.795 2.0725 -7.465 1.0825 -7.125 0.0625 C-4.4030754 -1.2984623 -2.9418043 -0.64116248 0 0 Z " fill="#AD6509" transform="translate(334.125,118.9375)"/>
<path d="M0 0 C5.39026228 0.52895097 9.24229489 2.46333696 13.875 5.0625 C14.56335938 5.43955078 15.25171875 5.81660156 15.9609375 6.20507812 C17.6449213 7.12893035 19.32307467 8.06339667 21 9 C21 9.33 21 9.66 21 10 C16.65873643 10.37210831 14.60340032 9.34221021 11 7 C9.33927151 6.31867549 7.672233 5.65257873 6 5 C3.99248185 4.01517978 1.99065541 3.01847486 0 2 C0 1.34 0 0.68 0 0 Z " fill="#F0C847" transform="translate(345,90)"/>
<path d="M0 0 C0.33 1.65 0.66 3.3 1 5 C-2.22791555 7.1519437 -3.28400809 7.20086443 -7 7 C-7.33 5.35 -7.66 3.7 -8 2 C-4.77208445 -0.1519437 -3.71599191 -0.20086443 0 0 Z " fill="#DB8B09" transform="translate(167,109)"/>
<path d="M0 0 C-3.14487493 2.58410205 -6.30705841 4.13785682 -10.0625 5.6875 C-11.62677734 6.34298828 -11.62677734 6.34298828 -13.22265625 7.01171875 C-16 8 -16 8 -19 8 C-18 5 -18 5 -15.48828125 3.61328125 C-14.44027344 3.18402344 -13.39226562 2.75476563 -12.3125 2.3125 C-11.27738281 1.87550781 -10.24226563 1.43851563 -9.17578125 0.98828125 C-5.92738615 -0.02259693 -3.37841498 -0.18740833 0 0 Z " fill="#4C2603" transform="translate(348,164)"/>
<path d="M0 0 C1.32 0.66 2.64 1.32 4 2 C2.5022698 4.9954604 -0.04303887 5.52151943 -3 7 C-3.86625 7.7425 -4.7325 8.485 -5.625 9.25 C-8 11 -8 11 -10.3125 10.75 C-10.869375 10.5025 -11.42625 10.255 -12 10 C-6.16901408 4.00704225 -6.16901408 4.00704225 -3 2 C-2.01 2 -1.02 2 0 2 C0 1.34 0 0.68 0 0 Z " fill="#5E2D00" transform="translate(323,111)"/>
<path d="M0 0 C1.58294782 -0.05437607 3.16644256 -0.09296271 4.75 -0.125 C5.63171875 -0.14820312 6.5134375 -0.17140625 7.421875 -0.1953125 C10.12882938 0.0097598 11.62602311 0.771725 14 2 C14.66 1.67 15.32 1.34 16 1 C16 2.32 16 3.64 16 5 C15.34 5 14.68 5 14 5 C14 5.66 14 6.32 14 7 C11.69 7 9.38 7 7 7 C8.32 6.67 9.64 6.34 11 6 C11 5.01 11 4.02 11 3 C7.37 2.67 3.74 2.34 0 2 C0 1.34 0 0.68 0 0 Z " fill="#FAD237" transform="translate(372,121)"/>
<path d="M0 0 C1.258125 0.12375 2.51625 0.2475 3.8125 0.375 C4.87404297 0.47941406 4.87404297 0.47941406 5.95703125 0.5859375 C8 1 8 1 11 3 C11 3.66 11 4.32 11 5 C3.375 6.25 3.375 6.25 0 4 C0 2.68 0 1.36 0 0 Z " fill="#8F4601" transform="translate(388,143)"/>
<path d="M0 0 C1.32 0.66 2.64 1.32 4 2 C3.67 3.98 3.34 5.96 3 8 C2.34 8 1.68 8 1 8 C1.33 9.32 1.66 10.64 2 12 C0.68 12.33 -0.64 12.66 -2 13 C-3.18771723 9.57056481 -2.80226223 7.62215325 -1.5625 4.25 C-1.27503906 3.45078125 -0.98757813 2.6515625 -0.69140625 1.828125 C-0.46324219 1.22484375 -0.23507812 0.6215625 0 0 Z " fill="#693600" transform="translate(309,122)"/>
<path d="M0 0 C2.06473432 0.76482838 4.1267021 1.53712765 6.1875 2.3125 C7.33605469 2.74175781 8.48460937 3.17101562 9.66796875 3.61328125 C12.65856977 4.85790418 15.28007869 6.25330854 18 8 C17.67 8.99 17.34 9.98 17 11 C14.34781758 9.74118512 11.70376131 8.46885956 9.0625 7.1875 C8.30775391 6.83107422 7.55300781 6.47464844 6.77539062 6.10742188 C5.69741211 5.58051758 5.69741211 5.58051758 4.59765625 5.04296875 C3.93258057 4.72352295 3.26750488 4.40407715 2.58227539 4.07495117 C1 3 1 3 0 0 Z " fill="#FDD940" transform="translate(389,132)"/>
<path d="M0 0 C2.475 0.495 2.475 0.495 5 1 C5 4.3 5 7.6 5 11 C6.2065625 11.433125 6.2065625 11.433125 7.4375 11.875 C10 13 10 13 11 15 C9.68 15 8.36 15 7 15 C7 14.34 7 13.68 7 13 C6.20207031 12.78601563 5.40414063 12.57203125 4.58203125 12.3515625 C2 11 2 11 1.07421875 8.3984375 C0.94660156 7.40070313 0.81898438 6.40296875 0.6875 5.375 C0.54699219 4.37210937 0.40648437 3.36921875 0.26171875 2.3359375 C0.17535156 1.56507812 0.08898437 0.79421875 0 0 Z " fill="#3A1C02" transform="translate(352,123)"/>
<path d="M0 0 C0.763125 0.20625 1.52625 0.4125 2.3125 0.625 C1.9825 2.275 1.6525 3.925 1.3125 5.625 C-0.6675 6.285 -2.6475 6.945 -4.6875 7.625 C-5.0175 5.645 -5.3475 3.665 -5.6875 1.625 C-2.6875 -0.375 -2.6875 -0.375 0 0 Z " fill="#E09009" transform="translate(151.6875,114.375)"/>
<path d="M0 0 C0.33 0 0.66 0 1 0 C1.33 1.65 1.66 3.3 2 5 C2.33 5 2.66 5 3 5 C3.33 8.63 3.66 12.26 4 16 C3.01 16 2.02 16 1 16 C0.67 17.32 0.34 18.64 0 20 C0 13.4 0 6.8 0 0 Z " fill="#DE700A" transform="translate(290,252)"/>
<path d="M0 0 C1.32 0.33 2.64 0.66 4 1 C2.03030303 7.81818182 2.03030303 7.81818182 -1 10 C-1.99 10 -2.98 10 -4 10 C-4 8.35 -4 6.7 -4 5 C-2.68 4.67 -1.36 4.34 0 4 C0 2.68 0 1.36 0 0 Z " fill="#D98207" transform="translate(150,194)"/>
<path d="M0 0 C1.67542976 0.28604898 3.34385343 0.61781233 5 1 C4.67 3.31 4.34 5.62 4 8 C2.35 8 0.7 8 -1 8 C-1.04241723 5.66705225 -1.04092937 3.33297433 -1 1 C-0.67 0.67 -0.34 0.34 0 0 Z " fill="#DC8709" transform="translate(66,199)"/>
<path d="M0 0 C1.1446875 0.3403125 1.1446875 0.3403125 2.3125 0.6875 C1.4375 5.5625 1.4375 5.5625 0.3125 6.6875 C-1.35367115 6.72813832 -3.02138095 6.730221 -4.6875 6.6875 C-5.375 4.875 -5.375 4.875 -5.6875 2.6875 C-3.97309355 -0.07459928 -3.26180423 -0.37927956 0 0 Z " fill="#E28D0B" transform="translate(110.6875,139.3125)"/>
<path d="M0 0 C1.75570313 0.04060547 1.75570313 0.04060547 3.546875 0.08203125 C4.43890625 0.11683594 5.3309375 0.15164062 6.25 0.1875 C6.58 1.1775 6.91 2.1675 7.25 3.1875 C1.31 3.1875 -4.63 3.1875 -10.75 3.1875 C-6.32129086 -0.13403186 -5.28391318 -0.1585174 0 0 Z " fill="#C66D08" transform="translate(266.75,133.8125)"/>
<path d="M0 0 C1.32 0.33 2.64 0.66 4 1 C4.625 2.8125 4.625 2.8125 5 5 C4.01 6.485 4.01 6.485 3 8 C1.35 7.67 -0.3 7.34 -2 7 C-1.125 2.25 -1.125 2.25 0 0 Z " fill="#DA810C" transform="translate(77,176)"/>
<path d="M0 0 C2.6875 0.3125 2.6875 0.3125 5 1 C4.67 2.65 4.34 4.3 4 6 C2.35 6.33 0.7 6.66 -1 7 C-1.66 5.68 -2.32 4.36 -3 3 C-1.8125 1.4375 -1.8125 1.4375 0 0 Z " fill="#E19618" transform="translate(98,149)"/>
<path d="M0 0 C0 1.65 0 3.3 0 5 C-2.64 5 -5.28 5 -8 5 C-7.625 2.5625 -7.625 2.5625 -7 0 C-4.3333581 -1.33332095 -2.83319697 -0.67102033 0 0 Z " fill="#DF910B" transform="translate(181,106)"/>
<path d="M0 0 C0.66 0.66 1.32 1.32 2 2 C-2.80024943 4.76014342 -6.55817844 5.6372119 -12 6 C-12.66 5.67 -13.32 5.34 -14 5 C-14 4.01 -14 3.02 -14 2 C-12.80375 2.04125 -11.6075 2.0825 -10.375 2.125 C-6.57670047 2.13851708 -3.55024382 1.42009753 0 0 Z " fill="#9B5702" transform="translate(340,142)"/>
<path d="M0 0 C1.98 0 3.96 0 6 0 C6.33 1.32 6.66 2.64 7 4 C4 6 4 6 1.3125 5.625 C0.549375 5.41875 -0.21375 5.2125 -1 5 C-0.67 3.35 -0.34 1.7 0 0 Z " fill="#ED9508" transform="translate(188,103)"/>
<path d="M0 0 C0.99 0.66 1.98 1.32 3 2 C3 2.66 3 3.32 3 4 C-0.67452438 6.8394052 -2.26886581 8 -7 8 C-6.67 6.68 -6.34 5.36 -6 4 C-4.68 3.67 -3.36 3.34 -2 3 C-2 2.34 -2 1.68 -2 1 C-1.34 0.67 -0.68 0.34 0 0 Z " fill="#2B1300" transform="translate(352,144)"/>
<path d="M0 0 C1.67542976 0.28604898 3.34385343 0.61781233 5 1 C5 2.65 5 4.3 5 6 C3.34385343 6.38218767 1.67542976 6.71395102 0 7 C-1 6 -1 6 -1.125 3.5 C-1 1 -1 1 0 0 Z " fill="#D17F0C" transform="translate(248,277)"/>
<path d="M0 0 C4.06498881 1.37184347 6.67396561 3.22068459 9.8125 6.125 C10.99779297 7.21167969 10.99779297 7.21167969 12.20703125 8.3203125 C12.79871094 8.87460938 13.39039063 9.42890625 14 10 C13.67 10.66 13.34 11.32 13 12 C10.32610077 10.0095043 7.66142477 8.00713735 5 6 C4.01 5.2575 3.02 4.515 2 3.75 C1.34 3.1725 0.68 2.595 0 2 C0 1.34 0 0.68 0 0 Z " fill="#AE6803" transform="translate(299,112)"/>
<path d="M0 0 C2.125 0.375 2.125 0.375 4 1 C4.042721 2.66611905 4.04063832 4.33382885 4 6 C3 7 3 7 0.4375 7.0625 C-0.7690625 7.0315625 -0.7690625 7.0315625 -2 7 C-2.125 4.625 -2.125 4.625 -2 2 C-1.34 1.34 -0.68 0.68 0 0 Z " fill="#E68A09" transform="translate(72,187)"/>
<path d="M0 0 C1.65 0.33 3.3 0.66 5 1 C4.67 2.65 4.34 4.3 4 6 C2.35 6.33 0.7 6.66 -1 7 C-2 4 -2 4 -1.0625 1.8125 C-0.5365625 0.9153125 -0.5365625 0.9153125 0 0 Z " fill="#DD890F" transform="translate(90,157)"/>
<path d="M0 0 C1.485 0.99 1.485 0.99 3 2 C3.3984375 4.0234375 3.3984375 4.0234375 3.375 6.375 C3.38273438 7.14585937 3.39046875 7.91671875 3.3984375 8.7109375 C3 11 3 11 0 15 C0 10.05 0 5.1 0 0 Z " fill="#EA7607" transform="translate(168,242)"/>
<path d="M0 0 C0.33 0 0.66 0 1 0 C1 2.64 1 5.28 1 8 C1.66 8.33 2.32 8.66 3 9 C2.67 10.65 2.34 12.3 2 14 C1.34 13.01 0.68 12.02 0 11 C-2.56282742 10.27034634 -2.56282742 10.27034634 -5 10 C-4.34 9.34 -3.68 8.68 -3 8 C-3 7.01 -3 6.02 -3 5 C-2.34 5 -1.68 5 -1 5 C-0.67 3.35 -0.34 1.7 0 0 Z " fill="#844A02" transform="translate(313,125)"/>
<path d="M0 0 C2.97 0.495 2.97 0.495 6 1 C6.33 5.29 6.66 9.58 7 14 C6.01 14 5.02 14 4 14 C3.96261719 13.24074219 3.92523438 12.48148438 3.88671875 11.69921875 C3.82097656 10.70535156 3.75523437 9.71148437 3.6875 8.6875 C3.62949219 7.70136719 3.57148438 6.71523437 3.51171875 5.69921875 C2.95377187 2.75615543 2.31459868 1.81817001 0 0 Z " fill="#6C3800" transform="translate(344,120)"/>
<path d="M0 0 C2.97 0 5.94 0 9 0 C9 1.32 9 2.64 9 4 C6.03 4 3.06 4 0 4 C0 2.68 0 1.36 0 0 Z " fill="#F69D03" transform="translate(215,101)"/>
<path d="M0 0 C1.65 0.33 3.3 0.66 5 1 C5 2.65 5 4.3 5 6 C3.68 6.33 2.36 6.66 1 7 C-1 4 -1 4 -0.625 1.8125 C-0.41875 1.214375 -0.2125 0.61625 0 0 Z " fill="#E28608" transform="translate(302,294)"/>
<path d="M0 0 C0.33 0 0.66 0 1 0 C1.21755666 5.4389165 1.10428384 9.87080814 -1 15 C-1.33 15 -1.66 15 -2 15 C-2.05386629 12.87527424 -2.09273071 10.75016348 -2.125 8.625 C-2.14820313 7.44164062 -2.17140625 6.25828125 -2.1953125 5.0390625 C-2 2 -2 2 0 0 Z " fill="#EE800C" transform="translate(291,234)"/>
<path d="M0 0 C1.67542976 0.28604898 3.34385343 0.61781233 5 1 C4.67 2.65 4.34 4.3 4 6 C2.0625 6.5625 2.0625 6.5625 0 7 C-1 6 -1 6 -1.125 3.5 C-1 1 -1 1 0 0 Z " fill="#EB910A" transform="translate(83,167)"/>
<path d="M0 0 C1.32 0 2.64 0 4 0 C4 2.31 4 4.62 4 7 C2.35 7 0.7 7 -1 7 C-1.04254356 5.00045254 -1.04080783 2.99958364 -1 1 C-0.67 0.67 -0.34 0.34 0 0 Z " fill="#E78608" transform="translate(247,264)"/>
<path d="M0 0 C1.32 0 2.64 0 4 0 C4 1.98 4 3.96 4 6 C2.35 6.33 0.7 6.66 -1 7 C-1.04254356 5.00045254 -1.04080783 2.99958364 -1 1 C-0.67 0.67 -0.34 0.34 0 0 Z " fill="#DA830A" transform="translate(248,253)"/>
<path d="M0 0 C1.65 0.33 3.3 0.66 5 1 C4.67 2.65 4.34 4.3 4 6 C2.35 5.67 0.7 5.34 -1 5 C-0.67 3.35 -0.34 1.7 0 0 Z " fill="#D57907" transform="translate(49,148)"/>
<path d="M0 0 C0.8125 1.625 0.8125 1.625 1 4 C-1.3125 7.25 -1.3125 7.25 -4 10 C-4.66 10 -5.32 10 -6 10 C-5.58578031 5.16743695 -3.53586014 3.17320782 0 0 Z " fill="#DF890F" transform="translate(293,201)"/>
<path d="M0 0 C0.66 0.66 1.32 1.32 2 2 C0.54550599 3.0055761 -0.91372443 4.00430435 -2.375 5 C-3.59316406 5.8353125 -3.59316406 5.8353125 -4.8359375 6.6875 C-7 8 -7 8 -9 8 C-9.33 7.01 -9.66 6.02 -10 5 C-6.7 3.35 -3.4 1.7 0 0 Z " fill="#B56606" transform="translate(304,176)"/>
<path d="M0 0 C1.98 0 3.96 0 6 0 C6.33 0.99 6.66 1.98 7 3 C6.67 3.66 6.34 4.32 6 5 C4.35 5 2.7 5 1 5 C0.67 3.35 0.34 1.7 0 0 Z " fill="#DA840C" transform="translate(117,78)"/>
<path d="M0 0 C1.65 0.33 3.3 0.66 5 1 C4.67 2.65 4.34 4.3 4 6 C2.35 6 0.7 6 -1 6 C-0.67 4.02 -0.34 2.04 0 0 Z " fill="#CF7A06" transform="translate(43,157)"/>
<path d="M0 0 C2.64 1.65 5.28 3.3 8 5 C7.34 6.32 6.68 7.64 6 9 C4.68 8.67 3.36 8.34 2 8 C1.855625 7.236875 1.71125 6.47375 1.5625 5.6875 C1.0367406 2.91827092 1.0367406 2.91827092 0 0 Z " fill="#FAEE83" transform="translate(336,128)"/>
<path d="M0 0 C3.57983659 3.34118082 5.89716734 5.73768141 6.125 10.75 C6.08375 11.4925 6.0425 12.235 6 13 C4.68 13.33 3.36 13.66 2 14 C2 13.34 2 12.68 2 12 C2.66 12 3.32 12 4 12 C3.40138258 9.64828869 2.73075648 7.3140622 2 5 C1.34 4.67 0.68 4.34 0 4 C0 2.68 0 1.36 0 0 Z " fill="#E3BE2B" transform="translate(384,114)"/>
<path d="M0 0 C1.67542976 0.28604898 3.34385343 0.61781233 5 1 C5 1.99 5 2.98 5 4 C4.34 4 3.68 4 3 4 C3 4.66 3 5.32 3 6 C1.68 6 0.36 6 -1 6 C-1.042721 4.33388095 -1.04063832 2.66617115 -1 1 C-0.67 0.67 -0.34 0.34 0 0 Z " fill="#D58B0E" transform="translate(82,118)"/>
<path d="M0 0 C1.67542976 0.28604898 3.34385343 0.61781233 5 1 C4.67 2.65 4.34 4.3 4 6 C2.68 5.67 1.36 5.34 0 5 C-0.5625 3.0625 -0.5625 3.0625 -1 1 C-0.67 0.67 -0.34 0.34 0 0 Z " fill="#DF8C06" transform="translate(179,350)"/>
<path d="M0 0 C-2.43727292 1.62484861 -4.37286123 2.65689075 -7.0625 3.6875 C-8.10083984 4.09548828 -8.10083984 4.09548828 -9.16015625 4.51171875 C-11 5 -11 5 -13 4 C-13 3.34 -13 2.68 -13 2 C-8.49646738 0.24252386 -4.82360189 -0.19294408 0 0 Z " fill="#AC5D06" transform="translate(307,168)"/>
<path d="M0 0 C1.65 0.33 3.3 0.66 5 1 C4.67 2.32 4.34 3.64 4 5 C2.68 5.33 1.36 5.66 0 6 C-1.125 2.25 -1.125 2.25 0 0 Z " fill="#C87C07" transform="translate(72,125)"/>
<path d="M0 0 C0.598125 0.20625 1.19625 0.4125 1.8125 0.625 C1.4825 1.945 1.1525 3.265 0.8125 4.625 C-1.1675 4.625 -3.1475 4.625 -5.1875 4.625 C-5.1875 3.635 -5.1875 2.645 -5.1875 1.625 C-2.1875 -0.375 -2.1875 -0.375 0 0 Z " fill="#D17605" transform="translate(98.1875,110.375)"/>
<path d="M0 0 C1.65 0 3.3 0 5 0 C5.33 1.32 5.66 2.64 6 4 C4.35 4.33 2.7 4.66 1 5 C0.67 3.35 0.34 1.7 0 0 Z " fill="#DB880B" transform="translate(164,334)"/>
<path d="M0 0 C0.66 0 1.32 0 2 0 C5.27838209 3.73536869 7.33938825 7.48086017 7.3125 12.5 C7.209375 13.655 7.10625 14.81 7 16 C6.67 16 6.34 16 6 16 C5.81824219 15.34773437 5.63648438 14.69546875 5.44921875 14.0234375 C4.02533404 9.07269989 2.50592766 4.53453577 0 0 Z " fill="#FBDD3F" transform="translate(423,158)"/>
<path d="M0 0 C1.27875 -0.061875 2.5575 -0.12375 3.875 -0.1875 C4.95394531 -0.23970703 4.95394531 -0.23970703 6.0546875 -0.29296875 C6.69664062 -0.19628906 7.33859375 -0.09960938 8 0 C8.66 0.99 9.32 1.98 10 3 C6.7 3 3.4 3 0 3 C0 2.01 0 1.02 0 0 Z " fill="#DD8B0A" transform="translate(304,157)"/>
<path d="M0 0 C1.98 0.99 1.98 0.99 4 2 C4 4.97 4 7.94 4 11 C3.34 10.67 2.68 10.34 2 10 C1.3671875 7.71484375 1.3671875 7.71484375 0.875 4.9375 C0.70742188 4.01839844 0.53984375 3.09929687 0.3671875 2.15234375 C0.24601562 1.44207031 0.12484375 0.73179688 0 0 Z " fill="#824601" transform="translate(344,121)"/>
<path d="M0 0 C1.32 0 2.64 0 4 0 C4 1.65 4 3.3 4 5 C2.68 5.33 1.36 5.66 0 6 C-1.125 2.25 -1.125 2.25 0 0 Z " fill="#C17308" transform="translate(197,230)"/>
<path d="M0 0 C1.98 0.495 1.98 0.495 4 1 C3.67 2.65 3.34 4.3 3 6 C1.68 5.67 0.36 5.34 -1 5 C-0.67 3.35 -0.34 1.7 0 0 Z " fill="#E48D0A" transform="translate(171,341)"/>
<path d="M0 0 C-1.09445838 0.86657116 -2.20097781 1.71792724 -3.3125 2.5625 C-3.92738281 3.03816406 -4.54226563 3.51382813 -5.17578125 4.00390625 C-5.77777344 4.33261719 -6.37976563 4.66132812 -7 5 C-7.99 4.67 -8.98 4.34 -10 4 C-4.7704918 -1.59016393 -4.7704918 -1.59016393 0 0 Z " fill="#461F00" transform="translate(319,115)"/>
<path d="M0 0 C0.99 0 1.98 0 3 0 C1.375 5.75 1.375 5.75 -2 8 C-1.125 1.125 -1.125 1.125 0 0 Z " fill="#D78007" transform="translate(283,214)"/>
<path d="M0 0 C2.71675995 0.36712972 4.61063713 0.72744599 6.875 2.3125 C8 4 8 4 7.6875 6.1875 C7.460625 6.785625 7.23375 7.38375 7 8 C5.76302083 6.50260417 4.52604167 5.00520833 3.2890625 3.5078125 C2.24749008 2.28948839 1.13339903 1.13339903 0 0 Z " fill="#F2D148" transform="translate(376,109)"/>
<path d="M0 0 C1.98 0 3.96 0 6 0 C6 0.66 6 1.32 6 2 C7.98 2 9.96 2 12 2 C12 2.33 12 2.66 12 3 C8.04 3 4.08 3 0 3 C0 2.01 0 1.02 0 0 Z " fill="#E08409" transform="translate(249,104)"/>
<path d="M0 0 C1.32 0 2.64 0 4 0 C4 1.65 4 3.3 4 5 C2.35 5 0.7 5 -1 5 C-0.67 3.35 -0.34 1.7 0 0 Z " fill="#F8AF10" transform="translate(202,101)"/>
<path d="M0 0 C1.875 0.125 1.875 0.125 4 1 C5.25 4.0625 5.25 4.0625 6 7 C3.53199953 5.84826645 1.95216435 4.95216435 0 3 C0 2.01 0 1.02 0 0 Z " fill="#CF650C" transform="translate(319,287)"/>
<path d="M0 0 C0.66 0.33 1.32 0.66 2 1 C-1.17320782 4.53586014 -3.16743695 6.58578031 -8 7 C-5.42215154 4.35247996 -3.08351902 2.05567935 0 0 Z " fill="#522A05" transform="translate(380,146)"/>
<path d="M0 0 C0.79921875 0.11085937 1.5984375 0.22171875 2.421875 0.3359375 C3.32679688 0.47902344 3.32679688 0.47902344 4.25 0.625 C4.25 1.285 4.25 1.945 4.25 2.625 C-0.04 2.295 -4.33 1.965 -8.75 1.625 C-4.77033543 -0.36483228 -4.07324868 -0.59900716 0 0 Z " fill="#BF6D08" transform="translate(293.75,137.375)"/>
<path d="M0 0 C1.32 0 2.64 0 4 0 C4 1.65 4 3.3 4 5 C2.35 4.67 0.7 4.34 -1 4 C-0.67 2.68 -0.34 1.36 0 0 Z " fill="#CF8709" transform="translate(218,92)"/>
<path d="M0 0 C1.65 0 3.3 0 5 0 C4.67 1.65 4.34 3.3 4 5 C2.68 4.67 1.36 4.34 0 4 C0 2.68 0 1.36 0 0 Z " fill="#C98409" transform="translate(141,82)"/>
<path d="M0 0 C2.475 0.495 2.475 0.495 5 1 C5 2.32 5 3.64 5 5 C3.35 4.67 1.7 4.34 0 4 C0 2.68 0 1.36 0 0 Z " fill="#E28406" transform="translate(130,80)"/>
<path d="M0 0 C0.99 0.33 1.98 0.66 3 1 C3 2.65 3 4.3 3 6 C1.68 6 0.36 6 -1 6 C-1.042721 4.33388095 -1.04063832 2.66617115 -1 1 C-0.67 0.67 -0.34 0.34 0 0 Z " fill="#DB7A10" transform="translate(250,243)"/>
<path d="M0 0 C1.32 0.33 2.64 0.66 4 1 C3.34 2.98 2.68 4.96 2 7 C1.67 6.34 1.34 5.68 1 5 C-1.02463255 4.34786708 -1.02463255 4.34786708 -3 4 C-2.01 4 -1.02 4 0 4 C0 2.68 0 1.36 0 0 Z " fill="#B15E09" transform="translate(150,194)"/>
<path d="M0 0 C0.99 0.33 1.98 0.66 3 1 C1.68 3.31 0.36 5.62 -1 8 C-1.66 7.67 -2.32 7.34 -3 7 C-1.125 1.125 -1.125 1.125 0 0 Z " fill="#E8CF43" transform="translate(433,187)"/>
<path d="M0 0 C-2.39509338 2.89932357 -4.31245243 3.50168276 -8 4 C-7 1 -7 1 -5.125 -0.25 C-3 -1 -3 -1 0 0 Z " fill="#3E1F04" transform="translate(337,168)"/>
<path d="M0 0 C0.99 0.33 1.98 0.66 3 1 C2.01 1.495 2.01 1.495 1 2 C0.67 2.99 0.34 3.98 0 5 C0.66 5.33 1.32 5.66 2 6 C0.35 6.33 -1.3 6.66 -3 7 C-3.33 6.01 -3.66 5.02 -4 4 C-2.68 2.68 -1.36 1.36 0 0 Z " fill="#3D1E02" transform="translate(345,147)"/>
<path d="M0 0 C2.00720923 0.28674418 4.0085944 0.61866701 6 1 C4.68 1.33 3.36 1.66 2 2 C2 3.32 2 4.64 2 6 C1.34 6 0.68 6 0 6 C-0.38218767 4.34385343 -0.71395102 2.67542976 -1 1 C-0.67 0.67 -0.34 0.34 0 0 Z " fill="#C56501" transform="translate(386,141)"/>
<path d="M0 0 C3.63 0 7.26 0 11 0 C10.01 1.485 10.01 1.485 9 3 C6.0625 3.375 6.0625 3.375 3 3 C2.01 2.01 1.02 1.02 0 0 Z " fill="#FEFDE1" transform="translate(325,135)"/>
<path d="M0 0 C1.32 0 2.64 0 4 0 C3.67 1.65 3.34 3.3 3 5 C1.68 4.34 0.36 3.68 -1 3 C-0.67 2.01 -0.34 1.02 0 0 Z " fill="#C88107" transform="translate(151,83)"/>
<path d="M0 0 C1.32 0.33 2.64 0.66 4 1 C4 2.32 4 3.64 4 5 C2.68 5 1.36 5 0 5 C0 3.35 0 1.7 0 0 Z " fill="#CA7609" transform="translate(195,283)"/>
<path d="M0 0 C0.33 0 0.66 0 1 0 C1 2.64 1 5.28 1 8 C1.99 8.33 2.98 8.66 4 9 C3.02149805 10.02104551 2.02019573 11.0206121 1 12 C0.67 12 0.34 12 0 12 C0 8.04 0 4.08 0 0 Z " fill="#B88F1D" transform="translate(424,190)"/>
<path d="M0 0 C0.33 0.99 0.66 1.98 1 3 C1.66 3.33 2.32 3.66 3 4 C1.02 4.33 -0.96 4.66 -3 5 C-3 4.01 -3 3.02 -3 2 C-3.66 1.67 -4.32 1.34 -5 1 C-3.35 0.67 -1.7 0.34 0 0 Z " fill="#C06507" transform="translate(250,151)"/>
<path d="M0 0 C1.65 0 3.3 0 5 0 C5.33 0.99 5.66 1.98 6 3 C3.69 3 1.38 3 -1 3 C-0.67 2.01 -0.34 1.02 0 0 Z " fill="#572D01" transform="translate(393,145)"/>
<path d="M0 0 C2.31 0.33 4.62 0.66 7 1 C6.67 1.99 6.34 2.98 6 4 C3.03 3.505 3.03 3.505 0 3 C0 2.01 0 1.02 0 0 Z " fill="#814602" transform="translate(319,144)"/>
<path d="M0 0 C0.66 0.33 1.32 0.66 2 1 C1.67 2.98 1.34 4.96 1 7 C-0.32 7 -1.64 7 -3 7 C-2.01 4.69 -1.02 2.38 0 0 Z " fill="#FDF9B8" transform="translate(337,131)"/>
<path d="M0 0 C-0.66 2.31 -1.32 4.62 -2 7 C-2.66 6.67 -3.32 6.34 -4 6 C-4 4.35 -4 2.7 -4 1 C-2 0 -2 0 0 0 Z " fill="#FCF29A" transform="translate(325,126)"/>
<path d="M0 0 C2.97 0.495 2.97 0.495 6 1 C6 2.65 6 4.3 6 6 C4.02 5.01 2.04 4.02 0 3 C0 2.01 0 1.02 0 0 Z " fill="#CF8915" transform="translate(335,125)"/>
<path d="M0 0 C2.64 0.33 5.28 0.66 8 1 C8 1.33 8 1.66 8 2 C6.02 2 4.04 2 2 2 C2 2.66 2 3.32 2 4 C1.01 4 0.02 4 -1 4 C-0.67 2.68 -0.34 1.36 0 0 Z " fill="#C97B0F" transform="translate(268,119)"/>
<path d="M0 0 C1.32 0 2.64 0 4 0 C4 1.32 4 2.64 4 4 C2.35 4 0.7 4 -1 4 C-0.67 2.68 -0.34 1.36 0 0 Z " fill="#D78F0B" transform="translate(106,106)"/>
<path d="M0 0 C5.75 0.875 5.75 0.875 8 2 C7.67 2.99 7.34 3.98 7 5 C4.69 4.01 2.38 3.02 0 2 C0 1.34 0 0.68 0 0 Z " fill="#ECBF42" transform="translate(345,90)"/>
<path d="M0 0 C2.475 0.495 2.475 0.495 5 1 C5 1.99 5 2.98 5 4 C3.35 4 1.7 4 0 4 C0 2.68 0 1.36 0 0 Z " fill="#C77409" transform="translate(169,85)"/>
<path d="M0 0 C1.65 0 3.3 0 5 0 C4.67 1.32 4.34 2.64 4 4 C2.68 4 1.36 4 0 4 C0 2.68 0 1.36 0 0 Z " fill="#C46F06" transform="translate(158,84)"/>
<path d="M0 0 C0.99 0.33 1.98 0.66 3 1 C3 2.32 3 3.64 3 5 C1.68 5 0.36 5 -1 5 C-0.67 3.35 -0.34 1.7 0 0 Z " fill="#D67A05" transform="translate(194,245)"/>
<path d="M0 0 C1.98 0.99 3.96 1.98 6 3 C6 3.66 6 4.32 6 5 C3.36 4.34 0.72 3.68 -2 3 C-1.34 2.67 -0.68 2.34 0 2 C0 1.34 0 0.68 0 0 Z " fill="#B46A08" transform="translate(287,113)"/>
<path d="M0 0 C1.32 0 2.64 0 4 0 C3.67 1.32 3.34 2.64 3 4 C1.68 4 0.36 4 -1 4 C-0.67 2.68 -0.34 1.36 0 0 Z " fill="#B06D0C" transform="translate(127,99)"/>
<path d="M0 0 C0.99 0.33 1.98 0.66 3 1 C3 2.32 3 3.64 3 5 C1.68 5 0.36 5 -1 5 C-0.67 3.35 -0.34 1.7 0 0 Z " fill="#B96D06" transform="translate(193,266)"/>
<path d="M0 0 C4.875 3.625 4.875 3.625 6 7 C4.125 6.6875 4.125 6.6875 2 6 C0 3 0 3 0 0 Z " fill="#D6B939" transform="translate(426,147)"/>
<path d="M0 0 C0.66 0 1.32 0 2 0 C2 1.32 2 2.64 2 4 C2.99 4 3.98 4 5 4 C4.67 4.99 4.34 5.98 4 7 C3.01 7 2.02 7 1 7 C0.67 4.69 0.34 2.38 0 0 Z " fill="#653602" transform="translate(314,142)"/>
<path d="M0 0 C0.33 0.99 0.66 1.98 1 3 C2.65204456 3.70211894 4.31923769 4.36971413 6 5 C6.33 5.66 6.66 6.32 7 7 C5.68 7 4.36 7 3 7 C3 6.34 3 5.68 3 5 C2.01 4.67 1.02 4.34 0 4 C0 2.68 0 1.36 0 0 Z " fill="#4B2B07" transform="translate(356,131)"/>
<path d="M0 0 C2.3431213 0.25561323 4.67843403 0.59270772 7 1 C7.33 1.66 7.66 2.32 8 3 C2.25 3.125 2.25 3.125 0 2 C0 1.34 0 0.68 0 0 Z " fill="#C27F11" transform="translate(290,125)"/>
<path d="M0 0 C1.65 0 3.3 0 5 0 C5 1.32 5 2.64 5 4 C3.0625 3.6875 3.0625 3.6875 1 3 C0.67 2.01 0.34 1.02 0 0 Z " fill="#D38306" transform="translate(190,88)"/>
<path d="M0 0 C1.32 0 2.64 0 4 0 C4.33 0.99 4.66 1.98 5 3 C3.35 3.33 1.7 3.66 0 4 C0 2.68 0 1.36 0 0 Z " fill="#C78208" transform="translate(180,86)"/>
</svg>
